<svg width="485" height="386" viewBox="0 0 485 386" fill="none" xmlns="http://www.w3.org/2000/svg">
<rect x="273.294" y="32.3922" width="211.663" height="211.663" rx="22.2316" fill="white"/>
<path fill-rule="evenodd" clip-rule="evenodd" d="M378.326 67.3671C425.693 107.313 475.414 92.0042 480.99 137.979C486.912 186.847 471.07 157.436 432.917 187.927C377.236 232.429 293.624 216.902 290.528 137.515C288.467 84.6263 340.694 35.6325 378.326 67.3671Z" fill="#F5F2FD"/>
<path d="M277.838 174.503C278.255 173.578 278.505 172.634 278.998 171.854C279.553 171.095 280.487 170.508 281.453 170.852C285.778 172.253 290.127 172.221 292.467 168.648C292.451 168.702 292.445 168.759 292.448 168.816C292.449 168.868 292.512 168.888 292.564 168.887C292.618 168.991 292.818 169.073 292.923 169.124C293.469 169.368 294.086 169.392 294.682 169.322C295.433 169.198 296.044 168.699 296.698 168.336C297.12 168.083 297.566 167.871 298.029 167.703C298.039 167.946 298.014 168.189 297.954 168.425C297.942 168.421 297.929 168.42 297.916 168.422C297.903 168.424 297.891 168.429 297.881 168.436C297.356 169.154 296.261 169.376 295.347 169.9C294.568 170.275 293.927 170.868 293.381 171.544C292.864 172.147 292.442 172.826 292.13 173.556C291.396 175.144 291.198 176.903 291.114 178.629C291.108 178.974 290.932 180.827 291.514 180.527C292.071 179.924 292.365 179.168 292.977 178.774C294.75 177.518 296.964 177.324 298.535 175.779C300.115 174.149 301.258 171.009 299.302 169.256C299.013 169.007 298.681 168.813 298.323 168.682C298.26 168.662 298.218 168.631 298.155 168.611C298.244 168.283 298.282 167.944 298.268 167.606C298.64 167.49 299.027 167.433 299.416 167.435C299.991 167.428 300.588 167.514 301.151 167.382C302.121 167.172 302.885 166.357 303.155 165.403C303.235 165.098 303.356 164.721 303.352 164.355C303.837 164.736 304.364 165.095 304.963 165.287C305.823 165.527 306.899 165.42 307.232 164.433C307.433 163.803 307.279 163.146 307.219 162.52C307.162 162.102 307.29 161.484 307.368 160.971C307.41 161.204 307.498 161.427 307.626 161.626C307.786 161.886 307.967 162.134 308.148 162.383C308.06 163.743 308.047 165.249 308.793 166.443C306.939 166.162 306.526 169.136 303.936 167.683C303.6 167.541 302.692 166.851 302.574 167.491C302.545 167.69 302.631 167.856 302.696 168.033C302.868 168.471 303.106 168.88 303.401 169.248C304.292 170.314 305.828 171.1 307.214 170.728C307.704 170.607 308.159 170.214 308.46 169.981C308.818 169.726 309.214 169.531 309.634 169.402C310.488 169.12 311.407 169.015 312.165 168.545C312.339 168.431 312.499 168.296 312.641 168.142C312.764 168.841 313.243 169.515 314.275 170.14C315.674 170.866 317.059 171.257 318.182 172.414C318.372 172.579 318.755 173.118 319.009 173.408C319.327 173.77 319.555 173.6 319.623 173.17C320.105 171.502 320.187 169.671 319.415 168.071C319.06 167.228 318.483 166.263 318.255 165.513C318.11 164.824 318.125 164.291 318.168 163.558C318.26 162.504 318.576 161.48 319.094 160.557C319.278 160.199 319.556 159.872 319.782 159.545C320.295 160.438 320.392 161.597 320.205 162.509C319.907 163.82 319.171 165.198 319.731 166.54C319.958 167.186 320.394 167.776 321.086 167.946C321.464 168.067 321.882 168.062 322.25 168.214C322.461 168.289 322.662 168.388 322.85 168.51L322.944 168.54C322.962 168.535 322.979 168.526 322.994 168.514C323.008 168.502 323.02 168.487 323.029 168.471C323.038 168.454 323.043 168.435 323.044 168.417C323.045 168.398 323.043 168.379 323.036 168.361C323.201 168.171 323.319 167.584 323.391 167.468C324.231 165.168 325.511 163.772 324.641 161.064C324.535 160.72 324.405 160.382 324.253 160.055C324.493 160.01 324.722 159.945 324.962 159.9C326.265 159.57 327.646 159.648 328.762 160.335C329.131 160.539 329.626 160.837 329.848 161.064C329.986 161.177 330.061 161.375 330.239 161.415C330.584 161.369 330.296 160.912 330.273 160.714C329.967 159.661 329.808 158.639 329.859 157.613C329.868 155.794 330.862 154.151 331.363 152.367C331.721 150.816 331.408 149.136 330.68 147.723C329.663 145.801 327.401 144.626 325.277 145.404L324.945 145.576C324.169 144.581 323.011 143.916 321.825 143.502C321.069 143.208 320.272 143.092 319.506 142.829C318.14 142.323 316.542 141.569 315.256 142.442C315.276 142.379 315.307 142.337 315.317 142.305C316.137 140.936 316.18 139.283 316.328 137.734C316.358 136.98 316.486 136.234 316.709 135.513C316.71 135.516 316.712 135.518 316.714 135.52C316.717 135.522 316.72 135.524 316.722 135.525C316.725 135.526 316.729 135.526 316.732 135.526C316.735 135.525 316.738 135.524 316.74 135.523C317.231 135.454 317.694 135.741 318.26 135.818C318.771 135.868 319.285 135.876 319.797 135.841C319.916 136.122 320.034 136.403 320.215 136.652C320.64 137.222 321.22 137.633 321.872 137.928C323.333 138.569 323.997 137.306 324.633 136.243C324.869 135.884 325.274 135.649 325.678 135.31C326.082 134.975 326.415 134.562 326.656 134.096C327.045 133.369 327.18 132.458 326.857 131.678C326.621 131.168 326.075 130.976 325.571 130.815C324.794 130.584 324.009 130.489 323.253 130.195C322.707 130.003 322.212 129.706 321.635 129.556C321.194 129.415 320.713 129.452 320.264 129.499C319.784 129.605 319.294 129.664 318.803 129.674C319.081 128.479 319.306 127.18 320.017 126.366C320.646 125.595 321.583 125.27 322.534 125.227C322.675 125.21 322.818 125.226 322.952 125.274C323.359 126.012 323.87 126.748 324.709 126.999C325.308 127.243 326.059 127.118 326.514 126.674C326.589 126.581 326.651 126.478 326.698 126.368C327.058 127.577 327.819 128.237 329.135 128.137C329.501 128.133 329.856 128.055 330.221 127.998C330.367 127.976 330.534 127.942 330.648 127.857C330.897 127.677 330.923 127.269 330.66 127.115C330.282 126.942 329.824 127.125 329.438 127.192C329.01 127.281 328.74 127.421 328.414 127.299C327.91 127.086 327.464 126.526 327.02 126.124C327.698 125.959 328.3 125.596 328.69 125.027C329.123 124.54 329.612 124.315 330.268 124.161C330.884 124.028 331.55 123.842 331.973 123.335C332.569 122.502 332.574 121.184 331.781 120.462C330.597 119.389 329.194 120.033 329.234 121.643C329.23 122.145 329.3 122.792 329.19 123.139C329.028 123.59 328.635 123.951 328.126 124.239C327.7 124.432 327.263 124.657 326.975 125.016C326.971 123.835 326.148 123.259 325.156 122.456C324.36 121.815 323.444 121.34 322.462 121.056C322.064 120.946 321.612 120.784 321.196 120.946C320.749 121.15 320.849 121.703 321.094 122.024C321.606 122.865 322.616 123.396 322.668 124.264C322.723 124.42 322.642 124.672 322.665 124.87C321.651 124.84 320.589 125.23 319.908 126.001C318.969 126.985 318.808 128.357 318.509 129.615C317.694 129.667 316.858 129.677 316.044 129.781C316.012 129.771 315.991 129.782 315.961 129.824C315.935 129.811 315.905 129.808 315.877 129.814C315.852 129.824 315.829 129.839 315.812 129.86C315.795 129.88 315.783 129.905 315.778 129.931C315.773 129.958 315.775 129.985 315.784 130.01C315.793 130.036 315.808 130.058 315.828 130.076C316.614 130.475 317.297 131.05 317.824 131.756C317.287 133.164 316.624 134.531 316.276 135.999C315.929 137.572 316.066 139.316 315.644 140.743C315.464 141.467 315.135 141.952 314.83 142.635C314.861 142.593 314.82 142.667 314.779 142.74C314.689 142.83 314.62 142.938 314.574 143.057L314.542 143.046C312.936 142.533 311.331 143.755 309.967 144.221C309.519 144.373 309.028 144.441 308.663 144.498C308.266 144.545 307.148 144.569 307.939 145.134C308.74 145.668 309.624 146.107 310.405 146.704C310.849 147.106 311.264 147.708 311.564 148.29C312.367 149.9 312.985 151.712 314.132 153.12C314.122 153.154 314.122 153.191 314.133 153.225C314.615 154.16 314.177 155.148 313.232 155.662C312.795 155.886 312.117 155.947 311.587 156.246C310.074 155.606 308.424 156.692 307.603 157.957C307.286 158.567 307.18 159.28 307.157 159.949C307.156 160.155 307.165 160.361 307.185 160.565C307.15 160.519 307.104 160.482 307.05 160.459C306.997 160.436 306.938 160.427 306.88 160.433C306.337 160.503 305.981 161.291 305.764 161.534C305.476 161.893 304.997 162.035 304.559 162.103C305.097 160.8 305.308 159.219 305.338 158.256C305.334 157.943 305.413 157.586 305.368 157.294C305.388 157.285 305.405 157.272 305.42 157.255C305.434 157.239 305.444 157.22 305.45 157.199C305.479 157 305.936 156.712 306.131 156.375C306.366 155.964 306.433 155.483 306.428 155.012C306.479 154.039 306.081 153.113 305.475 152.347C304.901 151.538 303.861 151.154 303.135 150.765C302.135 150.202 301.322 149.543 300.943 148.502C300.776 148.027 300.713 147.521 300.758 147.02C300.865 146.36 300.821 145.304 299.882 145.472C298.563 146.231 298.612 149.388 298.952 150.712C299.436 152.724 300.27 155.056 299.948 156.931C299.829 157.518 299.573 157.939 299.155 157.944C299.123 157.934 299.102 157.945 299.071 157.935C298.641 156.947 298.086 156.023 297.51 155.11C297.467 155.027 297.414 154.975 297.372 154.892C297.585 154.583 297.756 154.247 297.882 153.893C298.051 153.442 298.171 152.974 298.242 152.498C298.356 152.413 298.29 152.184 298.278 152.058C298.218 151.432 297.898 150.86 297.65 150.278C297.242 149.384 297.219 148.37 296.831 147.413C296.317 146.363 295.292 145.497 294.109 145.396C294.015 145.385 293.92 145.39 293.827 145.41C293.708 144.636 293.657 143.853 293.673 143.07C294.235 142.885 294.743 142.492 294.945 141.915C295.061 141.658 295.115 141.378 295.102 141.097C295.749 140.922 296.446 140.641 296.72 140C296.781 139.811 296.841 139.622 296.881 139.444C297.039 139.754 297.24 140.04 297.477 140.294C298.333 141.037 299.186 139.834 299.575 139.16C300.128 138.244 301.332 137.518 301.694 136.332C302.099 135.177 301.966 133.747 301.098 132.827C300.515 132.206 299.715 131.777 298.876 131.578C298.241 131.481 297.59 131.562 296.997 131.81L296.976 131.821C296.49 131.512 295.934 131.328 295.36 131.286C294.522 131.192 293.743 131.567 292.94 131.796C292.714 131.848 292.481 131.861 292.251 131.836L292.219 131.826C292.193 131.813 292.164 131.81 292.136 131.816C291.792 131.099 291.449 130.382 291.147 129.643C290.889 129.04 290.62 128.416 290.372 127.781C290.736 127.831 291.107 127.801 291.458 127.695C292.031 127.531 292.474 126.961 292.425 126.355C292.389 125.979 292.196 125.605 292.214 125.333C292.2 125.103 292.397 124.923 292.571 124.597C292.836 124.039 292.556 123.394 292.247 122.896C291.725 122.087 290.674 121.682 289.714 121.861C289.37 121.907 289.129 121.847 288.824 121.767C289.424 121.195 289.6 120.21 290.053 119.608C290.155 119.479 290.269 119.358 290.394 119.249C290.385 119.277 290.386 119.307 290.396 119.335C290.406 119.363 290.424 119.388 290.448 119.405C290.451 119.453 290.466 119.499 290.491 119.54C290.738 120.469 291.176 121.337 291.777 122.086C292.234 122.719 292.888 123.223 293.694 123.255C294.123 123.323 294.518 123.12 294.861 122.917C295.245 122.693 295.64 122.489 296.035 122.286C296.535 122.034 297.099 121.936 297.654 122.006C298.21 122.076 298.733 122.309 299.155 122.677C299.44 122.872 299.664 123.256 299.971 123.545C299.989 123.576 300.018 123.599 300.051 123.612C300.085 123.624 300.122 123.625 300.156 123.614C300.19 123.602 300.219 123.579 300.239 123.549C300.258 123.519 300.266 123.483 300.262 123.447C300.24 123.353 300.145 123.271 300.103 123.188C299.56 122.389 299.16 121.359 298.554 120.488C297.766 119.368 296.905 118.208 295.736 117.469C294.957 117.029 294.035 116.873 293.146 116.884C292.704 116.891 292.27 117 291.877 117.202C291.484 117.405 291.143 117.695 290.881 118.051C290.711 118.301 290.577 118.574 290.483 118.861C290.445 118.876 290.413 118.902 290.39 118.935C289.633 119.457 289.476 120.274 289.087 121C288.882 121.369 288.728 121.58 288.427 121.761L288.344 121.804C287.841 119.959 287.42 118.072 287.555 116.241C287.561 116.146 287.574 116.051 287.593 115.958C287.74 115.935 287.896 115.933 288.032 115.89C288.563 115.748 288.871 115.273 289.022 114.749C289.264 114.045 289.285 113.219 288.828 112.587C288.754 112.494 288.637 112.317 288.521 112.245C288.534 112.209 288.541 112.17 288.54 112.13C288.909 112.335 289.273 112.174 289.573 111.94L289.584 111.961C289.721 112.074 289.93 112.019 290.087 112.07C290.234 112.099 290.643 112.178 290.769 112.27C291.169 112.485 291.34 112.765 291.606 113.128C291.84 113.427 292.149 113.658 292.502 113.797C293.281 114.185 294.222 114.173 294.638 114.827C294.968 115.314 295.186 116.096 295.621 116.634C295.855 116.928 296.118 117.198 296.405 117.44C296.553 117.574 296.732 117.719 296.931 117.748C297.444 117.773 297.156 117.264 297.069 116.993C296.94 116.613 296.868 116.216 296.856 115.814C296.827 115.145 297.206 114.555 297.187 113.803C297.221 113.206 297.037 112.644 296.748 112.135C296.397 111.441 295.888 110.839 295.263 110.376C294.813 110.048 294.296 109.821 293.75 109.712C293.203 109.604 292.64 109.615 292.098 109.745C291.577 109.908 291.142 110.237 290.717 110.535C290.085 110.993 289.457 111.816 288.914 111.885C288.715 111.908 288.715 111.856 288.536 111.764C288.673 110.957 288.768 110.172 288.904 109.365C289.002 108.789 289.296 108.085 289.686 107.463C289.718 107.474 289.739 107.463 289.78 107.441C290.175 107.186 290.721 107.43 291.33 107.59C292.419 107.765 293.559 107.782 293.542 106.371C293.537 105.953 293.499 105.42 293.579 105.116C293.709 104.602 293.879 104.014 293.612 103.495C294.047 103.166 294.493 102.857 294.949 102.569C295.725 102.098 296.547 101.71 297.403 101.41C297.718 101.563 298.034 101.768 298.38 101.827C299.051 101.955 299.928 101.871 300.494 101.948C301.175 102.096 301.629 102.467 302.281 102.762C302.964 103.015 303.725 102.86 304.436 102.862C304.666 102.848 305.169 102.905 304.955 102.542C303.693 101.062 302.295 99.5731 300.466 98.8321C299.153 98.3252 296.981 98.498 296.582 100.123C296.588 100.594 296.78 100.916 296.847 101.302C296.621 101.387 296.398 101.484 296.182 101.592C295.217 102.046 294.305 102.604 293.462 103.256C293.195 102.842 292.783 102.501 292.383 102.234C291.94 101.937 291.508 101.66 290.993 101.478C289.985 101.103 288.863 101.733 288.073 102.088C287.758 102.242 287.412 102.321 287.062 102.32C286.78 102.334 286.465 102.285 286.237 102.455C285.844 102.763 285.935 103.348 286.138 103.743C286.277 104.013 286.572 104.177 286.845 104.299C287.276 104.471 288.007 104.41 288.321 104.459C288.72 104.516 288.983 104.67 289.174 104.94C289.254 105.063 289.292 105.209 289.284 105.356C289.266 105.629 289.186 105.881 289.189 106.142C289.151 106.477 289.291 106.799 289.482 107.069C289.499 107.105 289.525 107.137 289.557 107.162C289.115 107.836 288.779 108.562 288.642 109.369C288.486 110.291 288.393 111.181 288.215 112.061C288.174 112.033 288.127 112.012 288.078 112C287.017 111.521 285.589 110.18 284.249 110.949C283.605 111.228 283.132 111.945 282.676 112.285C281.785 112.902 280.815 113.113 279.826 112.623C279.027 112.298 278.815 112.855 279.23 113.508C279.56 113.996 280.025 114.388 280.531 114.706C280.931 114.973 281.363 115.197 281.865 115.202C282.627 115.151 283.449 114.806 284.057 114.914C284.633 115.011 285.17 115.287 285.716 115.479C286.199 115.651 286.744 115.791 287.278 115.805C287.258 115.898 287.246 115.993 287.239 116.088C287.167 117.019 287.252 117.949 287.388 118.878C287.545 119.744 287.734 120.62 287.963 121.474C287.68 121.353 287.368 121.314 287.063 121.36C286.478 121.451 286.002 121.801 285.461 122.028C284.961 122.232 284.189 122.315 283.849 121.911C283.478 121.497 283.21 120.926 282.643 120.744C282.203 120.656 282.262 121.23 282.276 121.512C282.292 122.003 282.528 122.461 282.774 122.886C283.17 123.584 283.721 124.182 284.384 124.634C285.196 125.188 285.962 125.451 286.784 125.922C287.437 126.374 288.082 126.91 288.838 127.204C289.213 127.367 289.603 127.492 290.003 127.577C290.197 128.055 290.402 128.555 290.596 129.033C291.295 130.646 292.077 132.163 292.64 133.766C291.634 133.6 290.629 133.487 289.682 132.976C289.156 132.721 288.472 132.363 287.913 131.941C287.258 131.437 285.948 130.272 285.525 131.594C285.366 132.307 285.647 133.056 286.051 133.637C286.614 134.372 287.344 135.074 287.688 135.844C288.36 137.812 288.806 140.107 290.467 141.645C291.122 142.253 291.842 142.935 292.773 143.007C292.966 143.013 293.159 142.993 293.347 142.948C293.338 143.032 293.349 143.105 293.34 143.188C293.348 143.871 293.409 144.552 293.521 145.225C291.976 145.39 290.524 146.349 289.545 147.511C288.427 148.987 287.531 150.618 286.885 152.353C286.683 152.982 286.284 153.636 286.49 154.292C286.675 154.854 287.297 155.244 287.893 155.279C288.343 155.284 288.758 155.07 289.185 154.929C289.348 154.867 289.515 154.816 289.685 154.776C289.616 155.271 289.424 155.74 289.127 156.142C288.685 156.764 288.002 157.431 287.625 158.231C287.244 158.003 286.818 157.862 286.377 157.817C285.936 157.771 285.49 157.823 285.071 157.969C283.978 158.348 283.237 159.309 282.409 160.05C281.903 160.548 281.541 160.866 280.831 160.969C280.195 161.06 279.137 160.948 278.398 161.197C277.637 161.405 277.111 162.018 276.806 162.701C275.958 164.374 276.045 166.328 276.067 168.158C276.14 169.882 276.12 171.628 276.391 173.329C276.524 173.944 276.585 174.676 276.843 175.227C277.342 175.889 277.704 174.703 277.838 174.503ZM318.122 132.129C318.421 132.658 318.647 133.199 318.905 133.75C319.151 134.228 319.407 134.675 319.612 135.174C319.681 135.315 319.739 135.461 319.784 135.611C319.22 135.639 318.593 135.646 318.142 135.537C317.754 135.448 317.365 135.254 316.957 135.279C316.94 135.285 316.922 135.286 316.905 135.28C317.237 134.241 317.695 133.19 318.122 132.129ZM314.994 143.208C315.062 143.168 315.113 143.104 315.138 143.028C316.223 141.917 317.682 142.454 319.258 143.062C320.246 143.447 321.303 143.56 322.26 143.987C323.047 144.292 323.954 144.877 324.493 145.414C324.61 145.525 324.716 145.646 324.812 145.776C323.95 146.299 323.28 147.091 322.999 148.077C322.392 149.757 322.416 151.691 322.027 153.285C321.696 154.429 321.175 155.46 320.381 156.317C319.773 155.341 318.812 155.416 317.791 155.731C317.28 155.863 316.894 155.93 316.64 155.641C316.449 155.424 316.331 155.142 316.181 154.852C316.255 154.893 316.349 154.923 316.423 154.963C316.947 155.114 317.522 155.055 318.043 154.944C319.199 154.585 319.695 153.251 319.85 152.172C319.874 151.865 319.824 151.557 319.703 151.275C319.907 151.243 320.104 151.177 320.286 151.079C320.67 150.855 320.958 150.496 321.226 150.148C321.863 149.24 322.006 148.089 321.742 147.015C321.181 144.753 319.312 144.034 317.157 143.986C316.425 143.943 315.637 143.639 314.87 143.324C314.963 143.25 314.973 143.219 314.994 143.208ZM312.393 156.382C312.925 156.24 313.467 156.118 313.881 155.747C314.333 155.35 314.621 154.799 314.688 154.2C314.698 154.032 314.682 153.863 314.64 153.699C314.693 153.751 314.746 153.802 314.81 153.875C314.589 154.62 314.525 155.415 314.482 156.2C314.467 156.629 314.493 157.036 314.675 157.442C314.686 157.463 314.665 157.473 314.676 157.494C315.062 158.295 315.886 159.027 316.291 159.66C316.752 160.554 316.378 161.667 315.802 162.385C315.173 163.155 314.386 163.772 313.631 164.45L313.599 164.387C313.47 164.147 313.297 163.933 313.089 163.756C312.307 163.054 311.229 162.952 310.48 162.366C310.142 162.119 309.99 161.671 310.185 161.386C310.206 161.375 310.216 161.344 310.237 161.333C310.351 161.248 310.476 161.184 310.59 161.099C311.493 160.555 312.467 159.843 312.642 158.753C312.703 158.21 312.686 157.661 312.591 157.123C312.538 156.872 312.473 156.625 312.393 156.382ZM293.015 162.923C293.106 162.892 293.201 162.87 293.296 162.856C293.599 162.832 293.756 162.882 294.061 162.962C294.827 163.225 295.649 163.748 296.5 164.072C296.479 164.083 296.479 164.083 296.469 164.114C296.247 164.807 295.74 165.252 294.969 165.44C294.343 165.551 293.878 165.976 293.539 166.492C293.448 166.616 293.366 166.747 293.293 166.882C293.363 166.661 293.454 166.43 293.525 166.21C293.688 165.595 293.716 164.953 293.607 164.327C293.517 163.847 293.292 163.358 293.015 162.923ZM289.497 156.504C289.836 156.039 289.987 155.515 290.064 154.949C290.251 154.905 290.45 154.882 290.617 154.848C291.588 154.743 292.396 154.984 293.135 155.602C293.695 156.076 294.348 156.476 295.091 156.488C295.999 156.414 296.756 155.893 297.291 155.196C298.006 156.327 298.689 157.448 299.175 158.749C299.444 159.425 299.62 160.072 299.805 160.739C299.636 160.83 299.443 160.865 299.252 160.839C298.897 160.812 298.371 160.557 297.941 160.437C296.587 160.056 295.157 160.241 293.845 160.654C293.199 160.881 292.515 161.339 292.004 161.419C291.944 161.418 291.885 161.422 291.826 161.431C290.769 161.319 289.697 160.924 289.09 160.001C288.803 159.596 288.588 159.129 288.208 158.799C288.123 158.737 288.039 158.675 287.944 158.593C288.332 157.866 288.952 157.284 289.497 156.503V156.504Z" fill="url(#paint0_linear_515_6005)"/>
<path fill-rule="evenodd" clip-rule="evenodd" d="M297.281 184.25C297.514 185.9 298.29 187.596 299.353 189.235C300.719 191.342 302.515 193.376 303.909 195.108C305.134 196.664 306.43 198.144 307.775 199.571C309.126 201.002 310.541 202.363 312.017 203.671C313.977 205.42 316.052 207.037 318.226 208.511C323.351 211.97 329.252 214.726 336.215 216.53C336.389 216.57 336.569 216.575 336.744 216.545C336.92 216.515 337.087 216.451 337.238 216.356C337.389 216.261 337.519 216.138 337.622 215.992C337.725 215.847 337.798 215.683 337.838 215.51C337.878 215.336 337.882 215.156 337.853 214.981C337.823 214.805 337.759 214.638 337.664 214.487C337.569 214.336 337.445 214.206 337.3 214.103C337.155 214 336.991 213.927 336.817 213.887C330.033 212.531 324.165 210.277 319.105 207.155C316.929 205.82 314.871 204.301 312.955 202.614C311.52 201.342 310.167 199.981 308.903 198.539C307.645 197.095 306.461 195.587 305.357 194.023C304.126 192.256 302.504 190.184 301.338 188.05C300.595 186.689 300.058 185.306 299.982 183.986C299.946 183.629 299.769 183.301 299.491 183.074C299.214 182.847 298.857 182.739 298.5 182.774C298.143 182.809 297.815 182.984 297.586 183.26C297.358 183.537 297.248 183.893 297.281 184.25L297.281 184.25ZM337.337 54.6043C338.459 53.7198 339.723 53.0331 341.057 52.4849C343.145 51.6258 345.396 51.0879 347.549 50.6448C352.539 49.6301 357.718 49.3979 362.729 50.1583C367.745 50.9197 372.577 52.6672 376.878 55.5388C380.468 57.9712 383.652 60.9539 386.868 63.8706C389.054 65.8594 391.255 67.8188 393.631 69.5423C396.185 71.4028 398.935 72.9959 402.053 74.0768C404.629 74.977 407.227 75.3963 409.836 75.5964C415.769 76.0514 421.762 75.3051 427.678 76.5791C430.124 77.1095 432.359 78.0369 434.458 79.2067C437.69 81.0072 440.602 83.3878 443.482 85.8259C443.619 85.9401 443.778 86.0261 443.948 86.0789C444.119 86.1316 444.298 86.1502 444.476 86.1335C444.654 86.1168 444.827 86.0651 444.985 85.9814C445.142 85.8977 445.282 85.7836 445.396 85.6458C445.509 85.508 445.595 85.3491 445.646 85.1782C445.698 85.0073 445.716 84.8279 445.699 84.6501C445.681 84.4724 445.629 84.2999 445.544 84.1425C445.46 83.9851 445.345 83.8459 445.207 83.733C442.132 81.2719 439.019 78.8856 435.597 77.0976C433.265 75.8814 430.802 74.9347 428.112 74.4249C422.071 73.2709 415.996 74.1576 409.955 73.8251C407.487 73.6896 405.025 73.3419 402.574 72.5404C399.591 71.556 396.95 70.0825 394.493 68.34C392.145 66.675 389.964 64.7752 387.817 62.8244C384.552 59.8605 381.363 56.7844 377.735 54.2837C373.293 51.1827 368.26 49.2715 363.027 48.342C357.804 47.414 352.375 47.472 347.126 48.3788C344.81 48.7726 342.391 49.2742 340.13 50.1132C338.546 50.7 337.044 51.4587 335.693 52.4474C335.407 52.6653 335.22 52.988 335.171 53.3443C335.123 53.7007 335.219 54.0616 335.437 54.3476C335.655 54.6336 335.977 54.8213 336.334 54.8695C336.69 54.9176 337.051 54.8222 337.337 54.6043L337.337 54.6043Z" fill="#F5F2FD"/>
<path fill-rule="evenodd" clip-rule="evenodd" d="M387.956 98.2547C387.956 95.9235 387.029 93.688 385.381 92.0393C383.733 90.3906 381.498 89.4637 379.167 89.4621H314.318C311.987 89.4637 309.752 90.3906 308.104 92.0393C306.456 93.688 305.53 95.9235 305.529 98.2547V189.861C305.53 192.192 306.456 194.428 308.104 196.076C309.752 197.725 311.987 198.652 314.318 198.654H379.167C381.498 198.652 383.734 197.725 385.382 196.076C387.03 194.428 387.956 192.192 387.957 189.861L387.956 98.2547Z" fill="white"/>
<mask id="mask0_515_6005" style="mask-type:luminance" maskUnits="userSpaceOnUse" x="305" y="89" width="83" height="110">
<path d="M387.956 98.2547C387.956 95.9235 387.029 93.688 385.381 92.0393C383.733 90.3906 381.498 89.4637 379.167 89.4621H314.318C311.987 89.4637 309.752 90.3906 308.104 92.0393C306.456 93.688 305.53 95.9235 305.529 98.2547V189.861C305.53 192.192 306.456 194.428 308.104 196.076C309.752 197.725 311.987 198.652 314.318 198.654H379.167C381.498 198.652 383.734 197.725 385.382 196.076C387.03 194.428 387.956 192.192 387.957 189.861L387.956 98.2547Z" fill="white"/>
</mask>
<g mask="url(#mask0_515_6005)">
<path fill-rule="evenodd" clip-rule="evenodd" d="M397.731 103.782V91.172C397.731 90.2283 396.784 89.4622 395.62 89.4622H297.867C296.703 89.4622 295.755 90.2283 295.755 91.1719V103.782C295.755 104.726 296.703 105.492 297.867 105.492H395.62C396.784 105.492 397.731 104.726 397.731 103.782Z" fill="#6562F9"/>
<path d="M314.682 99.6489C315.881 99.6489 316.854 98.6765 316.854 97.4769C316.854 96.2774 315.881 95.305 314.682 95.305C313.482 95.305 312.51 96.2774 312.51 97.4769C312.51 98.6765 313.482 99.6489 314.682 99.6489Z" fill="white"/>
<path d="M321.563 99.6489C322.763 99.6489 323.735 98.6765 323.735 97.477C323.735 96.2775 322.763 95.305 321.563 95.305C320.364 95.305 319.391 96.2775 319.391 97.477C319.391 98.6765 320.364 99.6489 321.563 99.6489Z" fill="white"/>
<path d="M328.653 99.6489C329.852 99.6489 330.825 98.6765 330.825 97.4769C330.825 96.2774 329.852 95.305 328.653 95.305C327.453 95.305 326.481 96.2774 326.481 97.4769C326.481 98.6765 327.453 99.6489 328.653 99.6489Z" fill="white"/>
</g>
<path d="M329.443 144.057C337.696 144.057 344.387 137.366 344.387 129.113C344.387 120.859 337.696 114.168 329.443 114.168C321.189 114.168 314.498 120.859 314.498 129.113C314.498 137.366 321.189 144.057 329.443 144.057Z" fill="#E3E3FE"/>
<mask id="mask1_515_6005" style="mask-type:luminance" maskUnits="userSpaceOnUse" x="314" y="114" width="31" height="31">
<path d="M329.443 144.057C337.696 144.057 344.387 137.366 344.387 129.113C344.387 120.859 337.696 114.168 329.443 114.168C321.189 114.168 314.498 120.859 314.498 129.113C314.498 137.366 321.189 144.057 329.443 144.057Z" fill="white"/>
</mask>
<g mask="url(#mask1_515_6005)">
<path fill-rule="evenodd" clip-rule="evenodd" d="M314.618 136.526C321.945 124.882 325.33 124.251 329.44 128.88C333.557 133.51 334.815 134.87 339.517 132.735C344.214 130.599 346.405 132.914 347.853 136.105C349.301 139.296 329.945 148.029 326.366 147.958C322.786 147.888 307.286 148.169 314.618 136.526Z" fill="url(#paint1_linear_515_6005)"/>
</g>
<path d="M337.858 126.194C340.758 126.194 343.109 123.843 343.109 120.942C343.109 118.042 340.758 115.691 337.858 115.691C334.958 115.691 332.607 118.042 332.607 120.942C332.607 123.843 334.958 126.194 337.858 126.194Z" fill="url(#paint2_linear_515_6005)"/>
<path fill-rule="evenodd" clip-rule="evenodd" d="M343.792 155.898C343.793 155.725 343.759 155.553 343.693 155.393C343.627 155.233 343.53 155.087 343.407 154.965C343.285 154.842 343.139 154.745 342.979 154.679C342.818 154.614 342.647 154.58 342.473 154.581H318.787C318.614 154.581 318.443 154.615 318.283 154.681C318.123 154.747 317.978 154.844 317.856 154.967C317.734 155.089 317.637 155.234 317.571 155.394C317.506 155.554 317.472 155.725 317.473 155.898V155.899C317.472 156.072 317.506 156.243 317.571 156.403C317.637 156.563 317.734 156.708 317.856 156.83C317.978 156.953 318.123 157.05 318.283 157.116C318.443 157.182 318.614 157.216 318.787 157.216H342.473C342.647 157.217 342.818 157.183 342.979 157.117C343.139 157.052 343.285 156.955 343.407 156.832C343.53 156.71 343.627 156.564 343.693 156.404C343.759 156.244 343.793 156.072 343.792 155.899V155.898Z" fill="#E3E3FE"/>
<path fill-rule="evenodd" clip-rule="evenodd" d="M384.046 131.588C384.046 130.535 383.627 129.526 382.882 128.782C382.137 128.038 381.128 127.62 380.075 127.62H352.669C352.149 127.62 351.633 127.723 351.152 127.922C350.67 128.122 350.233 128.414 349.865 128.782C349.497 129.151 349.205 129.588 349.006 130.07C348.807 130.551 348.705 131.067 348.705 131.588V131.589C348.705 132.11 348.807 132.625 349.006 133.107C349.205 133.588 349.497 134.025 349.865 134.394C350.233 134.762 350.671 135.054 351.152 135.254C351.633 135.453 352.149 135.556 352.669 135.556H380.075C381.128 135.556 382.137 135.138 382.882 134.395C383.627 133.651 384.046 132.641 384.046 131.589V131.588Z" fill="#EFEFFE"/>
<path fill-rule="evenodd" clip-rule="evenodd" d="M342.146 174.275C342.146 173.926 342.007 173.591 341.761 173.344C341.514 173.097 341.18 172.958 340.831 172.958H318.053C317.704 172.958 317.37 173.097 317.123 173.344C316.877 173.591 316.738 173.926 316.738 174.275V174.276C316.738 174.625 316.877 174.959 317.123 175.206C317.37 175.453 317.704 175.592 318.053 175.593H340.831C341.18 175.592 341.514 175.453 341.761 175.206C342.008 174.959 342.146 174.625 342.146 174.276L342.146 174.275ZM373.262 174.126C373.262 173.777 373.123 173.443 372.877 173.196C372.63 172.949 372.296 172.81 371.947 172.809H349.169C348.82 172.81 348.486 172.949 348.239 173.196C347.993 173.443 347.854 173.777 347.854 174.126V174.127C347.854 174.476 347.993 174.811 348.239 175.058C348.486 175.305 348.82 175.443 349.169 175.444H371.947C372.296 175.443 372.631 175.305 372.877 175.058C373.124 174.811 373.262 174.476 373.262 174.127L373.262 174.126ZM373.261 160.785C373.261 160.613 373.228 160.441 373.162 160.282C373.096 160.122 373 159.976 372.877 159.854C372.629 159.607 372.292 159.469 371.942 159.468H318.793C318.442 159.468 318.106 159.607 317.857 159.854C317.735 159.976 317.638 160.122 317.572 160.281C317.506 160.441 317.473 160.613 317.473 160.785V160.786C317.473 160.959 317.506 161.131 317.572 161.29C317.638 161.45 317.735 161.595 317.857 161.718C318.106 161.965 318.442 162.103 318.793 162.103H371.942C372.292 162.103 372.629 161.965 372.877 161.718C373 161.595 373.096 161.45 373.162 161.29C373.228 161.131 373.261 160.959 373.261 160.786V160.785ZM342.146 179.162C342.146 178.813 342.007 178.479 341.761 178.232C341.514 177.985 341.18 177.846 340.831 177.845H318.053C317.704 177.846 317.37 177.985 317.123 178.232C316.877 178.479 316.738 178.813 316.738 179.162V179.163C316.738 179.512 316.877 179.847 317.123 180.094C317.37 180.341 317.704 180.48 318.053 180.48H340.831C341.18 180.48 341.514 180.341 341.761 180.094C342.008 179.847 342.146 179.512 342.146 179.163L342.146 179.162ZM373.262 179.014C373.262 178.665 373.123 178.33 372.877 178.083C372.63 177.836 372.296 177.697 371.947 177.697H349.169C348.82 177.697 348.486 177.836 348.239 178.083C347.993 178.33 347.854 178.665 347.854 179.014V179.015C347.854 179.364 347.993 179.698 348.239 179.945C348.486 180.192 348.82 180.331 349.169 180.331H371.947C372.296 180.331 372.631 180.192 372.877 179.945C373.124 179.698 373.262 179.364 373.262 179.015L373.262 179.014ZM373.261 165.97C373.261 165.797 373.228 165.625 373.162 165.466C373.096 165.306 373 165.161 372.877 165.038C372.629 164.791 372.292 164.653 371.942 164.653H318.793C318.442 164.653 318.106 164.791 317.857 165.038C317.735 165.161 317.638 165.306 317.572 165.466C317.506 165.625 317.473 165.797 317.473 165.97V165.971C317.473 166.143 317.506 166.315 317.572 166.474C317.638 166.634 317.735 166.78 317.857 166.902C318.106 167.149 318.442 167.287 318.793 167.287H371.942C372.292 167.287 372.629 167.149 372.877 166.902C373 166.779 373.096 166.634 373.162 166.474C373.228 166.315 373.261 166.143 373.261 165.971V165.97ZM342.146 184.347C342.146 183.998 342.007 183.663 341.761 183.416C341.514 183.169 341.18 183.03 340.831 183.029H318.053C317.704 183.03 317.37 183.169 317.123 183.416C316.877 183.663 316.738 183.998 316.738 184.347V184.348C316.738 184.696 316.877 185.031 317.123 185.278C317.37 185.525 317.704 185.664 318.053 185.664H340.831C341.18 185.664 341.514 185.525 341.761 185.278C342.008 185.031 342.146 184.696 342.146 184.348L342.146 184.347ZM373.262 184.198C373.262 183.849 373.123 183.514 372.877 183.267C372.63 183.02 372.296 182.881 371.947 182.881H349.169C348.82 182.881 348.486 183.021 348.239 183.267C347.993 183.514 347.854 183.849 347.854 184.198V184.199C347.854 184.548 347.993 184.882 348.239 185.129C348.486 185.376 348.82 185.515 349.169 185.516H371.947C372.296 185.515 372.631 185.376 372.877 185.129C373.124 184.882 373.262 184.548 373.262 184.199L373.262 184.198Z" fill="#E3E3FE"/>
<path fill-rule="evenodd" clip-rule="evenodd" d="M439.379 104.927C444.585 104.927 448.38 109.72 447.64 116.227C447.114 120.837 441.486 125.638 435.917 127.939C431.108 129.926 431.082 122.654 431.082 116.105C431.082 109.557 434.177 104.927 439.379 104.927Z" fill="url(#paint3_linear_515_6005)"/>
<path fill-rule="evenodd" clip-rule="evenodd" d="M435.409 139.532C440.414 151.129 406.876 188.283 395.696 187.33C384.514 186.371 368.318 133.792 368.318 133.792L363.606 127.621L376.036 129.194L375.17 130.881C375.17 130.881 392.7 161.398 397.464 163.683C399.833 164.82 406.008 146.14 419.116 138.713C433.41 130.621 432.546 132.899 435.409 139.532Z" fill="url(#paint4_linear_515_6005)"/>
<mask id="mask2_515_6005" style="mask-type:luminance" maskUnits="userSpaceOnUse" x="363" y="127" width="73" height="61">
<path d="M435.409 139.532C440.414 151.129 406.876 188.283 395.696 187.33C384.514 186.371 368.318 133.792 368.318 133.792L363.606 127.621L376.036 129.194L375.17 130.881C375.17 130.881 392.7 161.398 397.464 163.683C399.833 164.82 406.008 146.14 419.116 138.713C433.41 130.621 432.546 132.899 435.409 139.532Z" fill="white"/>
</mask>
<g mask="url(#mask2_515_6005)">
<path fill-rule="evenodd" clip-rule="evenodd" d="M404.129 147.278C407.82 146.746 413.933 147.742 416.027 151.159C417.228 153.118 416.834 155.451 417.408 157.594C418.684 162.372 423.138 166.963 428.387 166.773C434.812 166.547 436.897 157.951 438.115 153.066C439.747 146.49 441.363 138.056 435.857 132.825C434.873 131.889 433.744 131.149 432.53 130.553C430.92 129.768 429.201 129.23 427.431 128.955C425.222 128.601 422.92 128.586 420.714 128.981C417.088 129.639 413.715 131.484 410.91 133.836C407.275 136.896 404.625 140.668 402.521 144.898L404.129 147.278Z" fill="url(#paint5_linear_515_6005)"/>
</g>
<path fill-rule="evenodd" clip-rule="evenodd" d="M442.699 131.245C460.258 132.79 466.194 133.178 465.254 165.644C464.306 198.752 420.807 197.589 420.807 197.589C420.807 197.589 427.195 176.881 422.065 159.223C415.864 137.907 430.296 130.153 442.699 131.245Z" fill="url(#paint6_linear_515_6005)"/>
<path fill-rule="evenodd" clip-rule="evenodd" d="M399.772 123.404C399.771 121.869 399.161 120.397 398.076 119.312C396.991 118.227 395.52 117.617 393.985 117.616H361.071C359.536 117.616 358.064 118.226 356.978 119.311C355.893 120.397 355.283 121.869 355.283 123.404C355.283 124.939 355.893 126.411 356.978 127.497C358.064 128.582 359.536 129.192 361.071 129.192H393.985C395.52 129.191 396.991 128.581 398.076 127.496C399.161 126.41 399.771 124.938 399.772 123.404Z" fill="#ABDBFF"/>
<path d="M363.879 120.879V121.732C363.673 121.693 363.464 121.671 363.255 121.669C362.702 121.669 362.295 121.787 362.035 122.023C361.774 122.26 361.622 122.657 361.59 123.219H361.633C361.856 122.833 362.23 122.64 362.756 122.64C363.206 122.64 363.564 122.782 363.83 123.065C364.095 123.348 364.226 123.735 364.226 124.227C364.226 124.766 364.074 125.192 363.77 125.504C363.466 125.817 363.049 125.973 362.523 125.973C362.177 125.982 361.837 125.886 361.546 125.699C361.261 125.506 361.041 125.23 360.917 124.908C360.776 124.563 360.706 124.147 360.706 123.66C360.706 122.731 360.912 122.027 361.335 121.551C361.758 121.074 362.382 120.835 363.211 120.835C363.435 120.832 363.658 120.847 363.879 120.879ZM363.293 124.253C363.293 123.991 363.228 123.79 363.098 123.649C362.962 123.508 362.772 123.437 362.523 123.437C362.298 123.43 362.08 123.508 361.91 123.654C361.833 123.713 361.771 123.789 361.728 123.875C361.685 123.962 361.662 124.057 361.66 124.153C361.651 124.408 361.734 124.657 361.894 124.856C361.966 124.939 362.055 125.007 362.155 125.056C362.255 125.104 362.363 125.132 362.474 125.138C362.585 125.144 362.696 125.127 362.8 125.09C362.904 125.052 363 124.994 363.081 124.918C363.222 124.772 363.293 124.55 363.293 124.253ZM368.923 123.271V123.296C369.72 123.396 370.121 123.795 370.121 124.494C370.121 124.954 369.953 125.316 369.606 125.579C369.264 125.841 368.771 125.973 368.131 125.973C367.583 125.973 367.106 125.883 366.699 125.703V124.813C367.127 125.022 367.595 125.133 368.071 125.139C368.434 125.139 368.706 125.082 368.885 124.968C368.973 124.913 369.044 124.835 369.092 124.742C369.14 124.65 369.162 124.546 369.156 124.442C369.156 124.178 369.053 123.991 368.852 123.883C368.651 123.774 368.331 123.72 367.887 123.72H367.463V122.937H367.864C368.255 122.937 368.548 122.887 368.748 122.785C368.949 122.684 369.052 122.505 369.052 122.248C369.056 122.168 369.041 122.087 369.009 122.014C368.977 121.94 368.929 121.874 368.868 121.822C368.748 121.72 368.559 121.669 368.304 121.669C368.116 121.67 367.929 121.699 367.751 121.757C367.548 121.825 367.355 121.919 367.176 122.036L366.704 121.321C367.198 121.006 367.772 120.837 368.358 120.835C368.868 120.835 369.269 120.942 369.562 121.156C369.702 121.254 369.816 121.384 369.892 121.537C369.969 121.689 370.007 121.859 370.001 122.029C370.007 122.319 369.907 122.6 369.719 122.821C369.535 123.037 369.264 123.187 368.923 123.271ZM375.078 123.263C375.446 123.456 375.712 123.662 375.88 123.88C376.077 124.139 376.162 124.465 376.119 124.787C376.075 125.109 375.905 125.4 375.647 125.597C375.322 125.848 374.899 125.973 374.384 125.973C373.83 125.973 373.396 125.854 373.087 125.618C372.784 125.38 372.626 125.051 372.626 124.631C372.622 124.356 372.706 124.087 372.865 123.864C373.017 123.644 373.261 123.455 373.586 123.296C373.049 122.963 372.778 122.545 372.778 122.044C372.774 121.871 372.813 121.7 372.892 121.546C372.97 121.392 373.086 121.261 373.228 121.163C373.527 120.944 373.912 120.835 374.384 120.834C374.855 120.834 375.24 120.943 375.533 121.159C375.675 121.26 375.79 121.394 375.868 121.549C375.945 121.705 375.983 121.877 375.978 122.051C375.978 122.57 375.674 122.974 375.078 123.263ZM374.384 122.856C374.638 122.749 374.812 122.639 374.909 122.524C375.005 122.413 375.057 122.271 375.056 122.125C375.059 122.051 375.044 121.978 375.011 121.911C374.979 121.845 374.931 121.787 374.871 121.743C374.725 121.643 374.55 121.594 374.373 121.602C374.201 121.595 374.032 121.643 373.89 121.74C373.829 121.783 373.781 121.842 373.749 121.909C373.717 121.976 373.702 122.051 373.705 122.125C373.704 122.272 373.758 122.414 373.857 122.522C374.009 122.667 374.188 122.78 374.384 122.855V122.856ZM374.324 123.697C373.803 123.917 373.543 124.208 373.543 124.572C373.539 124.661 373.556 124.751 373.594 124.832C373.632 124.913 373.689 124.984 373.76 125.039C373.901 125.153 374.107 125.21 374.367 125.21C374.638 125.21 374.844 125.154 374.991 125.045C375.062 124.991 375.12 124.92 375.158 124.839C375.195 124.758 375.213 124.669 375.208 124.579C375.204 124.42 375.14 124.268 375.029 124.153C374.904 124.019 374.703 123.884 374.427 123.749L374.324 123.697ZM382.123 125.899H378.635V125.161L379.932 123.879C380.414 123.399 380.718 123.067 380.837 122.881C380.953 122.712 381.017 122.512 381.022 122.306C381.026 122.223 381.013 122.14 380.982 122.063C380.951 121.986 380.903 121.917 380.843 121.86C380.714 121.747 380.547 121.689 380.376 121.698C380.179 121.699 379.983 121.738 379.801 121.815C379.569 121.92 379.352 122.055 379.156 122.217L378.619 121.547C378.817 121.392 379.026 121.252 379.243 121.126C379.409 121.035 379.585 120.964 379.769 120.916C379.976 120.861 380.189 120.833 380.403 120.835C380.875 120.835 381.255 120.963 381.542 121.22C381.682 121.342 381.794 121.493 381.869 121.663C381.944 121.833 381.98 122.017 381.976 122.203C381.976 122.442 381.928 122.678 381.835 122.898C381.728 123.141 381.584 123.365 381.407 123.561C381.13 123.873 380.837 124.17 380.528 124.449L379.942 124.994V125.035H382.122L382.123 125.899ZM384.889 125.929V125.072C385.093 125.119 385.302 125.142 385.512 125.139C386.071 125.139 386.483 125.018 386.749 124.774C387.014 124.531 387.155 124.126 387.177 123.56H387.134C387.004 123.785 386.852 123.941 386.667 124.029C386.456 124.123 386.226 124.168 385.995 124.16C385.539 124.16 385.181 124.018 384.926 123.733C384.666 123.447 384.536 123.048 384.536 122.537C384.536 122.01 384.688 121.595 384.997 121.291C385.301 120.987 385.718 120.835 386.233 120.835C386.798 120.835 387.242 121.035 387.568 121.436C387.898 121.836 388.061 122.406 388.061 123.145C388.061 124.067 387.85 124.769 387.432 125.251C387.014 125.733 386.391 125.974 385.561 125.974C385.336 125.977 385.111 125.962 384.889 125.929ZM385.469 122.522C385.469 123.083 385.724 123.363 386.228 123.363C386.456 123.371 386.678 123.293 386.852 123.145C386.928 123.086 386.99 123.011 387.033 122.925C387.076 122.839 387.1 122.744 387.102 122.648C387.107 122.399 387.024 122.156 386.868 121.962C386.796 121.876 386.708 121.806 386.608 121.756C386.508 121.706 386.398 121.677 386.287 121.67C386.175 121.664 386.063 121.68 385.958 121.718C385.853 121.756 385.757 121.815 385.675 121.892C385.539 122.04 385.469 122.25 385.469 122.522ZM392.286 125.973C391.711 125.973 391.277 125.757 390.984 125.325C390.691 124.892 390.545 124.256 390.545 123.415C390.545 122.545 390.691 121.898 390.979 121.472C391.266 121.047 391.706 120.835 392.286 120.835C393.446 120.835 394.032 121.693 394.032 123.408C394.032 124.3 393.886 124.95 393.604 125.36C393.316 125.769 392.877 125.973 392.286 125.973ZM392.286 125.139C392.568 125.139 392.768 125.004 392.888 124.733C393.013 124.462 393.072 124.021 393.072 123.408C393.072 122.785 393.013 122.34 392.888 122.071C392.769 121.803 392.568 121.669 392.286 121.669C392.198 121.664 392.11 121.679 392.028 121.713C391.947 121.746 391.874 121.797 391.814 121.862C391.7 121.99 391.619 122.181 391.57 122.433C391.519 122.758 391.496 123.086 391.5 123.415C391.5 124.023 391.565 124.462 391.684 124.733C391.809 125.004 392.009 125.139 392.286 125.139Z" fill="#20238C"/>
<path fill-rule="evenodd" clip-rule="evenodd" d="M373.397 129.192C373.342 128.546 374.736 126.317 375.316 125.973C375.875 125.643 376.818 126.485 376.878 127.13C376.932 127.776 376.227 129.501 375.647 129.844C375.067 130.187 373.451 129.837 373.397 129.192Z" fill="#FB9C9A"/>
<path fill-rule="evenodd" clip-rule="evenodd" d="M439.93 104.927C439.93 104.927 441.069 107.444 440.244 109.428C440.027 109.951 439.517 110.333 439.105 110.712C438.048 111.673 436.719 112.185 435.575 113.002C435.233 113.241 434.507 113.706 434.55 114.205C434.61 114.787 435.754 114.514 436.069 114.42C437.305 114.05 438.281 113.612 438.948 114.619C439.626 115.648 439.084 118.177 438.384 119.89C438.26 120.193 437.696 121.481 438.341 121.609C438.759 121.691 439.127 121.207 439.355 120.935C440.011 120.135 440.185 117.407 440.836 116.599C441.139 116.225 441.606 115.798 442.04 116.474C443.374 118.558 442.029 120.703 440.543 121.417C438.753 122.281 438.525 126.639 438.525 126.639C438.525 126.639 442.409 127.855 443.612 124.731C445.744 125.473 449.784 124.964 449.757 120.856C453.586 119.268 455.343 113.259 451.753 111.18C452.274 110.927 452.593 110.187 452.734 109.674C454.204 104.494 448.146 98.684 442.441 101.933C441.182 102.648 440.266 103.571 439.93 104.927Z" fill="url(#paint7_linear_515_6005)"/>
<path d="M386.274 228.776C397.005 228.776 405.703 220.077 405.703 209.347C405.703 198.617 397.005 189.919 386.274 189.919C375.544 189.919 366.846 198.617 366.846 209.347C366.846 220.077 375.544 228.776 386.274 228.776Z" fill="url(#paint8_linear_515_6005)"/>
<path fill-rule="evenodd" clip-rule="evenodd" d="M374.892 211.043L381.324 219.065C381.588 219.394 381.925 219.657 382.308 219.834C382.692 220.01 383.111 220.094 383.533 220.079C383.955 220.065 384.368 219.952 384.738 219.75C385.109 219.548 385.427 219.262 385.668 218.915L397.68 201.605C398.09 201.014 398.249 200.284 398.121 199.576C397.993 198.868 397.589 198.24 396.997 197.83C396.406 197.42 395.676 197.262 394.968 197.39C394.261 197.518 393.632 197.922 393.222 198.513L383.281 212.838L379.122 207.651C378.671 207.094 378.017 206.739 377.305 206.662C376.592 206.586 375.878 206.794 375.319 207.243C374.76 207.691 374.402 208.342 374.321 209.055C374.241 209.767 374.446 210.482 374.892 211.043V211.043Z" fill="white"/>
<path fill-rule="evenodd" clip-rule="evenodd" d="M456.706 134.951C469.289 136.056 487.641 180.366 479.902 192.602C472.158 204.838 423.31 206.102 410.261 208.367C400.347 217.027 396.296 206.254 397.717 206.24C404.03 206.177 403.862 201.114 403.862 201.114C403.862 201.114 403.965 200.584 402.18 198.43C404.149 197.044 408.547 201.044 408.547 201.044C408.547 201.044 455.66 182.921 459.933 179.813C462.059 178.269 448.788 163.955 448.246 148.899C448.062 143.738 449.51 134.319 456.706 134.951Z" fill="url(#paint9_linear_515_6005)"/>
<mask id="mask3_515_6005" style="mask-type:luminance" maskUnits="userSpaceOnUse" x="397" y="134" width="85" height="78">
<path d="M456.706 134.951C469.289 136.056 487.641 180.366 479.902 192.602C472.158 204.838 423.31 206.102 410.261 208.367C400.347 217.027 396.296 206.254 397.717 206.24C404.03 206.177 403.862 201.114 403.862 201.114C403.862 201.114 403.965 200.584 402.18 198.43C404.149 197.044 408.547 201.044 408.547 201.044C408.547 201.044 455.66 182.921 459.933 179.813C462.059 178.269 448.788 163.955 448.246 148.899C448.062 143.738 449.51 134.319 456.706 134.951Z" fill="white"/>
</mask>
<g mask="url(#mask3_515_6005)">
<path fill-rule="evenodd" clip-rule="evenodd" d="M448.664 166.156C449.949 162.655 453.729 157.749 457.731 157.53C460.026 157.403 461.891 158.858 464.05 159.372C468.86 160.518 475.016 158.78 477.342 154.071C480.195 148.309 473.622 142.391 469.902 138.999C464.89 134.439 458.236 129.01 451.017 131.371C449.727 131.792 448.539 132.434 447.438 133.219C445.982 134.263 444.692 135.52 443.609 136.947C442.248 138.723 441.142 140.741 440.442 142.87C439.298 146.374 439.319 150.218 440.057 153.804C441.022 158.456 443.083 162.579 445.806 166.441L448.664 166.156Z" fill="url(#paint10_linear_515_6005)"/>
</g>
<g filter="url(#filter0_d_515_6005)">
<g clip-path="url(#clip0_515_6005)">
<path d="M257.298 129.308H35.0612V359.524H257.298V129.308Z" fill="#FAFAFA"/>
<path d="M257.298 350.989C257.298 349.646 257.245 263.09 257.17 129.308L257.298 129.473C193.982 129.48 117.471 129.488 35.0838 129.503H35.0612L35.2114 129.308C35.2114 209.244 35.2038 284.834 35.2038 350.989L35.0687 350.817C167.022 350.922 256.097 350.989 257.298 350.989C256.09 350.989 167.022 351.064 35.0612 351.162H34.9261V350.989C34.9186 284.834 34.9186 209.244 34.9111 129.308V129.113H35.0612H35.0838C117.471 129.128 193.982 129.135 257.298 129.143H257.426V129.308C257.35 263.097 257.305 349.646 257.298 350.989Z" fill="#E0E0E0"/>
<path d="M76.4233 194.088H59.7162C58.5603 194.088 57.6221 193.15 57.6221 191.994V168.869C57.6221 167.714 58.5603 166.775 59.7162 166.775H70.3139L78.5173 175.227V191.986C78.5098 193.15 77.5716 194.088 76.4233 194.088Z" fill="#EBEBEB"/>
<path d="M70.3065 166.775V173.283C70.3065 174.356 71.1771 175.227 72.2504 175.227H78.51L70.3065 166.775Z" fill="#F5F5F5"/>
<path d="M70.3965 173.861C70.3965 173.861 70.3139 175.437 72.1077 175.955C72.1753 175.977 72.2428 175.992 72.3104 176C73.1285 176.142 78.5099 177.103 78.5099 176.975C78.5099 176.84 78.5099 175.227 78.5099 175.227H72.2503C72.2503 175.234 70.6892 175.181 70.3965 173.861Z" fill="#E0E0E0"/>
<path d="M76.4236 194.088C76.4236 194.08 76.5512 194.088 76.7838 194.043C77.0165 193.998 77.3693 193.892 77.7295 193.6C78.0823 193.307 78.4425 192.804 78.4801 192.129C78.4876 191.453 78.4801 190.673 78.4801 189.802C78.4726 186.297 78.4651 181.291 78.4576 175.241L78.4726 175.286C75.9883 172.727 73.2187 169.883 70.2616 166.835L70.3141 166.858C68.3477 166.858 66.3062 166.858 64.1972 166.858C63.1464 166.858 62.0806 166.858 60.9999 166.858C60.7297 166.858 60.4595 166.858 60.1893 166.858C59.9191 166.865 59.6414 166.843 59.3862 166.888C58.8683 166.97 58.3805 167.271 58.0727 167.706C57.8551 168.006 57.7275 168.366 57.705 168.734C57.69 169.102 57.6975 169.492 57.6975 169.867C57.6975 170.626 57.6975 171.376 57.6975 172.127C57.6975 173.62 57.6975 175.091 57.6975 176.54C57.6975 179.429 57.6975 182.221 57.6899 184.878C57.6899 186.207 57.6899 187.505 57.6899 188.759C57.6899 189.389 57.6899 190.005 57.6899 190.62C57.6899 190.928 57.6899 191.228 57.6899 191.528C57.6975 191.828 57.6674 192.129 57.7275 192.406C57.8326 192.969 58.2003 193.465 58.6732 193.75C58.9133 193.892 59.176 193.983 59.4462 194.02C59.7164 194.05 59.9941 194.035 60.2718 194.043C61.3676 194.043 62.4184 194.043 63.4241 194.05C67.4395 194.058 70.6894 194.065 72.941 194.073C74.0594 194.08 74.93 194.08 75.5304 194.088C75.8231 194.088 76.0483 194.095 76.2059 194.095C76.341 194.08 76.4236 194.088 76.4236 194.088C76.4236 194.088 76.3485 194.095 76.1909 194.095C76.0333 194.095 75.8081 194.103 75.5154 194.103C74.9225 194.103 74.0519 194.11 72.926 194.118C70.6744 194.125 67.4245 194.133 63.4091 194.14C62.4034 194.14 61.3526 194.14 60.2568 194.148C59.9791 194.14 59.7089 194.163 59.4162 194.125C59.131 194.088 58.8533 193.99 58.5981 193.84C58.0952 193.54 57.7125 193.022 57.5924 192.421C57.5323 192.121 57.5549 191.813 57.5473 191.521C57.5473 191.221 57.5473 190.92 57.5473 190.613C57.5473 190.005 57.5473 189.382 57.5473 188.751C57.5473 187.49 57.5473 186.199 57.5473 184.871C57.5473 182.214 57.5473 179.422 57.5398 176.532C57.5398 175.084 57.5398 173.613 57.5398 172.119C57.5398 171.376 57.5398 170.618 57.5398 169.86C57.5398 169.477 57.5323 169.109 57.5473 168.719C57.5699 168.329 57.7125 167.939 57.9451 167.616C58.2754 167.151 58.7933 166.828 59.3487 166.738C59.6339 166.693 59.9041 166.708 60.1743 166.708C60.4445 166.708 60.7147 166.708 60.9848 166.708C62.0656 166.708 63.1314 166.708 64.1822 166.708C66.2837 166.708 68.3327 166.708 70.2991 166.708H70.3291L70.3517 166.73C73.3013 169.777 76.0708 172.63 78.5476 175.189L78.5626 175.204V175.226C78.5551 181.276 78.5401 186.289 78.5401 189.787C78.5326 190.665 78.5401 191.438 78.5251 192.121C78.4801 192.819 78.1048 193.33 77.7445 193.622C77.3693 193.915 77.009 194.02 76.7763 194.058C76.6562 194.08 76.5662 194.08 76.5061 194.08C76.4536 194.088 76.4236 194.088 76.4236 194.088Z" fill="#E0E0E0"/>
<path d="M78.5099 175.234C78.5099 175.242 78.4573 175.242 78.3523 175.249C78.2322 175.249 78.0746 175.257 77.8944 175.264C77.4741 175.272 76.8962 175.279 76.1982 175.287C75.4777 175.294 74.6221 175.294 73.6839 175.302C73.211 175.302 72.7157 175.302 72.1978 175.302C71.6649 175.294 71.117 175.046 70.7417 174.619C70.5541 174.408 70.4115 174.153 70.3289 173.891C70.2389 173.628 70.2314 173.343 70.2389 173.095C70.2389 172.577 70.2389 172.082 70.2464 171.609C70.2539 170.671 70.2539 169.815 70.2614 169.095C70.2689 168.397 70.2764 167.819 70.2839 167.398C70.2914 167.211 70.2914 167.061 70.2989 166.941C70.3064 166.835 70.3064 166.783 70.3139 166.783C70.3214 166.783 70.3214 166.835 70.3289 166.941C70.3289 167.061 70.3364 167.218 70.3439 167.398C70.3514 167.819 70.359 168.397 70.3665 169.095C70.374 169.815 70.374 170.671 70.3815 171.609C70.3815 172.082 70.3815 172.577 70.389 173.095C70.359 173.605 70.5016 174.123 70.8543 174.521C71.1996 174.919 71.7099 175.144 72.2053 175.159C72.7157 175.159 73.211 175.166 73.6914 175.166C74.6296 175.174 75.4852 175.182 76.2057 175.182C76.9037 175.189 77.4816 175.197 77.9019 175.204C78.0896 175.212 78.2397 175.212 78.3598 175.219C78.4573 175.227 78.5099 175.227 78.5099 175.234Z" fill="#E0E0E0"/>
<path d="M69.9913 172.585C69.9913 172.622 68.0174 172.66 65.5856 172.66C63.1538 172.66 61.1799 172.63 61.1799 172.585C61.1799 172.547 63.1538 172.509 65.5856 172.509C68.0174 172.509 69.9913 172.547 69.9913 172.585Z" fill="#E0E0E0"/>
<path d="M74.1717 175.834C74.1717 175.872 71.2595 175.91 67.6719 175.91C64.0843 175.91 61.1722 175.879 61.1722 175.834C61.1722 175.797 64.0843 175.759 67.6719 175.759C71.2671 175.759 74.1717 175.789 74.1717 175.834Z" fill="#E0E0E0"/>
<path d="M74.1717 179.077C74.1717 179.114 71.2595 179.152 67.6719 179.152C64.0843 179.152 61.1722 179.122 61.1722 179.077C61.1722 179.039 64.0843 179.002 67.6719 179.002C71.2671 179.009 74.1717 179.039 74.1717 179.077Z" fill="#E0E0E0"/>
<path d="M74.1719 182.327C74.1719 182.364 71.2597 182.402 67.6721 182.402C64.0845 182.402 61.1799 182.372 61.1799 182.327C61.1799 182.289 64.092 182.252 67.6796 182.252C71.2672 182.252 74.1719 182.289 74.1719 182.327Z" fill="#E0E0E0"/>
<path d="M74.1717 185.577C74.1717 185.614 71.2595 185.652 67.6719 185.652C64.0843 185.652 61.1722 185.622 61.1722 185.577C61.1722 185.539 64.0843 185.501 67.6719 185.501C71.2671 185.501 74.1717 185.531 74.1717 185.577Z" fill="#E0E0E0"/>
<path d="M74.1717 189.577C74.1717 189.615 71.2595 189.652 67.6719 189.652C64.0843 189.652 61.1722 189.622 61.1722 189.577C61.1722 189.539 64.0843 189.502 67.6719 189.502C71.2671 189.502 74.1717 189.539 74.1717 189.577Z" fill="#E0E0E0"/>
<path d="M78.4124 201.015C78.4124 201.12 73.774 201.21 68.0623 201.21C62.3432 201.21 57.7123 201.12 57.7123 201.015C57.7123 200.91 62.3432 200.82 68.0623 200.82C73.774 200.82 78.4124 200.91 78.4124 201.015Z" fill="#E0E0E0"/>
<path d="M74.7273 203.725C74.7273 203.83 71.7401 203.92 68.0624 203.92C64.3848 203.92 61.3976 203.83 61.3976 203.725C61.3976 203.62 64.3772 203.53 68.0624 203.53C71.7401 203.53 74.7273 203.62 74.7273 203.725Z" fill="#E0E0E0"/>
<path d="M76.4235 253.208H59.7088C58.553 253.208 57.6148 252.27 57.6148 251.114V227.99C57.6148 226.834 58.553 225.896 59.7088 225.896H70.3065L78.51 234.347V251.107C78.51 252.27 77.5718 253.208 76.4235 253.208Z" fill="#EBEBEB"/>
<path d="M70.3069 225.896V232.403C70.3069 233.476 71.1775 234.347 72.2508 234.347H78.5103L70.3069 225.896Z" fill="#F5F5F5"/>
<path d="M70.3969 232.981C70.3969 232.981 70.3143 234.557 72.1081 235.075C72.1757 235.097 72.2432 235.112 72.3108 235.12C73.1288 235.262 78.5103 236.223 78.5103 236.096C78.5103 235.96 78.5103 234.347 78.5103 234.347H72.2507C72.2507 234.354 70.6896 234.302 70.3969 232.981Z" fill="#E0E0E0"/>
<path d="M76.4236 253.208C76.4236 253.2 76.5512 253.208 76.7838 253.163C77.0165 253.118 77.3693 253.013 77.7295 252.72C78.0823 252.427 78.4425 251.925 78.4801 251.249C78.4876 250.574 78.4801 249.793 78.4801 248.922C78.4726 245.417 78.4651 240.411 78.4576 234.362L78.4726 234.407C75.9883 231.847 73.2187 229.003 70.2616 225.956L70.3141 225.978C68.3477 225.978 66.3062 225.978 64.1972 225.978C63.1464 225.978 62.0806 225.978 60.9999 225.978C60.7297 225.978 60.4595 225.978 60.1893 225.978C59.9191 225.986 59.6414 225.963 59.3862 226.008C58.8683 226.091 58.3805 226.391 58.0727 226.826C57.8551 227.126 57.7275 227.487 57.705 227.855C57.69 228.222 57.6975 228.613 57.6975 228.988C57.6975 229.746 57.6975 230.496 57.6975 231.247C57.6975 232.741 57.6975 234.212 57.6975 235.66C57.6975 238.55 57.6975 241.342 57.6899 243.999C57.6899 245.327 57.6899 246.626 57.6899 247.879C57.6899 248.51 57.6899 249.125 57.6899 249.74C57.6899 250.048 57.6899 250.348 57.6899 250.649C57.6975 250.949 57.6674 251.249 57.7275 251.527C57.8326 252.09 58.2003 252.585 58.6732 252.87C58.9133 253.013 59.176 253.103 59.4462 253.14C59.7164 253.17 59.9941 253.155 60.2718 253.163C61.3676 253.163 62.4184 253.163 63.4241 253.17C67.4395 253.178 70.6894 253.185 72.941 253.193C74.0594 253.2 74.93 253.2 75.5304 253.208C75.8231 253.208 76.0483 253.215 76.2059 253.215C76.341 253.2 76.4236 253.208 76.4236 253.208C76.4236 253.208 76.3485 253.215 76.1909 253.215C76.0333 253.215 75.8081 253.223 75.5154 253.223C74.9225 253.223 74.0519 253.23 72.926 253.238C70.6744 253.245 67.4245 253.253 63.4091 253.26C62.4034 253.26 61.3526 253.26 60.2568 253.268C59.9791 253.26 59.7089 253.283 59.4162 253.245C59.131 253.208 58.8533 253.11 58.5981 252.96C58.0952 252.66 57.7125 252.142 57.5924 251.542C57.5323 251.242 57.5549 250.934 57.5473 250.641C57.5473 250.341 57.5473 250.041 57.5473 249.733C57.5473 249.125 57.5473 248.502 57.5473 247.872C57.5473 246.611 57.5473 245.32 57.5473 243.991C57.5473 241.334 57.5473 238.542 57.5398 235.653C57.5398 234.204 57.5398 232.733 57.5398 231.239C57.5398 230.496 57.5398 229.738 57.5398 228.98C57.5398 228.598 57.5323 228.23 57.5473 227.84C57.5699 227.449 57.7125 227.059 57.9451 226.736C58.2754 226.271 58.7933 225.948 59.3487 225.858C59.6339 225.813 59.9041 225.828 60.1743 225.828C60.4445 225.828 60.7147 225.828 60.9848 225.828C62.0656 225.828 63.1314 225.828 64.1822 225.828C66.2837 225.828 68.3327 225.828 70.2991 225.828H70.3291L70.3517 225.851C73.3013 228.898 76.0708 231.75 78.5476 234.309L78.5626 234.324V234.347C78.5551 240.396 78.5401 245.41 78.5401 248.907C78.5326 249.785 78.5401 250.559 78.5251 251.242C78.4801 251.94 78.1048 252.45 77.7445 252.743C77.3693 253.035 77.009 253.133 76.7763 253.178C76.6562 253.2 76.5662 253.2 76.5061 253.2C76.4536 253.208 76.4236 253.208 76.4236 253.208Z" fill="#E0E0E0"/>
<path d="M78.5099 234.354C78.5099 234.362 78.4573 234.362 78.3523 234.369C78.2322 234.369 78.0746 234.377 77.8944 234.384C77.4741 234.392 76.8962 234.399 76.1982 234.407C75.4777 234.414 74.6221 234.414 73.6839 234.422C73.211 234.422 72.7157 234.422 72.1978 234.422C71.6649 234.414 71.117 234.167 70.7417 233.739C70.5541 233.529 70.4115 233.274 70.3289 233.011C70.2389 232.748 70.2314 232.463 70.2389 232.215C70.2389 231.697 70.2389 231.202 70.2464 230.729C70.2539 229.791 70.2539 228.935 70.2614 228.215C70.2689 227.517 70.2764 226.939 70.2839 226.519C70.2914 226.331 70.2914 226.181 70.2989 226.061C70.3064 225.956 70.3064 225.903 70.3139 225.903C70.3214 225.903 70.3214 225.956 70.3289 226.061C70.3289 226.181 70.3364 226.339 70.3439 226.519C70.3514 226.939 70.359 227.517 70.3665 228.215C70.374 228.935 70.374 229.791 70.3815 230.729C70.3815 231.202 70.3815 231.697 70.389 232.215C70.359 232.726 70.5016 233.244 70.8543 233.641C71.1996 234.039 71.7099 234.264 72.2053 234.279C72.7157 234.279 73.211 234.287 73.6914 234.287C74.6296 234.294 75.4852 234.302 76.2057 234.302C76.9037 234.309 77.4816 234.317 77.9019 234.324C78.0896 234.332 78.2397 234.332 78.3598 234.339C78.4573 234.347 78.5099 234.347 78.5099 234.354Z" fill="#E0E0E0"/>
<path d="M69.9913 231.705C69.9913 231.742 68.0174 231.78 65.5856 231.78C63.1538 231.78 61.1799 231.75 61.1799 231.705C61.1799 231.667 63.1538 231.63 65.5856 231.63C68.0174 231.63 69.9913 231.667 69.9913 231.705Z" fill="#E0E0E0"/>
<path d="M74.1717 234.955C74.1717 234.992 71.2595 235.03 67.6719 235.03C64.0843 235.03 61.1722 235 61.1722 234.955C61.1722 234.917 64.0843 234.88 67.6719 234.88C71.2671 234.88 74.1717 234.91 74.1717 234.955Z" fill="#E0E0E0"/>
<path d="M74.1717 238.197C74.1717 238.235 71.2595 238.272 67.6719 238.272C64.0843 238.272 61.1722 238.242 61.1722 238.197C61.1722 238.16 64.0843 238.122 67.6719 238.122C71.2671 238.13 74.1717 238.16 74.1717 238.197Z" fill="#E0E0E0"/>
<path d="M74.1717 241.447C74.1717 241.484 71.2595 241.522 67.6719 241.522C64.0843 241.522 61.1722 241.492 61.1722 241.447C61.1722 241.409 64.0843 241.372 67.6719 241.372C71.2671 241.372 74.1717 241.409 74.1717 241.447Z" fill="#E0E0E0"/>
<path d="M74.1717 244.697C74.1717 244.734 71.2595 244.772 67.6719 244.772C64.0843 244.772 61.1722 244.742 61.1722 244.697C61.1722 244.659 64.0843 244.622 67.6719 244.622C71.2671 244.622 74.1717 244.652 74.1717 244.697Z" fill="#E0E0E0"/>
<path d="M74.1717 248.697C74.1717 248.735 71.2595 248.772 67.6719 248.772C64.0843 248.772 61.1722 248.742 61.1722 248.697C61.1722 248.66 64.0843 248.622 67.6719 248.622C71.2671 248.622 74.1717 248.66 74.1717 248.697Z" fill="#E0E0E0"/>
<path d="M78.4124 260.136C78.4124 260.241 73.774 260.331 68.0623 260.331C62.3432 260.331 57.7123 260.241 57.7123 260.136C57.7123 260.03 62.3432 259.94 68.0623 259.94C73.774 259.94 78.4124 260.03 78.4124 260.136Z" fill="#E0E0E0"/>
<path d="M74.7273 262.845C74.7273 262.95 71.7401 263.04 68.0624 263.04C64.3848 263.04 61.3976 262.95 61.3976 262.845C61.3976 262.74 64.3772 262.65 68.0624 262.65C71.7401 262.65 74.7273 262.74 74.7273 262.845Z" fill="#E0E0E0"/>
<path d="M75.2754 325.733H58.5683C57.4124 325.733 56.4742 324.795 56.4742 323.639V300.515C56.4742 299.359 57.4124 298.421 58.5683 298.421H69.166L77.3694 306.872V323.632C77.3619 324.795 76.4313 325.733 75.2754 325.733Z" fill="#EBEBEB"/>
<path d="M69.1584 298.421V304.928C69.1584 306.002 70.029 306.872 71.1023 306.872H77.3618L69.1584 298.421Z" fill="#F5F5F5"/>
<path d="M69.2484 305.506C69.2484 305.506 69.1658 307.082 70.9596 307.6C71.0272 307.623 71.0947 307.638 71.1623 307.645C71.9804 307.788 77.3618 308.748 77.3618 308.621C77.3618 308.486 77.3618 306.872 77.3618 306.872H71.1022C71.1022 306.88 69.5411 306.827 69.2484 305.506Z" fill="#E0E0E0"/>
<path d="M75.2754 325.733C75.2754 325.726 75.403 325.733 75.6357 325.688C75.8683 325.643 76.2211 325.538 76.5814 325.245C76.9341 324.953 77.2944 324.45 77.3319 323.774C77.3394 323.099 77.3319 322.318 77.3319 321.448C77.3244 317.943 77.3169 312.937 77.3094 306.887L77.3244 306.932C74.8401 304.373 72.0706 301.528 69.1134 298.481L69.166 298.504C67.1995 298.504 65.1581 298.504 63.049 298.504C61.9983 298.504 60.9325 298.504 59.8517 298.504C59.5815 298.504 59.3113 298.504 59.0411 298.504C58.7709 298.511 58.4932 298.488 58.238 298.534C57.7201 298.616 57.2323 298.916 56.9246 299.352C56.7069 299.652 56.5793 300.012 56.5568 300.38C56.5418 300.748 56.5493 301.138 56.5493 301.513C56.5493 302.271 56.5493 303.022 56.5493 303.772C56.5493 305.266 56.5493 306.737 56.5493 308.186C56.5493 311.075 56.5493 313.867 56.5418 316.524C56.5418 317.853 56.5418 319.151 56.5418 320.404C56.5418 321.035 56.5418 321.65 56.5418 322.266C56.5418 322.574 56.5418 322.874 56.5418 323.174C56.5493 323.474 56.5193 323.774 56.5793 324.052C56.6844 324.615 57.0522 325.11 57.525 325.396C57.7652 325.538 58.0279 325.628 58.2981 325.666C58.5683 325.696 58.846 325.681 59.1237 325.688C60.2195 325.688 61.2702 325.688 62.276 325.696C66.2914 325.703 69.5412 325.711 71.7929 325.718C72.9112 325.726 73.7818 325.726 74.3823 325.733C74.675 325.733 74.9001 325.741 75.0578 325.741C75.1929 325.726 75.2754 325.733 75.2754 325.733C75.2754 325.733 75.2004 325.741 75.0427 325.741C74.8851 325.741 74.66 325.748 74.3673 325.748C73.7743 325.748 72.9037 325.756 71.7779 325.763C69.5262 325.771 66.2764 325.778 62.2609 325.786C61.2552 325.786 60.2045 325.786 59.1087 325.793C58.831 325.786 58.5608 325.808 58.268 325.771C57.9828 325.733 57.7051 325.636 57.4499 325.486C56.9471 325.185 56.5643 324.668 56.4442 324.067C56.3842 323.767 56.4067 323.459 56.3992 323.166C56.3992 322.866 56.3992 322.566 56.3992 322.258C56.3992 321.65 56.3992 321.027 56.3992 320.397C56.3992 319.136 56.3992 317.845 56.3992 316.517C56.3992 313.86 56.3992 311.068 56.3917 308.178C56.3917 306.729 56.3917 305.258 56.3917 303.765C56.3917 303.022 56.3917 302.264 56.3917 301.506C56.3917 301.123 56.3842 300.755 56.3992 300.365C56.4217 299.975 56.5643 299.584 56.797 299.262C57.1272 298.796 57.6451 298.473 58.2005 298.383C58.4857 298.338 58.7559 298.353 59.0261 298.353C59.2963 298.353 59.5665 298.353 59.8367 298.353C60.9175 298.353 61.9832 298.353 63.034 298.353C65.1355 298.353 67.1845 298.353 69.151 298.353H69.181L69.2035 298.376C72.1531 301.423 74.9227 304.275 77.3995 306.835L77.4145 306.85V306.872C77.407 312.921 77.392 317.935 77.392 321.433C77.3844 322.311 77.392 323.084 77.3769 323.767C77.3319 324.465 76.9566 324.975 76.5964 325.268C76.2211 325.561 75.8608 325.658 75.6282 325.703C75.5081 325.726 75.418 325.726 75.358 325.726C75.3054 325.733 75.2754 325.733 75.2754 325.733Z" fill="#E0E0E0"/>
<path d="M77.362 306.88C77.362 306.887 77.3095 306.887 77.2044 306.895C77.0843 306.895 76.9267 306.902 76.7465 306.91C76.3262 306.917 75.7483 306.925 75.0503 306.932C74.3298 306.94 73.4742 306.94 72.536 306.947C72.0631 306.947 71.5678 306.947 71.0499 306.947C70.517 306.94 69.9691 306.692 69.5938 306.264C69.4062 306.054 69.2636 305.799 69.181 305.536C69.091 305.274 69.0835 304.988 69.091 304.741C69.091 304.223 69.091 303.727 69.0985 303.255C69.106 302.316 69.106 301.461 69.1135 300.74C69.121 300.042 69.1285 299.464 69.136 299.044C69.1435 298.856 69.1435 298.706 69.151 298.586C69.1585 298.481 69.1585 298.429 69.166 298.429C69.1735 298.429 69.1735 298.481 69.181 298.586C69.181 298.706 69.1885 298.864 69.1961 299.044C69.2036 299.464 69.2111 300.042 69.2186 300.74C69.2261 301.461 69.2261 302.316 69.2336 303.255C69.2336 303.727 69.2336 304.223 69.2411 304.741C69.2111 305.251 69.3537 305.769 69.7064 306.167C70.0517 306.564 70.562 306.79 71.0574 306.805C71.5678 306.805 72.0706 306.812 72.5435 306.812C73.4817 306.82 74.3373 306.827 75.0578 306.827C75.7558 306.835 76.3337 306.842 76.754 306.85C76.9417 306.857 77.0918 306.857 77.2119 306.865C77.3095 306.865 77.362 306.872 77.362 306.88Z" fill="#E0E0E0"/>
<path d="M68.8434 304.23C68.8434 304.268 66.8695 304.305 64.4377 304.305C62.0059 304.305 60.032 304.275 60.032 304.23C60.032 304.193 62.0059 304.155 64.4377 304.155C66.8695 304.155 68.8434 304.193 68.8434 304.23Z" fill="#E0E0E0"/>
<path d="M73.0315 307.48C73.0315 307.518 70.1194 307.555 66.5317 307.555C62.9441 307.555 60.032 307.525 60.032 307.48C60.032 307.443 62.9441 307.405 66.5317 307.405C70.1194 307.405 73.0315 307.435 73.0315 307.48Z" fill="#E0E0E0"/>
<path d="M73.0315 310.723C73.0315 310.76 70.1194 310.798 66.5317 310.798C62.9441 310.798 60.032 310.768 60.032 310.723C60.032 310.685 62.9441 310.647 66.5317 310.647C70.1194 310.655 73.0315 310.685 73.0315 310.723Z" fill="#E0E0E0"/>
<path d="M73.0315 313.972C73.0315 314.01 70.1194 314.047 66.5317 314.047C62.9441 314.047 60.032 314.017 60.032 313.972C60.032 313.935 62.9441 313.897 66.5317 313.897C70.1194 313.897 73.0315 313.935 73.0315 313.972Z" fill="#E0E0E0"/>
<path d="M73.0315 317.222C73.0315 317.26 70.1194 317.297 66.5317 317.297C62.9441 317.297 60.032 317.267 60.032 317.222C60.032 317.185 62.9441 317.147 66.5317 317.147C70.1194 317.147 73.0315 317.177 73.0315 317.222Z" fill="#E0E0E0"/>
<path d="M73.0315 321.223C73.0315 321.26 70.1194 321.298 66.5317 321.298C62.9441 321.298 60.032 321.268 60.032 321.223C60.032 321.185 62.9441 321.148 66.5317 321.148C70.1194 321.148 73.0315 321.185 73.0315 321.223Z" fill="#E0E0E0"/>
<path d="M77.2645 332.661C77.2645 332.766 72.6261 332.856 66.9144 332.856C61.1953 332.856 56.5644 332.766 56.5644 332.661C56.5644 332.556 61.1953 332.466 66.9144 332.466C72.6261 332.466 77.2645 332.556 77.2645 332.661Z" fill="#E0E0E0"/>
<path d="M73.5794 335.37C73.5794 335.475 70.5922 335.566 66.9145 335.566C63.2369 335.566 60.2497 335.475 60.2497 335.37C60.2497 335.265 63.2294 335.175 66.9145 335.175C70.5922 335.175 73.5794 335.265 73.5794 335.37Z" fill="#E0E0E0"/>
<path d="M185.163 324.082H168.455C167.3 324.082 166.361 323.144 166.361 321.988V298.864C166.361 297.708 167.3 296.77 168.455 296.77H179.053L187.257 305.221V321.981C187.257 323.144 186.318 324.082 185.163 324.082Z" fill="#EBEBEB"/>
<path d="M179.053 296.77V303.277C179.053 304.35 179.924 305.221 180.997 305.221H187.257L179.053 296.77Z" fill="#F5F5F5"/>
<path d="M179.143 303.847C179.143 303.847 179.061 305.424 180.854 305.941C180.922 305.964 180.99 305.979 181.057 305.986C181.875 306.129 187.257 307.09 187.257 306.962C187.257 306.827 187.257 305.213 187.257 305.213H180.997C180.997 305.228 179.436 305.168 179.143 303.847Z" fill="#E0E0E0"/>
<path d="M185.163 324.082C185.163 324.075 185.29 324.082 185.523 324.037C185.756 323.992 186.108 323.887 186.469 323.594C186.821 323.302 187.182 322.799 187.219 322.123C187.227 321.448 187.219 320.667 187.219 319.797C187.212 316.291 187.204 311.285 187.197 305.236L187.212 305.281C184.727 302.722 181.958 299.877 179.001 296.83L179.053 296.852C177.087 296.852 175.045 296.852 172.936 296.852C171.885 296.852 170.82 296.852 169.739 296.852C169.469 296.852 169.198 296.852 168.928 296.852C168.658 296.86 168.38 296.837 168.125 296.882C167.607 296.965 167.119 297.265 166.812 297.7C166.594 298.001 166.466 298.361 166.444 298.729C166.429 299.096 166.436 299.487 166.436 299.862C166.436 300.62 166.436 301.371 166.436 302.121C166.436 303.615 166.436 305.086 166.436 306.534C166.436 309.424 166.436 312.216 166.429 314.873C166.429 316.201 166.429 317.5 166.429 318.753C166.429 319.384 166.429 319.999 166.429 320.615C166.429 320.922 166.429 321.223 166.429 321.523C166.436 321.823 166.406 322.123 166.466 322.401C166.572 322.964 166.939 323.459 167.412 323.744C167.652 323.887 167.915 323.977 168.185 324.015C168.455 324.045 168.733 324.03 169.011 324.037C170.107 324.037 171.157 324.037 172.163 324.045C176.179 324.052 179.428 324.06 181.68 324.067C182.798 324.075 183.669 324.075 184.269 324.082C184.562 324.082 184.787 324.09 184.945 324.09C185.088 324.075 185.163 324.082 185.163 324.082C185.163 324.082 185.088 324.09 184.93 324.09C184.772 324.09 184.547 324.097 184.254 324.097C183.661 324.097 182.791 324.105 181.665 324.112C179.413 324.12 176.164 324.127 172.148 324.135C171.142 324.135 170.092 324.135 168.996 324.142C168.718 324.135 168.448 324.157 168.155 324.12C167.87 324.082 167.592 323.985 167.337 323.834C166.834 323.534 166.451 323.016 166.331 322.416C166.271 322.116 166.294 321.808 166.286 321.515C166.286 321.215 166.286 320.915 166.286 320.607C166.286 319.999 166.286 319.376 166.286 318.746C166.286 317.485 166.286 316.194 166.286 314.865C166.286 312.209 166.286 309.416 166.279 306.527C166.279 305.078 166.279 303.607 166.279 302.114C166.279 301.371 166.279 300.613 166.279 299.855C166.279 299.472 166.271 299.104 166.286 298.714C166.309 298.323 166.451 297.933 166.684 297.61C167.014 297.145 167.532 296.822 168.088 296.732C168.373 296.687 168.643 296.702 168.913 296.702C169.183 296.702 169.454 296.702 169.724 296.702C170.805 296.702 171.87 296.702 172.921 296.702C175.023 296.702 177.072 296.702 179.038 296.702H179.068L179.091 296.725C182.04 299.772 184.81 302.624 187.287 305.183L187.302 305.198V305.221C187.294 311.27 187.279 316.284 187.279 319.782C187.272 320.66 187.279 321.433 187.264 322.116C187.219 322.814 186.844 323.324 186.484 323.617C186.108 323.91 185.748 324.015 185.515 324.052C185.395 324.075 185.305 324.075 185.245 324.075C185.2 324.082 185.163 324.082 185.163 324.082Z" fill="#E0E0E0"/>
<path d="M187.257 305.228C187.257 305.236 187.204 305.236 187.099 305.243C186.979 305.243 186.822 305.251 186.641 305.259C186.221 305.266 185.643 305.274 184.945 305.281C184.225 305.289 183.369 305.289 182.431 305.296C181.958 305.296 181.463 305.296 180.945 305.296C180.412 305.289 179.864 305.041 179.489 304.613C179.301 304.403 179.158 304.148 179.076 303.885C178.986 303.622 178.978 303.337 178.986 303.089C178.986 302.572 178.986 302.076 178.993 301.603C179.001 300.665 179.001 299.81 179.008 299.089C179.016 298.391 179.023 297.813 179.031 297.393C179.038 297.205 179.038 297.055 179.046 296.935C179.053 296.83 179.053 296.777 179.061 296.777C179.068 296.777 179.068 296.83 179.076 296.935C179.076 297.055 179.083 297.213 179.091 297.393C179.098 297.813 179.106 298.391 179.113 299.089C179.121 299.81 179.121 300.665 179.128 301.603C179.128 302.076 179.128 302.572 179.136 303.089C179.106 303.6 179.249 304.118 179.601 304.515C179.947 304.913 180.457 305.138 180.952 305.153C181.463 305.153 181.966 305.161 182.438 305.161C183.377 305.168 184.232 305.176 184.953 305.176C185.651 305.183 186.229 305.191 186.649 305.198C186.837 305.206 186.987 305.206 187.107 305.213C187.204 305.213 187.257 305.221 187.257 305.228Z" fill="#E0E0E0"/>
<path d="M178.738 302.579C178.738 302.616 176.764 302.654 174.332 302.654C171.9 302.654 169.927 302.624 169.927 302.579C169.927 302.541 171.9 302.504 174.332 302.504C176.764 302.504 178.738 302.541 178.738 302.579Z" fill="#E0E0E0"/>
<path d="M182.919 305.829C182.919 305.866 180.007 305.904 176.419 305.904C172.831 305.904 169.919 305.874 169.919 305.829C169.919 305.791 172.831 305.754 176.419 305.754C180.014 305.754 182.919 305.784 182.919 305.829Z" fill="#E0E0E0"/>
<path d="M182.919 309.071C182.919 309.109 180.007 309.146 176.419 309.146C172.831 309.146 169.919 309.116 169.919 309.071C169.919 309.034 172.831 308.996 176.419 308.996C180.014 308.996 182.919 309.034 182.919 309.071Z" fill="#E0E0E0"/>
<path d="M182.919 312.321C182.919 312.359 180.007 312.396 176.419 312.396C172.831 312.396 169.919 312.366 169.919 312.321C169.919 312.276 172.831 312.246 176.419 312.246C180.014 312.246 182.919 312.276 182.919 312.321Z" fill="#E0E0E0"/>
<path d="M182.919 315.563C182.919 315.601 180.007 315.639 176.419 315.639C172.831 315.639 169.919 315.608 169.919 315.563C169.919 315.526 172.831 315.488 176.419 315.488C180.014 315.496 182.919 315.526 182.919 315.563Z" fill="#E0E0E0"/>
<path d="M182.919 319.571C182.919 319.609 180.007 319.646 176.419 319.646C172.831 319.646 169.919 319.616 169.919 319.571C169.919 319.534 172.831 319.496 176.419 319.496C180.014 319.496 182.919 319.534 182.919 319.571Z" fill="#E0E0E0"/>
<path d="M187.159 331.01C187.159 331.115 182.521 331.205 176.809 331.205C171.09 331.205 166.459 331.115 166.459 331.01C166.459 330.905 171.09 330.814 176.809 330.814C182.521 330.814 187.159 330.905 187.159 331.01Z" fill="#E0E0E0"/>
<path d="M183.467 333.719C183.467 333.824 180.479 333.914 176.802 333.914C173.124 333.914 170.137 333.824 170.137 333.719C170.137 333.614 173.117 333.524 176.802 333.524C180.487 333.524 183.467 333.614 183.467 333.719Z" fill="#E0E0E0"/>
<path d="M118.971 164.561L119.759 179.512C119.789 180.045 120.165 180.458 120.622 180.458H143.687C144.167 180.458 144.55 180.007 144.55 179.445V167.804C144.55 167.241 144.16 166.79 143.679 166.79L129.494 166.895C129.261 166.895 129.044 166.79 128.878 166.603L126.417 163.766C126.252 163.578 126.034 163.473 125.809 163.473H119.827C119.339 163.488 118.941 163.976 118.971 164.561Z" fill="#EBEBEB"/>
<path d="M144.55 165.027H119.354V182.597H144.55V165.027Z" fill="#F5F5F5"/>
<path d="M117.35 166.603L119.272 184.931C119.309 185.254 119.542 185.501 119.827 185.501H144.385C144.678 185.501 144.918 185.239 144.94 184.901L146.179 166.573C146.201 166.197 145.946 165.875 145.623 165.875H117.906C117.568 165.875 117.313 166.22 117.35 166.603Z" fill="#EBEBEB"/>
<path d="M142.007 186.815C142.007 186.92 137.368 187.01 131.657 187.01C125.938 187.01 121.307 186.92 121.307 186.815C121.307 186.71 125.938 186.62 131.657 186.62C137.376 186.62 142.007 186.71 142.007 186.815Z" fill="#E0E0E0"/>
<path d="M138.321 189.524C138.321 189.629 135.334 189.719 131.656 189.719C127.979 189.719 124.992 189.629 124.992 189.524C124.992 189.419 127.971 189.329 131.656 189.329C135.342 189.329 138.321 189.419 138.321 189.524Z" fill="#E0E0E0"/>
<path d="M119.677 226.856L120.465 241.807C120.495 242.34 120.871 242.753 121.328 242.753H144.393C144.873 242.753 145.256 242.303 145.256 241.74V230.099C145.256 229.536 144.866 229.085 144.385 229.085L130.2 229.19C129.967 229.19 129.75 229.085 129.584 228.898L127.123 226.061C126.957 225.873 126.74 225.768 126.515 225.768H120.533C120.045 225.783 119.647 226.278 119.677 226.856Z" fill="#EBEBEB"/>
<path d="M145.256 227.329H120.06V244.899H145.256V227.329Z" fill="#F5F5F5"/>
<path d="M118.056 228.905L119.977 247.234C120.015 247.556 120.248 247.804 120.533 247.804H145.091C145.383 247.804 145.624 247.541 145.646 247.204L146.885 228.875C146.907 228.5 146.652 228.177 146.329 228.177H118.611C118.274 228.177 118.019 228.515 118.056 228.905Z" fill="#EBEBEB"/>
<path d="M142.817 257.103C142.817 257.208 138.178 257.298 132.467 257.298C126.748 257.298 122.117 257.208 122.117 257.103C122.117 256.998 126.748 256.908 132.467 256.908C138.186 256.908 142.817 256.991 142.817 257.103Z" fill="#E0E0E0"/>
<path d="M139.131 259.813C139.131 259.918 136.144 260.008 132.466 260.008C128.789 260.008 125.802 259.918 125.802 259.813C125.802 259.708 128.781 259.618 132.466 259.618C136.152 259.618 139.131 259.7 139.131 259.813Z" fill="#E0E0E0"/>
<path d="M107.489 313.514L108.277 328.465C108.307 328.998 108.682 329.411 109.14 329.411H132.204C132.685 329.411 133.067 328.961 133.067 328.398V316.757C133.067 316.194 132.677 315.743 132.197 315.743L118.011 315.849C117.779 315.849 117.561 315.743 117.396 315.556L114.934 312.719C114.769 312.531 114.551 312.426 114.326 312.426H108.344C107.857 312.441 107.459 312.936 107.489 313.514Z" fill="#EBEBEB"/>
<path d="M133.067 313.98H107.872V331.55H133.067V313.98Z" fill="#F5F5F5"/>
<path d="M105.868 315.563L107.789 333.892C107.827 334.214 108.059 334.462 108.344 334.462H132.902C133.195 334.462 133.435 334.199 133.458 333.862L134.696 315.533C134.719 315.158 134.463 314.835 134.141 314.835H106.423C106.085 314.835 105.83 315.173 105.868 315.563Z" fill="#EBEBEB"/>
<path d="M130.636 343.761C130.636 343.866 125.997 343.957 120.286 343.957C114.566 343.957 109.936 343.866 109.936 343.761C109.936 343.656 114.566 343.566 120.286 343.566C125.997 343.566 130.636 343.649 130.636 343.761Z" fill="#E0E0E0"/>
<path d="M126.943 346.471C126.943 346.576 123.956 346.666 120.278 346.666C116.6 346.666 113.613 346.576 113.613 346.471C113.613 346.366 116.593 346.276 120.278 346.276C123.963 346.276 126.943 346.358 126.943 346.471Z" fill="#E0E0E0"/>
<path d="M231.772 309.844H173.425L162.279 326.386L151.404 309.844H94.0918C90.4292 309.844 87.457 306.872 87.457 303.209V189.532C87.457 185.869 90.4292 182.897 94.0918 182.897H231.764C235.427 182.897 238.399 185.869 238.399 189.532V303.209C238.407 306.872 235.435 309.844 231.772 309.844Z" fill="#FAFAFA"/>
<path d="M231.772 309.844C231.772 309.844 231.892 309.829 232.139 309.814C232.38 309.807 232.74 309.762 233.213 309.664C234.128 309.454 235.547 308.929 236.778 307.503C237.386 306.805 237.911 305.866 238.174 304.748C238.256 304.47 238.271 304.178 238.324 303.885C238.331 303.585 238.361 303.284 238.354 302.962C238.354 302.331 238.354 301.671 238.346 300.988C238.339 298.248 238.339 295.089 238.331 291.538C238.316 277.308 238.294 256.736 238.271 231.307C238.264 218.593 238.256 204.663 238.249 189.712C238.294 187.881 237.543 186.034 236.162 184.781C235.479 184.15 234.661 183.67 233.776 183.377C232.882 183.062 231.952 183.039 230.976 183.062C227.111 183.062 223.185 183.062 219.207 183.07C211.244 183.07 203.048 183.077 194.642 183.077C177.83 183.077 160.185 183.085 141.886 183.092C132.737 183.092 123.43 183.092 113.981 183.092C109.26 183.092 104.502 183.092 99.7131 183.092C98.5122 183.092 97.3188 183.092 96.118 183.092H94.3166C94.0089 183.085 93.7312 183.115 93.4385 183.13C93.1533 183.182 92.8531 183.197 92.5754 183.287C91.4345 183.557 90.3838 184.165 89.5507 184.983C88.7326 185.824 88.1171 186.875 87.8544 188.023C87.5767 189.044 87.6893 190.147 87.6668 191.243C87.6668 192.331 87.6668 193.427 87.6668 194.515C87.6668 196.692 87.6668 198.869 87.6668 201.03C87.6668 205.361 87.6668 209.669 87.6668 213.947C87.6668 222.503 87.6668 230.947 87.6668 239.255C87.6668 255.88 87.6593 271.987 87.6593 287.433C87.6593 291.291 87.6593 295.111 87.6593 298.886C87.6593 299.832 87.6593 300.77 87.6593 301.708C87.6743 302.646 87.5993 303.585 87.7869 304.47C88.1321 306.257 89.2805 307.848 90.8266 308.756C91.5997 309.214 92.4628 309.514 93.3409 309.619C94.2191 309.709 95.1498 309.657 96.0579 309.672C97.8742 309.672 99.683 309.672 101.477 309.672C105.064 309.672 108.607 309.672 112.105 309.679C126.072 309.687 139.229 309.694 151.433 309.702H151.516L151.561 309.769C155.359 315.548 158.984 321.072 162.421 326.319H162.196C166.166 320.434 169.889 314.925 173.357 309.792L173.394 309.739H173.454C191.91 309.762 206.493 309.784 216.468 309.792C221.452 309.807 225.279 309.814 227.869 309.822C229.16 309.829 230.135 309.837 230.803 309.837C231.434 309.829 231.772 309.844 231.772 309.844C231.772 309.844 231.434 309.852 230.781 309.859C230.12 309.859 229.137 309.867 227.846 309.874C225.257 309.882 221.422 309.889 216.445 309.904C206.471 309.919 191.888 309.934 173.432 309.957L173.529 309.904C170.069 315.046 166.362 320.562 162.399 326.454L162.286 326.619L162.174 326.446C158.721 321.207 155.096 315.691 151.291 309.912L151.411 309.979C139.207 309.987 126.05 309.994 112.082 310.002C108.592 310.002 105.049 310.002 101.454 310.009C99.6605 310.009 97.8517 310.009 96.0354 310.009C95.1197 309.994 94.2266 310.054 93.2809 309.957C92.3502 309.844 91.4345 309.537 90.624 309.049C88.9953 308.088 87.7794 306.414 87.4191 304.523C87.224 303.57 87.3065 302.616 87.284 301.693C87.284 300.755 87.284 299.817 87.284 298.871C87.284 295.096 87.284 291.276 87.284 287.418C87.284 271.979 87.2765 255.872 87.2765 239.24C87.2765 230.924 87.2765 222.481 87.2765 213.932C87.2765 209.654 87.2765 205.346 87.2765 201.015C87.2765 198.846 87.2765 196.677 87.2765 194.5C87.2765 193.412 87.2765 192.324 87.2765 191.228V189.592C87.284 189.036 87.3291 188.466 87.4717 187.918C87.7569 186.702 88.4023 185.584 89.273 184.698C90.1586 183.828 91.2694 183.182 92.4853 182.897C92.7855 182.807 93.0933 182.784 93.401 182.732C93.7087 182.717 94.0239 182.687 94.3242 182.694H96.1255C97.3263 182.694 98.5272 182.694 99.7206 182.694C104.509 182.694 109.268 182.694 113.988 182.694C123.438 182.694 132.745 182.694 141.894 182.694C160.185 182.702 177.837 182.702 194.65 182.709C203.056 182.709 211.252 182.717 219.215 182.717C223.2 182.717 227.118 182.717 230.984 182.724C231.937 182.702 232.957 182.732 233.888 183.062C234.819 183.37 235.682 183.88 236.395 184.541C237.108 185.201 237.686 186.012 238.054 186.897C238.429 187.79 238.587 188.759 238.579 189.712C238.572 204.663 238.564 218.593 238.557 231.307C238.534 256.736 238.512 277.316 238.497 291.538C238.489 295.096 238.482 298.248 238.482 300.988C238.482 301.671 238.482 302.331 238.474 302.962C238.482 303.277 238.452 303.592 238.436 303.892C238.384 304.193 238.361 304.493 238.279 304.771C238.001 305.904 237.468 306.85 236.845 307.548C235.592 308.981 234.151 309.491 233.228 309.694C232.755 309.784 232.395 309.829 232.147 309.829C231.892 309.844 231.772 309.844 231.772 309.844Z" fill="#EBEBEB"/>
<path d="M94 192.461C117.07 195.521 118.499 268.774 141.333 277.211C160.163 284.168 169.698 244.677 188.667 248.961C209.241 253.607 215.825 294.758 236 305.461H94V192.461Z" fill="#ECFDF3"/>
<path d="M94 192.461C117.07 195.521 118.499 268.774 141.333 277.211C160.163 284.168 169.698 244.677 188.667 248.961C209.241 253.607 215.825 294.758 236 305.461H94V192.461Z" fill="url(#paint11_linear_515_6005)"/>
<path d="M236 305.461C215.825 294.758 209.241 253.607 188.667 248.961C169.698 244.677 160.163 284.168 141.333 277.211C118.499 268.774 117.07 195.521 94 192.461" stroke="#12B76A" stroke-width="2" stroke-linecap="round" stroke-linejoin="round"/>
<path d="M231.077 195.492C231.806 192.181 229.713 188.906 226.401 188.177C223.09 187.447 219.814 189.541 219.085 192.852C218.356 196.164 220.45 199.439 223.761 200.168C227.073 200.897 230.348 198.804 231.077 195.492Z" fill="#E0E0E0"/>
<path d="M223.088 196.347C223.043 196.347 222.99 196.332 222.953 196.294C222.878 196.219 222.878 196.099 222.953 196.032L226.931 192.054C227.006 191.979 227.126 191.979 227.193 192.054C227.268 192.129 227.268 192.249 227.193 192.316L223.215 196.294C223.185 196.324 223.133 196.347 223.088 196.347Z" fill="white"/>
<path d="M227.059 196.347C227.013 196.347 226.961 196.332 226.923 196.294L222.946 192.317C222.87 192.241 222.87 192.121 222.946 192.054C223.021 191.979 223.141 191.979 223.208 192.054L227.186 196.032C227.261 196.107 227.261 196.227 227.186 196.294C227.156 196.324 227.111 196.347 227.059 196.347Z" fill="white"/>
<g clip-path="url(#clip1_515_6005)">
<path d="M251.068 148.495C251.068 148.573 203.687 148.627 145.241 148.627C86.7858 148.627 39.4143 148.565 39.4143 148.495C39.4143 148.417 86.7858 148.363 145.251 148.363C203.687 148.355 251.068 148.417 251.068 148.495Z" fill="#E0E0E0"/>
<path d="M51.6785 141.872C51.6785 143.116 50.6712 144.124 49.4268 144.124C48.1825 144.124 47.1752 143.116 47.1752 141.872C47.1752 140.628 48.1825 139.62 49.4268 139.62C50.6712 139.62 51.6785 140.628 51.6785 141.872Z" fill="#118839"/>
<path d="M58.8722 141.872C58.8722 143.116 57.8649 144.124 56.6206 144.124C55.3763 144.124 54.369 143.116 54.369 141.872C54.369 140.628 55.3763 139.62 56.6206 139.62C57.8649 139.62 58.8722 140.628 58.8722 141.872Z" fill="#F5702F"/>
<path d="M66.0665 141.872C66.0665 143.116 65.0592 144.124 63.8149 144.124C62.5706 144.124 61.5633 143.116 61.5633 141.872C61.5633 140.628 62.5706 139.62 63.805 139.62C65.0494 139.62 66.0665 140.628 66.0665 141.872Z" fill="#F70303"/>
</g>
</g>
</g>
<g filter="url(#filter1_b_515_6005)">
<rect width="187.688" height="51.7112" rx="13.0014" transform="matrix(0.999994 0.00343663 -0.00260493 0.999997 276.188 273.377)" fill="white"/>
</g>
<path d="M337.67 304.673L337.762 293.037L345.057 293.113L345.045 294.625L339.506 294.567L339.477 298.112L344.636 298.166L344.624 299.672L339.465 299.618L339.437 303.18L345.045 303.239L345.033 304.75L337.67 304.673ZM348.913 299.609L348.872 304.79L347.173 304.773L347.243 296.046L348.873 296.063L348.862 297.483L348.97 297.484C349.174 297.024 349.492 296.656 349.922 296.38C350.356 296.105 350.901 295.97 351.556 295.977C352.15 295.983 352.67 296.114 353.115 296.368C353.56 296.619 353.904 296.99 354.146 297.482C354.389 297.973 354.507 298.578 354.501 299.298L354.457 304.849L352.758 304.831L352.801 299.485C352.806 298.852 352.645 298.356 352.318 297.996C351.992 297.633 351.54 297.449 350.965 297.443C350.571 297.438 350.22 297.52 349.911 297.687C349.607 297.854 349.365 298.102 349.184 298.43C349.007 298.754 348.917 299.147 348.913 299.609ZM360.878 296.188L360.867 297.552L356.101 297.502L356.111 296.138L360.878 296.188ZM357.406 294.061L359.105 294.079L359.04 302.334C359.037 302.664 359.084 302.912 359.181 303.08C359.279 303.244 359.405 303.357 359.559 303.419C359.718 303.478 359.89 303.508 360.076 303.51C360.212 303.511 360.332 303.503 360.434 303.485C360.536 303.467 360.616 303.453 360.673 303.442L360.969 304.849C360.87 304.886 360.729 304.922 360.547 304.958C360.365 304.998 360.138 305.018 359.865 305.019C359.418 305.022 359.002 304.938 358.617 304.767C358.232 304.597 357.921 304.336 357.686 303.985C357.45 303.634 357.334 303.195 357.338 302.669L357.406 294.061ZM366.354 305.149C365.494 305.14 364.755 304.949 364.137 304.575C363.523 304.197 363.05 303.672 362.718 302.998C362.39 302.32 362.229 301.528 362.237 300.623C362.244 299.729 362.417 298.943 362.755 298.265C363.098 297.587 363.572 297.059 364.177 296.683C364.786 296.307 365.496 296.123 366.306 296.131C366.799 296.137 367.275 296.223 367.736 296.391C368.197 296.558 368.61 296.818 368.974 297.171C369.339 297.523 369.625 297.979 369.833 298.538C370.041 299.093 370.141 299.766 370.135 300.558L370.13 301.16L363.193 301.088L363.203 299.815L368.476 299.87C368.479 299.423 368.391 299.026 368.212 298.68C368.033 298.33 367.78 298.052 367.452 297.848C367.128 297.644 366.746 297.54 366.307 297.535C365.829 297.53 365.412 297.643 365.054 297.874C364.7 298.101 364.425 298.402 364.229 298.775C364.036 299.144 363.938 299.546 363.935 299.982L363.927 300.976C363.922 301.559 364.021 302.057 364.222 302.468C364.427 302.879 364.714 303.195 365.084 303.414C365.453 303.63 365.886 303.741 366.382 303.746C366.704 303.75 366.998 303.707 367.264 303.619C367.53 303.527 367.76 303.389 367.955 303.206C368.15 303.022 368.299 302.795 368.403 302.523L370.009 302.83C369.877 303.302 369.642 303.714 369.306 304.067C368.974 304.415 368.557 304.686 368.055 304.877C367.558 305.065 366.991 305.156 366.354 305.149ZM371.985 305.032L372.054 296.305L373.696 296.322L373.685 297.709L373.776 297.71C373.938 297.242 374.222 296.875 374.625 296.611C375.033 296.342 375.492 296.211 376.003 296.216C376.11 296.217 376.234 296.222 376.378 296.231C376.526 296.24 376.641 296.251 376.725 296.263L376.712 297.888C376.644 297.868 376.523 297.846 376.349 297.822C376.175 297.793 376.001 297.778 375.826 297.777C375.425 297.772 375.066 297.854 374.75 298.021C374.439 298.184 374.19 298.415 374.006 298.712C373.822 299.006 373.729 299.342 373.726 299.721L373.683 305.05L371.985 305.032ZM392.222 297.391L390.449 297.373C390.384 296.993 390.26 296.659 390.076 296.369C389.893 296.079 389.668 295.832 389.401 295.629C389.133 295.425 388.833 295.271 388.501 295.165C388.172 295.059 387.822 295.004 387.451 295C386.78 294.993 386.179 295.156 385.646 295.487C385.117 295.819 384.696 296.309 384.384 296.957C384.076 297.605 383.918 298.399 383.911 299.339C383.903 300.285 384.048 301.086 384.346 301.741C384.648 302.396 385.062 302.892 385.59 303.231C386.118 303.57 386.713 303.743 387.376 303.75C387.743 303.754 388.092 303.708 388.422 303.613C388.757 303.514 389.059 303.368 389.329 303.174C389.6 302.98 389.829 302.742 390.017 302.459C390.208 302.174 390.342 301.845 390.417 301.475L392.189 301.499C392.09 302.07 391.902 302.595 391.626 303.073C391.353 303.547 391.003 303.957 390.576 304.301C390.153 304.641 389.67 304.903 389.127 305.087C388.583 305.27 387.992 305.359 387.352 305.352C386.344 305.342 385.448 305.094 384.664 304.608C383.88 304.119 383.265 303.425 382.817 302.526C382.374 301.627 382.157 300.559 382.166 299.32C382.176 298.078 382.412 297.014 382.874 296.129C383.335 295.24 383.962 294.56 384.754 294.091C385.545 293.619 386.443 293.387 387.447 293.398C388.064 293.404 388.639 293.499 389.172 293.683C389.708 293.863 390.189 294.126 390.614 294.471C391.04 294.813 391.39 295.229 391.667 295.721C391.943 296.208 392.128 296.765 392.222 297.391ZM394.124 305.264L394.193 296.537L395.892 296.555L395.823 305.282L394.124 305.264ZM395.062 295.199C394.766 295.196 394.513 295.095 394.303 294.896C394.096 294.693 393.994 294.453 393.996 294.177C393.998 293.896 394.104 293.659 394.314 293.464C394.528 293.266 394.782 293.168 395.078 293.171C395.373 293.174 395.624 293.277 395.831 293.48C396.042 293.679 396.146 293.919 396.144 294.199C396.141 294.476 396.033 294.713 395.82 294.912C395.61 295.107 395.357 295.202 395.062 295.199ZM402.251 296.621L402.24 297.985L397.473 297.935L397.484 296.571L402.251 296.621ZM398.779 294.494L400.478 294.512L400.412 302.767C400.41 303.097 400.457 303.345 400.554 303.513C400.651 303.677 400.777 303.79 400.932 303.852C401.091 303.911 401.263 303.941 401.449 303.943C401.585 303.944 401.704 303.936 401.807 303.918C401.909 303.9 401.989 303.886 402.046 303.875L402.341 305.282C402.243 305.319 402.102 305.355 401.92 305.391C401.738 305.431 401.51 305.451 401.238 305.452C400.791 305.455 400.375 305.371 399.99 305.2C399.605 305.03 399.294 304.769 399.058 304.418C398.822 304.067 398.707 303.628 398.711 303.102L398.779 294.494ZM405.109 308.652C404.855 308.649 404.624 308.626 404.416 308.582C404.208 308.542 404.053 308.499 403.951 308.452L404.371 307.064C404.681 307.151 404.957 307.19 405.2 307.181C405.442 307.172 405.657 307.084 405.844 306.915C406.035 306.747 406.204 306.47 406.351 306.085L406.566 305.508L403.443 296.634L405.261 296.653L407.417 303.448L407.508 303.449L409.772 296.7L411.596 296.719L407.921 306.573C407.751 307.026 407.535 307.408 407.275 307.72C407.015 308.035 406.707 308.271 406.349 308.426C405.992 308.581 405.578 308.657 405.109 308.652Z" fill="#333333"/>
<g clip-path="url(#clip2_515_6005)">
<path d="M304.703 314.033C312.435 314.033 318.703 307.765 318.703 300.033C318.703 292.301 312.435 286.033 304.703 286.033C296.971 286.033 290.703 292.301 290.703 300.033C290.703 307.765 296.971 314.033 304.703 314.033Z" fill="#239FDB"/>
<path fill-rule="evenodd" clip-rule="evenodd" d="M306.453 292.449V297.673L304.119 295.34H303.536L302.953 294.756H300.619V295.34H299.511L297.761 293.59H295.369V307.616L301.364 313.611C302.456 313.885 303.577 314.027 304.703 314.033C308.416 314.033 311.977 312.558 314.602 309.932C317.228 307.307 318.703 303.746 318.703 300.033C318.699 299.611 318.676 299.191 318.634 298.771L314.036 294.173H311.676L309.953 292.449H306.453Z" fill="#0B5ECD"/>
<path fill-rule="evenodd" clip-rule="evenodd" d="M306.453 292.449V297.673H304.119V295.34H302.953V294.756H300.619V295.34H299.453V297.09H297.761V293.59H295.369V307.616H295.953V302.048H296.507V303.215H298.286V307.616H298.869V300.59H300.276V299.423H301.604V300.59H302.953V300.006H302.187V298.84H299.693V300.006H298.286V302.631H297.09V301.465H295.953V294.173H297.178V297.673H300.036V295.923H301.203V295.34H302.369V295.923H303.536V298.256H307.036V293.033H309.369V298.84H311.703V294.756H313.453V301.173H311.994V300.006H309.369V300.59H311.411V301.756H313.453V307.616H314.036V294.173H311.119V298.256H309.953V292.449H306.453ZM305.299 298.839H305.27C305.203 298.843 305.138 298.87 305.088 298.915L301.297 302.415C301.253 302.455 301.223 302.507 301.209 302.564C301.195 302.622 301.199 302.682 301.221 302.737C301.242 302.792 301.28 302.839 301.329 302.873C301.377 302.906 301.435 302.923 301.494 302.923H301.786V307.297C301.786 307.374 301.817 307.448 301.871 307.503C301.926 307.558 302 307.589 302.078 307.589H308.494C308.572 307.589 308.646 307.558 308.701 307.503C308.755 307.448 308.786 307.374 308.786 307.297V302.923H309.078C309.137 302.923 309.194 302.906 309.243 302.873C309.292 302.84 309.329 302.793 309.351 302.738C309.372 302.683 309.377 302.623 309.363 302.565C309.35 302.508 309.319 302.456 309.276 302.416L308.786 301.964V300.302C308.786 300.224 308.755 300.15 308.701 300.095C308.646 300.041 308.572 300.01 308.494 300.01C308.417 300.01 308.343 300.041 308.288 300.095C308.233 300.15 308.203 300.224 308.203 300.302V301.425L305.484 298.917C305.434 298.87 305.368 298.842 305.299 298.839ZM305.286 299.53L308.331 302.34H302.241L305.286 299.53ZM302.369 303.049H308.203V307.006H306.453V304.964C306.453 304.887 306.422 304.813 306.367 304.758C306.313 304.703 306.238 304.673 306.161 304.673H304.411C304.334 304.673 304.259 304.703 304.205 304.758C304.15 304.813 304.119 304.887 304.119 304.964V307.006H302.369V303.049ZM304.703 305.256H305.869V307.006H304.703V305.256Z" fill="white"/>
</g>
<circle cx="146.886" cy="50.593" r="50.4" fill="#C4CBD8" fill-opacity="0.72"/>
<path d="M162.636 52.843C163.401 52.843 164.144 52.933 164.886 53.0455V46.093C164.886 43.618 162.884 41.593 160.386 41.593H158.136V37.093C158.136 30.883 153.096 25.843 146.886 25.843C140.676 25.843 135.636 30.883 135.636 37.093H140.136C140.136 33.358 143.151 30.343 146.886 30.343C150.621 30.343 153.636 33.358 153.636 37.093V41.593H133.386C130.889 41.593 128.886 43.618 128.886 46.093V68.593C128.886 71.068 130.889 73.093 133.386 73.093H150.959C149.811 71.113 149.136 68.818 149.136 66.343C149.136 58.8955 155.189 52.843 162.636 52.843ZM146.886 61.843C144.411 61.843 142.386 59.8405 142.386 57.343C142.386 54.8455 144.411 52.843 146.886 52.843C149.361 52.843 151.386 54.868 151.386 57.343C151.386 59.818 149.384 61.843 146.886 61.843ZM170.511 62.4055L159.824 73.093L153.636 66.343L156.246 63.733L159.824 67.3105L167.901 59.233L170.511 62.4055Z" fill="#1951B6"/>
<defs>
<filter id="filter0_d_515_6005" x="0.911133" y="115.113" width="270.514" height="270.049" filterUnits="userSpaceOnUse" color-interpolation-filters="sRGB">
<feFlood flood-opacity="0" result="BackgroundImageFix"/>
<feColorMatrix in="SourceAlpha" type="matrix" values="0 0 0 0 0 0 0 0 0 0 0 0 0 0 0 0 0 0 127 0" result="hardAlpha"/>
<feOffset dx="-10" dy="10"/>
<feGaussianBlur stdDeviation="12"/>
<feComposite in2="hardAlpha" operator="out"/>
<feColorMatrix type="matrix" values="0 0 0 0 0 0 0 0 0 0 0 0 0 0 0 0 0 0 0.1 0"/>
<feBlend mode="normal" in2="BackgroundImageFix" result="effect1_dropShadow_515_6005"/>
<feBlend mode="normal" in="SourceGraphic" in2="effect1_dropShadow_515_6005" result="shape"/>
</filter>
<filter id="filter1_b_515_6005" x="259.614" y="256.956" width="220.701" height="85.1982" filterUnits="userSpaceOnUse" color-interpolation-filters="sRGB">
<feFlood flood-opacity="0" result="BackgroundImageFix"/>
<feGaussianBlur in="BackgroundImageFix" stdDeviation="8.25088"/>
<feComposite in2="SourceAlpha" operator="in" result="effect1_backgroundBlur_515_6005"/>
<feBlend mode="normal" in="SourceGraphic" in2="effect1_backgroundBlur_515_6005" result="shape"/>
</filter>
<linearGradient id="paint0_linear_515_6005" x1="279.679" y1="105.958" x2="329.633" y2="191.352" gradientUnits="userSpaceOnUse">
<stop stop-color="#E3DBF9"/>
<stop offset="0.61" stop-color="#D1C1FA"/>
<stop offset="0.82" stop-color="#A685FB"/>
<stop offset="1" stop-color="#7846FD"/>
</linearGradient>
<linearGradient id="paint1_linear_515_6005" x1="334.757" y1="130.955" x2="324.39" y2="149.678" gradientUnits="userSpaceOnUse">
<stop stop-color="#AADBFF"/>
<stop offset="1" stop-color="#0500E3"/>
</linearGradient>
<linearGradient id="paint2_linear_515_6005" x1="340.024" y1="116.25" x2="329.075" y2="137.861" gradientUnits="userSpaceOnUse">
<stop stop-color="#AADBFF"/>
<stop offset="1" stop-color="#0500E3"/>
</linearGradient>
<linearGradient id="paint3_linear_515_6005" x1="432.56" y1="107.514" x2="446.781" y2="129.062" gradientUnits="userSpaceOnUse">
<stop stop-color="#FB9C9A"/>
<stop offset="0.64" stop-color="#FC8886"/>
<stop offset="0.84" stop-color="#FD5450"/>
<stop offset="1" stop-color="#FF1712"/>
</linearGradient>
<linearGradient id="paint4_linear_515_6005" x1="399.544" y1="139.492" x2="427.241" y2="186.818" gradientUnits="userSpaceOnUse">
<stop stop-color="#FB9C9A"/>
<stop offset="0.63" stop-color="#FC8784"/>
<stop offset="0.83" stop-color="#FD524E"/>
<stop offset="1" stop-color="#FF1712"/>
</linearGradient>
<linearGradient id="paint5_linear_515_6005" x1="419.261" y1="139.032" x2="433.104" y2="164.283" gradientUnits="userSpaceOnUse">
<stop stop-color="#20238C"/>
<stop offset="0.54" stop-color="#1A1D7F"/>
<stop offset="1" stop-color="#050751"/>
</linearGradient>
<linearGradient id="paint6_linear_515_6005" x1="423.763" y1="142.274" x2="456.909" y2="189.624" gradientUnits="userSpaceOnUse">
<stop stop-color="#20238C"/>
<stop offset="0.51" stop-color="#191C7E"/>
<stop offset="1" stop-color="#050751"/>
</linearGradient>
<linearGradient id="paint7_linear_515_6005" x1="438.717" y1="125.205" x2="451.699" y2="100.585" gradientUnits="userSpaceOnUse">
<stop/>
<stop offset="1" stop-color="#4D4D4D"/>
</linearGradient>
<linearGradient id="paint8_linear_515_6005" x1="394.089" y1="190.785" x2="375.155" y2="235.874" gradientUnits="userSpaceOnUse">
<stop stop-color="#AADBFF"/>
<stop offset="0.6" stop-color="#92D1FF"/>
<stop offset="0.81" stop-color="#5BB9FF"/>
<stop offset="1" stop-color="#22A1FF"/>
</linearGradient>
<linearGradient id="paint9_linear_515_6005" x1="438.48" y1="186.052" x2="443.967" y2="222.527" gradientUnits="userSpaceOnUse">
<stop stop-color="#FB9C9A"/>
<stop offset="0.47" stop-color="#FC7875"/>
<stop offset="1" stop-color="#FF1712"/>
</linearGradient>
<linearGradient id="paint10_linear_515_6005" x1="463.269" y1="134.561" x2="452.262" y2="170.194" gradientUnits="userSpaceOnUse">
<stop stop-color="#20238C"/>
<stop offset="0.49" stop-color="#191C7D"/>
<stop offset="1" stop-color="#050751"/>
</linearGradient>
<linearGradient id="paint11_linear_515_6005" x1="165" y1="192.461" x2="165" y2="305.461" gradientUnits="userSpaceOnUse">
<stop offset="0.641167" stop-color="white" stop-opacity="0"/>
<stop offset="1" stop-color="white"/>
</linearGradient>
<clipPath id="clip0_515_6005">
<rect x="34.9111" y="129.113" width="222.514" height="222.049" rx="15.0109" fill="white"/>
</clipPath>
<clipPath id="clip1_515_6005">
<rect width="211.654" height="9.00655" fill="white" transform="translate(39.4142 139.62)"/>
</clipPath>
<clipPath id="clip2_515_6005">
<rect width="28" height="28" fill="white" transform="translate(290.703 286.033)"/>
</clipPath>
</defs>
</svg>
