<svg width="118" height="22" viewBox="0 0 118 22" fill="none" xmlns="http://www.w3.org/2000/svg">
<rect width="3.41372" height="3.41372" rx="1.70686" fill="white"/>
<rect x="26.5518" width="3.41372" height="3.41372" rx="1.70686" fill="#2B2B2B"/>
<rect x="44.5872" width="3.41372" height="3.41372" rx="1.70686" fill="#2B2B2B"/>
<rect x="70.4746" width="3.41372" height="3.41372" rx="1.70686" fill="#2B2B2B"/>
<rect x="96.3618" width="3.41372" height="3.41372" rx="1.70686" fill="#2B2B2B"/>
<rect y="4.59082" width="3.41372" height="3.29601" rx="1.64801" fill="#2B2B2B"/>
<rect x="26.5518" y="4.59082" width="3.41372" height="3.29601" rx="1.64801" fill="white"/>
<rect x="44.5872" y="4.59082" width="3.41372" height="3.29601" rx="1.64801" fill="white"/>
<rect x="70.4746" y="4.59082" width="3.41372" height="3.29601" rx="1.64801" fill="white"/>
<rect x="96.3618" y="4.59082" width="3.41372" height="3.29601" rx="1.64801" fill="white"/>
<rect y="13.5371" width="3.41372" height="3.29601" rx="1.64801" fill="#2B2B2B"/>
<rect x="26.5518" y="13.5371" width="3.41372" height="3.29601" rx="1.64801" fill="white"/>
<rect x="44.5872" y="13.5371" width="3.41372" height="3.29601" rx="1.64801" fill="white"/>
<rect x="70.4746" y="13.5371" width="3.41372" height="3.29601" rx="1.64801" fill="white"/>
<rect x="96.3618" y="13.5371" width="3.41372" height="3.29601" rx="1.64801" fill="white"/>
<rect y="9.06445" width="3.41372" height="3.29601" rx="1.64801" fill="#2B2B2B"/>
<rect x="26.5518" y="9.06445" width="3.41372" height="3.29601" rx="1.64801" fill="white"/>
<rect x="44.5872" y="9.06445" width="3.41372" height="3.29601" rx="1.64801" fill="white"/>
<rect x="70.4746" y="9.06445" width="3.41372" height="3.29601" rx="1.64801" fill="white"/>
<rect x="96.3618" y="9.06445" width="3.41372" height="3.29601" rx="1.64801" fill="white"/>
<rect y="18.0107" width="3.41372" height="3.41372" rx="1.70686" fill="white"/>
<rect x="26.5518" y="18.0098" width="3.41372" height="3.41372" rx="1.70686" fill="#2B2B2B"/>
<rect x="44.5872" y="18.0098" width="3.41372" height="3.41372" rx="1.70686" fill="#2B2B2B"/>
<rect x="70.4746" y="18.0098" width="3.41372" height="3.41372" rx="1.70686" fill="white"/>
<rect x="96.3618" y="18.0098" width="3.41372" height="3.41372" rx="1.70686" fill="#2B2B2B"/>
<rect x="4.59082" width="3.29601" height="3.41372" rx="1.64801" fill="white"/>
<rect x="31.1428" width="3.29601" height="3.41372" rx="1.64801" fill="white"/>
<rect x="49.1782" width="3.29601" height="3.41372" rx="1.64801" fill="white"/>
<rect x="75.0654" width="3.29601" height="3.41372" rx="1.64801" fill="white"/>
<rect x="100.952" width="3.29601" height="3.41372" rx="1.64801" fill="white"/>
<rect x="13.5371" width="3.29601" height="3.41372" rx="1.64801" fill="white"/>
<rect x="40.0886" width="3.29601" height="3.41372" rx="1.64801" fill="white"/>
<rect x="58.1245" width="3.29601" height="3.41372" rx="1.64801" fill="white"/>
<rect x="84.0115" width="3.29601" height="3.41372" rx="1.64801" fill="white"/>
<rect x="109.899" width="3.29601" height="3.41372" rx="1.64801" fill="white"/>
<rect x="4.59082" y="4.59082" width="3.29601" height="3.29601" rx="1.64801" fill="#2B2B2B"/>
<rect x="31.1428" y="4.59082" width="3.29601" height="3.29601" rx="1.64801" fill="#2B2B2B"/>
<rect x="49.1782" y="4.59082" width="3.29601" height="3.29601" rx="1.64801" fill="#2B2B2B"/>
<rect x="75.0654" y="4.59082" width="3.29601" height="3.29601" rx="1.64801" fill="#2B2B2B"/>
<rect x="100.952" y="4.59082" width="3.29601" height="3.29601" rx="1.64801" fill="#2B2B2B"/>
<rect x="4.59082" y="13.5371" width="3.29601" height="3.29601" rx="1.64801" fill="white"/>
<rect x="31.1428" y="13.5371" width="3.29601" height="3.29601" rx="1.64801" fill="#2B2B2B"/>
<rect x="49.1782" y="13.5371" width="3.29601" height="3.29601" rx="1.64801" fill="#2B2B2B"/>
<rect x="75.0654" y="13.5371" width="3.29601" height="3.29601" rx="1.64801" fill="#2B2B2B"/>
<rect x="100.952" y="13.5371" width="3.29601" height="3.29601" rx="1.64801" fill="#2B2B2B"/>
<rect x="13.5371" y="4.59082" width="3.29601" height="3.29601" rx="1.64801" fill="white"/>
<rect x="40.0886" y="4.59082" width="3.29601" height="3.29601" rx="1.64801" fill="#2B2B2B"/>
<rect x="58.1245" y="4.59082" width="3.29601" height="3.29601" rx="1.64801" fill="#2B2B2B"/>
<rect x="84.0115" y="4.59082" width="3.29601" height="3.29601" rx="1.64801" fill="#2B2B2B"/>
<rect x="109.899" y="4.59082" width="3.29601" height="3.29601" rx="1.64801" fill="#2B2B2B"/>
<rect x="13.5371" y="13.5371" width="3.29601" height="3.29601" rx="1.64801" fill="#2B2B2B"/>
<rect x="40.0886" y="13.5371" width="3.29601" height="3.29601" rx="1.64801" fill="#2B2B2B"/>
<rect x="58.1245" y="13.5371" width="3.29601" height="3.29601" rx="1.64801" fill="#2B2B2B"/>
<rect x="84.0115" y="13.5371" width="3.29601" height="3.29601" rx="1.64801" fill="white"/>
<rect x="109.899" y="13.5371" width="3.29601" height="3.29601" rx="1.64801" fill="#2B2B2B"/>
<rect x="4.59082" y="9.06445" width="3.29601" height="3.29601" rx="1.64801" fill="#2B2B2B"/>
<rect x="31.1428" y="9.06445" width="3.29601" height="3.29601" rx="1.64801" fill="#2B2B2B"/>
<rect x="49.1782" y="9.06445" width="3.29601" height="3.29601" rx="1.64801" fill="white"/>
<rect x="75.0654" y="9.06445" width="3.29601" height="3.29601" rx="1.64801" fill="white"/>
<rect x="100.952" y="9.06445" width="3.29601" height="3.29601" rx="1.64801" fill="#2B2B2B"/>
<rect x="4.59082" y="18.0107" width="3.29601" height="3.41372" rx="1.64801" fill="white"/>
<rect x="31.1428" y="18.0107" width="3.29601" height="3.41372" rx="1.64801" fill="white"/>
<rect x="49.1782" y="18.0098" width="3.29601" height="3.41372" rx="1.64801" fill="white"/>
<rect x="75.0654" y="18.0098" width="3.29601" height="3.41372" rx="1.64801" fill="#2B2B2B"/>
<rect x="100.952" y="18.0098" width="3.29601" height="3.41372" rx="1.64801" fill="white"/>
<rect x="13.5371" y="9.06445" width="3.29601" height="3.29601" rx="1.64801" fill="#2B2B2B"/>
<rect x="40.0886" y="9.06445" width="3.29601" height="3.29601" rx="1.64801" fill="#2B2B2B"/>
<rect x="58.1245" y="9.06445" width="3.29601" height="3.29601" rx="1.64801" fill="white"/>
<rect x="84.0115" y="9.06445" width="3.29601" height="3.29601" rx="1.64801" fill="white"/>
<rect x="109.899" y="9.06445" width="3.29601" height="3.29601" rx="1.64801" fill="#2B2B2B"/>
<rect x="13.5371" y="18.0107" width="3.29601" height="3.41372" rx="1.64801" fill="white"/>
<rect x="40.0886" y="18.0098" width="3.29601" height="3.41372" rx="1.64801" fill="white"/>
<rect x="58.1245" y="18.0098" width="3.29601" height="3.41372" rx="1.64801" fill="white"/>
<rect x="84.0115" y="18.0098" width="3.29601" height="3.41372" rx="1.64801" fill="#2B2B2B"/>
<rect x="109.899" y="18.0098" width="3.29601" height="3.41372" rx="1.64801" fill="white"/>
<rect x="9.06396" width="3.29601" height="3.41372" rx="1.64801" fill="white"/>
<rect x="35.6157" width="3.29601" height="3.41372" rx="1.64801" fill="white"/>
<rect x="53.6511" width="3.29601" height="3.41372" rx="1.64801" fill="white"/>
<rect x="79.5383" width="3.29601" height="3.41372" rx="1.64801" fill="white"/>
<rect x="105.426" width="3.29601" height="3.41372" rx="1.64801" fill="white"/>
<rect x="18.0103" width="3.41372" height="3.41372" rx="1.70686" fill="white"/>
<rect x="62.5977" width="3.41372" height="3.41372" rx="1.70686" fill="white"/>
<rect x="88.4846" width="3.41372" height="3.41372" rx="1.70686" fill="#2B2B2B"/>
<rect x="114.372" width="3.41372" height="3.41372" rx="1.70686" fill="#2B2B2B"/>
<rect x="9.06396" y="4.59082" width="3.29601" height="3.29601" rx="1.64801" fill="#2B2B2B"/>
<rect x="35.6157" y="4.59082" width="3.29601" height="3.29601" rx="1.64801" fill="#2B2B2B"/>
<rect x="53.6511" y="4.59082" width="3.29601" height="3.29601" rx="1.64801" fill="#2B2B2B"/>
<rect x="79.5383" y="4.59082" width="3.29601" height="3.29601" rx="1.64801" fill="#2B2B2B"/>
<rect x="105.426" y="4.59082" width="3.29601" height="3.29601" rx="1.64801" fill="#2B2B2B"/>
<rect x="9.06396" y="13.5371" width="3.29601" height="3.29601" rx="1.64801" fill="#2B2B2B"/>
<rect x="35.6157" y="13.5371" width="3.29601" height="3.29601" rx="1.64801" fill="#2B2B2B"/>
<rect x="53.6511" y="13.5371" width="3.29601" height="3.29601" rx="1.64801" fill="#2B2B2B"/>
<rect x="79.5383" y="13.5371" width="3.29601" height="3.29601" rx="1.64801" fill="#2B2B2B"/>
<rect x="105.426" y="13.5371" width="3.29601" height="3.29601" rx="1.64801" fill="#2B2B2B"/>
<rect x="18.0103" y="4.59082" width="3.41372" height="3.29601" rx="1.64801" fill="#2B2B2B"/>
<rect x="62.5977" y="4.59082" width="3.41372" height="3.29601" rx="1.64801" fill="#2B2B2B"/>
<rect x="88.4846" y="4.59082" width="3.41372" height="3.29601" rx="1.64801" fill="white"/>
<rect x="114.372" y="4.59082" width="3.41372" height="3.29601" rx="1.64801" fill="white"/>
<rect x="18.0103" y="13.5371" width="3.41372" height="3.29601" rx="1.64801" fill="#2B2B2B"/>
<rect x="62.5977" y="13.5371" width="3.41372" height="3.29601" rx="1.64801" fill="#2B2B2B"/>
<rect x="88.4846" y="13.5371" width="3.41372" height="3.29601" rx="1.64801" fill="#2B2B2B"/>
<rect x="114.372" y="13.5371" width="3.41372" height="3.29601" rx="1.64801" fill="white"/>
<rect x="9.06396" y="9.06445" width="3.29601" height="3.29601" rx="1.64801" fill="white"/>
<rect x="35.6157" y="9.06445" width="3.29601" height="3.29601" rx="1.64801" fill="#2B2B2B"/>
<rect x="53.6511" y="9.06445" width="3.29601" height="3.29601" rx="1.64801" fill="white"/>
<rect x="79.5383" y="9.06445" width="3.29601" height="3.29601" rx="1.64801" fill="white"/>
<rect x="105.426" y="9.06445" width="3.29601" height="3.29601" rx="1.64801" fill="#2B2B2B"/>
<rect x="9.06396" y="18.0107" width="3.29601" height="3.41372" rx="1.64801" fill="white"/>
<rect x="35.6157" y="18.0107" width="3.29601" height="3.41372" rx="1.64801" fill="white"/>
<rect x="53.6511" y="18.0098" width="3.29601" height="3.41372" rx="1.64801" fill="white"/>
<rect x="79.5383" y="18.0098" width="3.29601" height="3.41372" rx="1.64801" fill="#2B2B2B"/>
<rect x="105.426" y="18.0098" width="3.29601" height="3.41372" rx="1.64801" fill="white"/>
<rect x="18.0103" y="9.06445" width="3.41372" height="3.29601" rx="1.64801" fill="#2B2B2B"/>
<rect x="62.5977" y="9.06445" width="3.41372" height="3.29601" rx="1.64801" fill="white"/>
<rect x="88.4846" y="9.06445" width="3.41372" height="3.29601" rx="1.64801" fill="#2B2B2B"/>
<rect x="114.372" y="9.06445" width="3.41372" height="3.29601" rx="1.64801" fill="white"/>
<rect x="18.0103" y="18.0107" width="3.41372" height="3.41372" rx="1.70686" fill="white"/>
<rect x="62.5977" y="18.0098" width="3.41372" height="3.41372" rx="1.70686" fill="white"/>
<rect x="88.4846" y="18.0098" width="3.41372" height="3.41372" rx="1.70686" fill="white"/>
<rect x="114.372" y="18.0098" width="3.41372" height="3.41372" rx="1.70686" fill="#2B2B2B"/>
</svg>
