<svg width="200" height="72" viewBox="0 0 200 72" fill="none" xmlns="http://www.w3.org/2000/svg">
<g clip-path="url(#clip0_1743_754)">
<g clip-path="url(#clip1_1743_754)">
<g clip-path="url(#clip2_1743_754)">
<mask id="mask0_1743_754" style="mask-type:luminance" maskUnits="userSpaceOnUse" x="0" y="0" width="200" height="72">
<path d="M200 0H0V72H200V0Z" fill="white"/>
</mask>
<g mask="url(#mask0_1743_754)">
<path d="M86.9897 27.4316V50.5769H81.3517V41.0484H72.5814V50.5769H66.9434V27.4316H72.5814V36.4985H81.3517V27.4316H86.9897Z" fill="#98A2B3"/>
<path d="M92.5778 30.2675C91.5886 30.2675 90.7754 29.9818 90.1382 29.4103C89.5226 28.8168 89.2148 28.0914 89.2148 27.2342C89.2148 26.355 89.5226 25.6297 90.1382 25.0581C90.7754 24.4647 91.5886 24.168 92.5778 24.168C93.545 24.168 94.3365 24.4647 94.9516 25.0581C95.5893 25.6297 95.9079 26.355 95.9079 27.2342C95.9079 28.0914 95.5893 28.8168 94.9516 29.4103C94.3365 29.9818 93.545 30.2675 92.5778 30.2675ZM95.3804 32.1798V50.5773H89.7424V32.1798H95.3804Z" fill="#98A2B3"/>
<path d="M108.4 45.7963V50.5769H105.532C103.488 50.5769 101.894 50.0822 100.751 49.0934C99.6083 48.0821 99.0369 46.4448 99.0369 44.1807V36.8612H96.7949V32.1793H99.0369V27.6953H104.675V32.1793H108.367V36.8612H104.675V44.2466C104.675 44.7963 104.807 45.1916 105.07 45.4335C105.334 45.6754 105.774 45.7963 106.389 45.7963H108.4Z" fill="#98A2B3"/>
<path d="M127.565 41.0817C127.565 41.6093 127.532 42.1589 127.466 42.7303H114.707C114.795 43.8734 115.157 44.7525 115.795 45.368C116.454 45.9615 117.256 46.2584 118.201 46.2584C119.608 46.2584 120.586 45.6646 121.136 44.4777H127.136C126.829 45.6867 126.268 46.7747 125.455 47.7418C124.664 48.7089 123.664 49.4675 122.455 50.0168C121.246 50.5664 119.894 50.8413 118.399 50.8413C116.597 50.8413 114.992 50.4563 113.586 49.6873C112.179 48.9179 111.08 47.819 110.288 46.3902C109.497 44.9614 109.102 43.2908 109.102 41.3786C109.102 39.4661 109.486 37.7958 110.256 36.367C111.047 34.9383 112.146 33.8393 113.553 33.07C114.959 32.3007 116.575 31.916 118.399 31.916C120.18 31.916 121.762 32.2897 123.147 33.037C124.532 33.7844 125.609 34.8504 126.378 36.2352C127.169 37.6199 127.565 39.2355 127.565 41.0817ZM121.795 39.5983C121.795 38.631 121.466 37.8617 120.806 37.2902C120.147 36.7187 119.322 36.433 118.334 36.433C117.388 36.433 116.586 36.7077 115.926 37.2572C115.289 37.8067 114.893 38.5871 114.74 39.5983H121.795Z" fill="#98A2B3"/>
<path d="M128.1 41.3786C128.1 39.4661 128.484 37.7958 129.254 36.367C130.045 34.9383 131.133 33.8393 132.518 33.07C133.924 32.3007 135.529 31.916 137.331 31.916C139.639 31.916 141.562 32.5205 143.101 33.7294C144.662 34.9383 145.684 36.6418 146.167 38.8398H140.167C139.661 37.4331 138.683 36.7297 137.232 36.7297C136.199 36.7297 135.375 37.1363 134.76 37.9496C134.144 38.7409 133.836 39.884 133.836 41.3786C133.836 42.8733 134.144 44.0273 134.76 44.8405C135.375 45.6316 136.199 46.0274 137.232 46.0274C138.683 46.0274 139.661 45.3243 140.167 43.9172H146.167C145.684 46.0716 144.662 47.7639 143.101 48.9946C141.54 50.2257 139.617 50.8413 137.331 50.8413C135.529 50.8413 133.924 50.4563 132.518 49.6873C131.133 48.9179 130.045 47.819 129.254 46.3902C128.484 44.9614 128.1 43.2908 128.1 41.3786Z" fill="#98A2B3"/>
<path d="M159.172 31.9816C161.282 31.9816 162.975 32.6849 164.25 34.0917C165.524 35.4764 166.162 37.3887 166.162 39.8285V50.5769H160.557V40.5867C160.557 39.356 160.238 38.3998 159.601 37.7184C158.963 37.037 158.106 36.6964 157.029 36.6964C155.952 36.6964 155.095 37.037 154.457 37.7184C153.82 38.3998 153.501 39.356 153.501 40.5867V50.5769H147.863V26.1787H153.501V34.6522C154.073 33.8389 154.853 33.1905 155.842 32.7069C156.831 32.2233 157.941 31.9816 159.172 31.9816Z" fill="#98A2B3"/>
<path d="M37.752 38.4784V18.4648H44.4246V28.7528C45.5892 28.3032 46.8548 28.0568 48.1779 28.0568C53.936 28.0568 58.6038 32.7246 58.6038 38.4827V50.5768H51.9313V38.4827C51.9313 36.4098 50.2508 34.7294 48.1779 34.7294C46.1059 34.7294 44.426 36.4083 44.4246 38.48V38.4827V50.5768H37.752V38.4827V38.4784Z" fill="#98A2B3"/>
<path d="M51.9316 25.1375V18.4648H58.604V25.1375H51.9316Z" fill="#98A2B3"/>
</g>
</g>
</g>
</g>
<defs>
<clipPath id="clip0_1743_754">
<rect width="200" height="72" fill="white"/>
</clipPath>
<clipPath id="clip1_1743_754">
<rect width="200" height="72" fill="white"/>
</clipPath>
<clipPath id="clip2_1743_754">
<rect width="200" height="72" fill="white"/>
</clipPath>
</defs>
</svg>
