<svg width="200" height="72" viewBox="0 0 200 72" fill="none" xmlns="http://www.w3.org/2000/svg">
<g clip-path="url(#clip0_1743_770)">
<g clip-path="url(#clip1_1743_770)">
<g clip-path="url(#clip2_1743_770)">
<mask id="mask0_1743_770" style="mask-type:luminance" maskUnits="userSpaceOnUse" x="0" y="0" width="200" height="72">
<path d="M200 0H0V72H200V0Z" fill="white"/>
</mask>
<g mask="url(#mask0_1743_770)">
<path d="M81.9805 25.6494H86.2923V48.8664H81.9805V25.6494Z" fill="#98A2B3"/>
<path d="M100.566 30.9561C102.799 30.9561 104.59 31.6083 105.939 32.9129C107.288 34.2175 107.962 36.1523 107.962 38.7172V48.8663H103.816V39.2481C103.816 37.7 103.451 36.5393 102.722 35.7653C101.992 34.9693 100.953 34.5713 99.6038 34.5713C98.0778 34.5713 96.8726 35.0357 95.9884 35.9643C95.1039 36.8709 94.6614 38.1867 94.6614 39.9112V48.8663H90.5156V31.1551H94.4625V33.4436C95.1481 32.6255 96.0105 32.0064 97.0498 31.5862C98.0891 31.1661 99.261 30.9561 100.566 30.9561Z" fill="#98A2B3"/>
<path d="M127.821 31.1543L120.225 48.8655H115.947L108.352 31.1543H112.663L118.169 44.2885L123.841 31.1543H127.821Z" fill="#98A2B3"/>
<path d="M144.918 40.1101C144.918 40.3979 144.896 40.8066 144.852 41.3375H130.954C131.198 42.642 131.828 43.6812 132.845 44.4553C133.884 45.2072 135.167 45.5829 136.692 45.5829C138.638 45.5829 140.241 44.9415 141.502 43.6591L143.724 46.2131C142.928 47.1639 141.922 47.8825 140.706 48.3687C139.489 48.8554 138.119 49.0986 136.593 49.0986C134.647 49.0986 132.934 48.7116 131.452 47.9379C129.971 47.1639 128.821 46.0913 128.003 44.7205C127.206 43.3276 126.809 41.7574 126.809 40.0109C126.809 38.286 127.196 36.7382 127.97 35.3673C128.765 33.9743 129.86 32.8908 131.253 32.1169C132.646 31.343 134.216 30.9561 135.963 30.9561C137.687 30.9561 139.224 31.343 140.573 32.1169C141.944 32.8687 143.005 33.9411 143.757 35.3341C144.531 36.7051 144.918 38.2972 144.918 40.1101ZM135.963 34.2728C134.636 34.2728 133.508 34.6708 132.58 35.4668C131.673 36.2407 131.12 37.2801 130.921 38.5846H140.971C140.794 37.3022 140.252 36.2628 139.346 35.4668C138.439 34.6708 137.312 34.2728 135.963 34.2728Z" fill="#98A2B3"/>
<path d="M151.189 33.7414C152.383 31.884 154.484 31.287 157.491 31.287V34.6037C157.137 34.5374 156.817 34.5042 156.529 34.5042C154.915 34.5042 153.655 35.2781 152.748 36.2289C151.842 37.1575 151.388 38.5062 151.388 40.2753V48.8655H147.242V31.1543H151.189V33.7414Z" fill="#98A2B3"/>
<path d="M171.478 47.9045C170.991 48.3023 170.395 48.6009 169.687 48.7999C169.002 48.9992 168.272 49.0985 167.498 49.0985C165.552 49.0985 164.049 48.5901 162.987 47.5729C161.926 46.5558 161.395 45.074 161.395 43.1285V34.6044H158.477V31.2876H161.395V27.2412H165.541V31.2876H170.284V34.6044H165.541V43.0289C165.541 43.8913 165.751 44.5544 166.171 45.019C166.591 45.461 167.199 45.6825 167.995 45.6825C168.924 45.6825 169.698 45.4389 170.317 44.9527L171.478 47.9045Z" fill="#98A2B3"/>
<path fill-rule="evenodd" clip-rule="evenodd" d="M71.1358 37.3257C71.1358 49.0724 61.6135 58.5947 49.8667 58.5947C38.1202 58.5947 28.5977 49.0724 28.5977 37.3257C28.5977 25.5791 38.1202 16.0566 49.8667 16.0566C61.6135 16.0566 71.1358 25.5791 71.1358 37.3257ZM64.4514 37.3257C64.4514 45.3804 57.9219 51.9099 49.8672 51.9099C49.3087 51.9099 48.7575 51.8787 48.2153 51.8178C55.5451 51.0475 61.2578 44.8478 61.2578 37.3136C61.2578 29.8174 55.6019 23.642 48.3249 22.8218C48.8317 22.7685 49.3463 22.7412 49.8672 22.7412C57.9219 22.7412 64.4514 29.2709 64.4514 37.3257ZM45.1571 47.5986C49.9639 46.7495 53.6201 42.4732 53.6201 37.3257C53.6201 32.178 49.9639 27.9016 45.1571 27.0528C45.7388 26.9521 46.337 26.8997 46.9474 26.8997C52.7055 26.8997 57.3735 31.5676 57.3735 37.3257C57.3735 43.0837 52.7055 47.7516 46.9474 47.7516C46.337 47.7516 45.7388 47.6991 45.1571 47.5986Z" fill="#98A2B3"/>
</g>
</g>
</g>
</g>
<defs>
<clipPath id="clip0_1743_770">
<rect width="200" height="72" fill="white"/>
</clipPath>
<clipPath id="clip1_1743_770">
<rect width="200" height="72" fill="white"/>
</clipPath>
<clipPath id="clip2_1743_770">
<rect width="200" height="72" fill="white"/>
</clipPath>
</defs>
</svg>
