<svg width="200" height="72" viewBox="0 0 200 72" fill="none" xmlns="http://www.w3.org/2000/svg">
<g clip-path="url(#clip0_1743_729)">
<g clip-path="url(#clip1_1743_729)">
<g clip-path="url(#clip2_1743_729)">
<path d="M24.238 54.476C34.3106 54.476 42.476 46.3106 42.476 36.238C42.476 26.1654 34.3106 18 24.238 18C14.1654 18 6 26.1654 6 36.238C6 46.3106 14.1654 54.476 24.238 54.476Z" fill="#98A2B3"/>
<path d="M24.2389 45.8645C29.555 45.8645 33.8645 41.555 33.8645 36.2389C33.8645 30.9228 29.555 26.6133 24.2389 26.6133C18.9228 26.6133 14.6133 30.9228 14.6133 36.2389C14.6133 41.555 18.9228 45.8645 24.2389 45.8645Z" fill="#98A2B3" stroke="#040403" stroke-width="5.06612"/>
<path d="M63.5317 45.6409C69.9718 45.6409 73.8585 41.7826 73.8585 35.8532C73.8585 29.9238 69.9718 26.0654 63.5317 26.0654C57.2335 26.0654 53.3184 29.9238 53.3184 35.8532C53.3184 41.7826 57.2335 45.6409 63.5317 45.6409ZM63.5317 41.5556C59.3613 41.5556 57.8293 40.0803 57.8293 35.8532C57.8293 31.626 59.3613 30.1507 63.5317 30.1507C67.7021 30.1507 69.3193 31.626 69.3193 35.8532C69.3193 40.0803 67.7021 41.5556 63.5317 41.5556Z" fill="#98A2B3"/>
<path d="M85.4456 45.6409C91.375 45.6409 95.1483 42.6904 95.1483 37.8675V37.4419H90.4104V37.8675C90.4104 40.364 88.9919 41.5556 85.5307 41.5556C81.3603 41.5556 79.7999 40.0803 79.7999 35.8532C79.7999 31.626 81.3603 30.1507 85.5307 30.1507C88.9919 30.1507 90.4104 31.3423 90.4104 33.8389V34.2644H95.1483V33.8389C95.1483 29.0159 91.3466 26.0654 85.4456 26.0654C79.1758 26.0654 75.2891 29.9238 75.2891 35.8532C75.2891 41.7826 79.1758 45.6409 85.4456 45.6409Z" fill="#98A2B3"/>
<path d="M107.574 45.3567V30.1786H114.638V26.3486H96.2539V30.1786H103.318V45.3567H107.574Z" fill="#98A2B3"/>
<path d="M125.952 45.6409C132.392 45.6409 136.278 41.7826 136.278 35.8532C136.278 29.9238 132.392 26.0654 125.952 26.0654C119.653 26.0654 115.738 29.9238 115.738 35.8532C115.738 41.7826 119.653 45.6409 125.952 45.6409ZM125.952 41.5556C121.781 41.5556 120.249 40.0803 120.249 35.8532C120.249 31.626 121.781 30.1507 125.952 30.1507C130.122 30.1507 131.739 31.626 131.739 35.8532C131.739 40.0803 130.122 41.5556 125.952 41.5556Z" fill="#98A2B3"/>
<path d="M142.389 45.3567V40.1082H148.063C152.46 40.1082 155.297 37.5833 155.297 33.2142C155.297 28.8452 152.46 26.3486 148.063 26.3486H138.133V45.3567H142.389ZM147.609 30.1786C149.964 30.1786 151.07 30.8879 151.07 33.2142C151.07 35.5973 149.964 36.2782 147.609 36.2782H142.389V30.1786H147.609Z" fill="#98A2B3"/>
<path d="M166 45.6404C172.213 45.6404 175.333 42.5197 175.333 37.413V26.3486H171.078V37.101C171.078 40.3352 169.886 41.4984 166 41.4984C162.141 41.4984 160.921 40.3352 160.921 37.101V26.3486H156.666V37.413C156.666 42.5197 159.815 45.6404 166 45.6404Z" fill="#98A2B3"/>
<path d="M186.101 45.6409C192.144 45.6409 194.555 42.8606 194.555 39.7683C194.555 37.1582 193.024 35.0872 188.768 34.4063L183.435 33.5552C181.846 33.2715 181.221 32.8743 181.221 31.7679C181.221 30.5479 182.157 29.9522 185.221 29.9522C188.994 29.9522 189.93 30.7182 189.93 32.5339V32.931H194.215V32.7608C194.215 28.7606 191.491 26.0654 185.646 26.0654C179.263 26.0654 176.938 29.0727 176.938 31.9381C176.938 35.0304 178.951 36.7327 182.355 37.2717L187.689 38.0377C189.647 38.3781 190.299 38.8037 190.299 39.9669C190.299 41.2435 189.506 41.7542 186.101 41.7542C182.243 41.7542 181.363 41.0449 181.363 39.286V38.7753H177.107V38.9455C177.107 43.3713 180.342 45.6409 186.101 45.6409Z" fill="#98A2B3"/>
</g>
</g>
</g>
<defs>
<clipPath id="clip0_1743_729">
<rect width="200" height="72" fill="white"/>
</clipPath>
<clipPath id="clip1_1743_729">
<rect width="200" height="72" fill="white"/>
</clipPath>
<clipPath id="clip2_1743_729">
<rect width="200" height="72" fill="white"/>
</clipPath>
</defs>
</svg>
