<svg width="200" height="72" viewBox="0 0 200 72" fill="none" xmlns="http://www.w3.org/2000/svg">
<g clip-path="url(#clip0_1743_785)">
<g clip-path="url(#clip1_1743_785)">
<g clip-path="url(#clip2_1743_785)">
<mask id="mask0_1743_785" style="mask-type:luminance" maskUnits="userSpaceOnUse" x="0" y="0" width="200" height="72">
<path d="M200 0H0V72H200V0Z" fill="white"/>
</mask>
<g mask="url(#mask0_1743_785)">
<path d="M82.3589 47.5818C81.8626 47.1564 81.5778 46.7106 81.5515 46.2423L82.3589 47.5818ZM82.3589 47.5818L82.3614 47.5839C82.901 48.0255 83.6613 48.2361 84.6221 48.2361H86.7249H86.8654V48.0956V47.8199V47.6794H86.7249H85.6689L85.3023 47.6127L85.2957 47.6114L85.2886 47.611C85.07 47.5927 84.827 47.4446 84.5625 47.1156C84.334 46.7803 84.2109 46.2969 84.2109 45.648V34.858C84.2109 33.7074 83.917 32.7546 83.3181 32.0118L83.3164 32.0096C82.9244 31.5441 82.3097 31.2 81.4914 30.9659C80.6911 30.7073 79.6527 30.5806 78.3824 30.5806C77.0829 30.5806 75.8914 31.0303 74.8117 31.9222C73.9484 32.6168 73.2991 33.3611 72.8695 34.1561V30.8591V30.7185H72.7286H70.3156H70.1751V30.8591V48.0956V48.2361H70.3156H72.7286H72.8695V48.0956V35.8577C72.8695 34.9968 73.4209 33.9973 74.5852 32.8555L74.5865 32.8545C75.7359 31.7052 77.0224 31.1376 78.4512 31.1376C79.1481 31.1376 79.7223 31.2498 80.1803 31.4672C81.0494 31.9354 81.5169 33.024 81.5169 34.8235V45.648V45.6522V45.6563L81.5515 46.2423L82.3589 47.5818ZM68.0019 25.5435L68.1316 25.5933L68.1829 25.4645L68.3209 25.1198L68.3764 24.9813L68.235 24.9342C65.8775 24.1484 63.5529 23.7549 61.2612 23.7549C58.9896 23.7549 57.2602 24.2877 56.0979 25.3782C54.9402 26.4417 54.3638 27.8366 54.3638 29.5491C54.3638 31.7098 55.2601 33.3858 57.0462 34.5613C57.8344 35.0943 58.7027 35.5804 59.6506 36.0198L59.6536 36.0209C60.5961 36.4348 61.5273 36.8372 62.4473 37.2281L62.4486 37.2286C63.3852 37.6172 64.2414 38.0395 65.0163 38.4954C66.7257 39.5075 67.5673 40.9005 67.5673 42.6833C67.5673 44.3164 66.9221 45.5462 65.6314 46.392C64.3486 47.2248 62.7905 47.6448 60.951 47.6448C59.7015 47.6448 58.4746 47.4634 57.2702 47.0997C56.087 46.7127 55.1266 46.2256 54.3847 45.6409L54.2617 45.5442L54.1783 45.6772L54.006 45.9529L53.9355 46.0659L54.0444 46.1426C56.0712 47.5635 58.5138 48.2708 61.3647 48.2708C62.8915 48.2708 64.2277 48.0973 65.3703 47.7474L65.372 47.747C66.5493 47.3704 67.549 46.6635 68.3693 45.6322C69.1954 44.5937 69.6066 43.3439 69.6066 41.8905C69.6066 40.4287 69.3631 39.2207 68.8668 38.2749C68.3747 37.3146 67.7279 36.5603 66.9246 36.017C66.1356 35.4833 65.2665 35.0082 64.3169 34.5914C63.3719 34.1764 62.4265 33.8075 61.481 33.4846C60.5669 33.1417 59.7224 32.7764 58.9467 32.3887C57.2372 31.4886 56.4032 30.2331 56.4032 28.6183C56.4032 27.2802 56.9024 26.2429 57.8987 25.49C58.9 24.7333 60.3025 24.3463 62.1233 24.3463C63.9641 24.3463 65.9238 24.7441 68.0019 25.5435ZM87.6019 33.0004C86.0063 34.6194 85.2168 36.8891 85.2168 39.7877C85.2168 42.6837 85.9817 44.8544 87.5381 46.2694C89.0853 47.6756 91.0858 48.3742 93.5276 48.3742C95.9969 48.3742 98.0337 47.5689 99.6256 45.9541C101.245 44.3352 102.046 42.066 102.046 39.1672C102.046 36.2711 101.281 34.1004 99.724 32.6855C98.1763 31.2788 96.1641 30.5806 93.6998 30.5806C91.2527 30.5806 89.2162 31.3861 87.6019 33.0004ZM89.5378 33.4252L89.5386 33.4244C90.6646 31.8931 92.0722 31.1376 93.7687 31.1376C95.4739 31.1376 96.8347 31.7855 97.8644 33.0838C98.8928 34.3805 99.4195 36.3994 99.4195 39.1672C99.4195 41.9069 98.8486 44.0341 97.7239 45.5642C96.5984 47.0726 95.1903 47.8174 93.493 47.8174C91.7881 47.8174 90.4269 47.1694 89.3972 45.8711C88.3688 44.5741 87.8421 42.5665 87.8421 39.8221C87.8421 37.0585 88.4134 34.932 89.5378 33.4252ZM125.533 30.9665L125.431 31.0692L125.537 31.1685C125.868 31.4788 126.044 31.942 126.044 32.5827C126.044 33.2296 125.91 33.7791 125.648 34.2366L125.646 34.2419L125.643 34.2475L120.787 44.7643L115.63 30.8104L115.596 30.7185H115.498H113.085H112.883L112.953 30.9074L114.208 34.3348L109.41 44.7639L104.254 30.8104L104.219 30.7185H104.121H101.708H101.506L101.577 30.9081L107.989 48.1448L108.023 48.2361H108.12H108.465H108.556L108.593 48.154L114.519 35.1228L119.365 48.1448L119.399 48.2361H119.497H119.841H119.932L119.969 48.154L126.244 34.3647L126.245 34.3618C126.527 33.703 126.67 33.0522 126.67 32.4104C126.67 32.2386 126.646 32.0573 126.599 31.8672C126.57 31.6556 126.466 31.4313 126.302 31.1962C126.232 31.0797 126.166 30.9826 126.103 30.9069C126.041 30.8326 125.974 30.7692 125.902 30.7333L125.812 30.688L125.74 30.7596L125.533 30.9665Z" fill="#98A2B3"/>
<path d="M82.3589 47.5818C81.8626 47.1564 81.5778 46.7106 81.5515 46.2423M82.3589 47.5818L81.5515 46.2423M82.3589 47.5818L82.3614 47.5839C82.901 48.0255 83.6613 48.2361 84.6221 48.2361H86.7249H86.8654V48.0956V47.8199V47.6794H86.7249H85.6689L85.3023 47.6127L85.2957 47.6114L85.2886 47.611C85.07 47.5927 84.8269 47.4446 84.5625 47.1156C84.334 46.7803 84.2109 46.2969 84.2109 45.648V34.858C84.2109 33.7074 83.9169 32.7546 83.3181 32.0118L83.3164 32.0096C82.9244 31.5441 82.3097 31.2 81.4914 30.9659C80.6911 30.7073 79.6527 30.5806 78.3824 30.5806C77.0829 30.5806 75.8914 31.0303 74.8117 31.9222C73.9484 32.6168 73.2991 33.3611 72.8695 34.1561V30.8591V30.7185H72.7286H70.3156H70.1751V30.8591V48.0956V48.2361H70.3156H72.7286H72.8695V48.0956V35.8577C72.8695 34.9968 73.4209 33.9973 74.5852 32.8555L74.5865 32.8545C75.7359 31.7052 77.0224 31.1376 78.4512 31.1376C79.1481 31.1376 79.7223 31.2498 80.1803 31.4672C81.0494 31.9354 81.5169 33.024 81.5169 34.8235V45.648V45.6522V45.6563L81.5515 46.2423M68.0019 25.5435L68.1316 25.5933L68.1829 25.4645L68.3209 25.1198L68.3764 24.9813L68.235 24.9342C65.8775 24.1484 63.5529 23.7549 61.2612 23.7549C58.9896 23.7549 57.2602 24.2877 56.0979 25.3782C54.9402 26.4417 54.3638 27.8366 54.3638 29.5491C54.3638 31.7098 55.2601 33.3858 57.0462 34.5613C57.8344 35.0943 58.7027 35.5804 59.6506 36.0198L59.6536 36.0209C60.5961 36.4348 61.5273 36.8372 62.4473 37.2281L62.4486 37.2286C63.3852 37.6172 64.2414 38.0395 65.0163 38.4954C66.7257 39.5075 67.5673 40.9005 67.5673 42.6833C67.5673 44.3164 66.9221 45.5462 65.6314 46.392C64.3486 47.2248 62.7905 47.6448 60.951 47.6448C59.7015 47.6448 58.4746 47.4634 57.2702 47.0997C56.087 46.7127 55.1266 46.2256 54.3847 45.6409L54.2617 45.5442L54.1783 45.6772L54.006 45.9529L53.9355 46.0659L54.0444 46.1426C56.0712 47.5635 58.5138 48.2708 61.3647 48.2708C62.8915 48.2708 64.2277 48.0973 65.3703 47.7474L65.372 47.747C66.5493 47.3704 67.549 46.6635 68.3693 45.6322C69.1954 44.5937 69.6066 43.3439 69.6066 41.8905C69.6066 40.4287 69.3631 39.2207 68.8668 38.2749C68.3747 37.3146 67.7279 36.5603 66.9246 36.017C66.1356 35.4833 65.2665 35.0082 64.3169 34.5914C63.3719 34.1764 62.4265 33.8075 61.481 33.4846C60.5669 33.1417 59.7224 32.7764 58.9467 32.3887C57.2372 31.4886 56.4032 30.2331 56.4032 28.6183C56.4032 27.2802 56.9024 26.2429 57.8987 25.49C58.9 24.7333 60.3025 24.3463 62.1233 24.3463C63.9641 24.3463 65.9238 24.7441 68.0019 25.5435ZM87.6019 33.0004C86.0063 34.6194 85.2168 36.8891 85.2168 39.7877C85.2168 42.6837 85.9817 44.8544 87.5381 46.2694C89.0853 47.6756 91.0858 48.3742 93.5276 48.3742C95.9969 48.3742 98.0337 47.5689 99.6256 45.9541C101.245 44.3352 102.046 42.066 102.046 39.1672C102.046 36.2711 101.281 34.1004 99.724 32.6855C98.1763 31.2788 96.1641 30.5806 93.6998 30.5806C91.2527 30.5806 89.2162 31.3861 87.6019 33.0004ZM89.5378 33.4252L89.5386 33.4244C90.6646 31.8931 92.0721 31.1376 93.7687 31.1376C95.4739 31.1376 96.8347 31.7855 97.8644 33.0838C98.8928 34.3805 99.4195 36.3994 99.4195 39.1672C99.4195 41.9069 98.8486 44.0341 97.7239 45.5642C96.5983 47.0726 95.1903 47.8174 93.493 47.8174C91.7881 47.8174 90.4269 47.1694 89.3972 45.8711C88.3688 44.5741 87.8421 42.5665 87.8421 39.8221C87.8421 37.0585 88.4134 34.932 89.5378 33.4252ZM125.533 30.9665L125.431 31.0692L125.537 31.1685C125.868 31.4788 126.044 31.942 126.044 32.5827C126.044 33.2296 125.91 33.7791 125.648 34.2366L125.646 34.2419L125.643 34.2475L120.787 44.7643L115.63 30.8104L115.596 30.7185H115.498H113.085H112.883L112.953 30.9074L114.208 34.3348L109.41 44.7639L104.254 30.8104L104.219 30.7185H104.121H101.708H101.506L101.577 30.9081L107.989 48.1448L108.023 48.2361H108.12H108.465H108.556L108.593 48.154L114.519 35.1228L119.365 48.1448L119.399 48.2361H119.497H119.841H119.932L119.969 48.154L126.244 34.3647L126.245 34.3618C126.527 33.703 126.67 33.0522 126.67 32.4104C126.67 32.2386 126.646 32.0573 126.599 31.8672C126.57 31.6556 126.466 31.4313 126.302 31.1962C126.232 31.0797 126.166 30.9826 126.103 30.9069C126.041 30.8326 125.974 30.7692 125.902 30.7333L125.812 30.688L125.74 30.7596L125.533 30.9665Z" stroke="#98A2B3" stroke-width="0.281209"/>
<path d="M132.009 24.2134C132.656 23.2217 133.706 22.4535 135.162 22.3855L134.858 45.8876V45.8893C134.858 46.102 134.924 46.3305 135.045 46.5728C135.611 47.7051 136.961 48.2359 138.997 48.2359H140.066H140.207V48.0954V47.8197V47.6792H140.066H139.01L138.643 47.6125L138.637 47.6112L138.63 47.6108C138.411 47.5925 138.168 47.4444 137.904 47.1154C137.675 46.7801 137.552 46.2967 137.552 45.6478V22.275V22.1367L137.414 22.1344L135.307 22.1L135.166 22.0977V22.1018C132.807 22.1443 131.062 22.699 129.966 23.7953C128.846 24.8919 128.304 26.7198 128.304 29.2386V30.7183H127.721H127.58V30.8589V31.4159V31.5565H127.721H128.304V48.0954V48.2359H128.445H130.858H130.998V48.0954V31.5565H133.581H133.721V31.4159V30.8589V30.7183H133.581H130.998V29.2386C130.998 26.878 131.343 25.2128 132.009 24.2146V24.2134ZM150.366 39.6688C149.896 39.6311 149.38 39.6124 148.818 39.6124C148.193 39.6124 147.511 39.6471 146.773 39.7162C145.286 39.8085 144.056 39.9817 143.085 40.2375C142.116 40.4929 141.392 40.834 140.93 41.2712C140.486 41.6918 140.2 42.0929 140.098 42.4746C140.003 42.829 139.955 43.1631 139.955 43.4763C139.955 43.7594 139.979 44.0426 140.026 44.3254C140.225 45.6603 140.747 46.6787 141.603 47.361C142.457 48.042 143.627 48.374 145.094 48.374C146.355 48.374 147.452 48.1142 148.379 47.5887C149.17 47.14 149.832 46.5011 150.366 45.6753V45.8893C150.366 46.3188 150.669 46.7905 151.2 47.2989C151.818 47.9386 152.937 48.2359 154.506 48.2359H155.574H155.715V48.0954V47.8197V47.6792H155.574H154.518L154.152 47.6125L154.145 47.6112L154.138 47.6108C153.919 47.5925 153.677 47.4444 153.412 47.1154C153.183 46.7801 153.06 46.2967 153.06 45.6478V34.0994C153.06 33.3222 152.744 32.5892 152.129 31.9029C151.725 31.4506 151.117 31.1211 150.32 30.9042C149.522 30.6872 148.526 30.5804 147.335 30.5804C145.199 30.5804 143.099 31.0565 141.037 32.0067L140.897 32.0709L140.974 32.2042L141.111 32.4455L141.181 32.567L141.303 32.4981C141.815 32.2084 142.629 31.9133 143.752 31.6153L143.753 31.6148C144.895 31.2952 145.881 31.1374 146.715 31.1374C147.554 31.1374 148.223 31.2511 148.727 31.4705L148.732 31.4725C149.248 31.6744 149.586 31.9138 149.771 32.18C149.971 32.4692 150.126 32.7685 150.237 33.078L150.239 33.0839L150.241 33.0896C150.373 33.374 150.406 33.5929 150.37 33.7569C150.346 33.8516 150.332 33.936 150.332 34.0046C150.332 34.039 150.335 34.0779 150.349 34.1151C150.353 34.1271 150.359 34.1396 150.366 34.152V39.6688ZM142.718 44.2916V44.2895C142.695 44.063 142.684 43.8612 142.684 43.6831C142.684 42.6964 142.942 41.9411 143.44 41.3995C143.682 41.1363 144.074 40.9048 144.632 40.7133C145.188 40.5224 145.898 40.3746 146.765 40.2719C147.38 40.2036 147.996 40.1694 148.611 40.1694C149.206 40.1694 149.791 40.1891 150.366 40.2287V44.2628C150.3 44.988 149.805 45.7708 148.829 46.6099C147.889 47.4165 146.829 47.8172 145.646 47.8172C144.761 47.8172 144.088 47.5257 143.608 46.9535C143.123 46.3759 142.82 45.4952 142.718 44.2916ZM158.646 22.2405V22.1H158.505H156.092H155.952V22.2405V48.0954V48.2359H156.092H158.505H158.646V48.0954V39.8401L159.422 38.9486L165.697 48.1746L165.739 48.2359H165.814H168.227H168.492L168.343 48.0166L160.993 37.2133L166.54 30.9521L166.747 30.7183H166.434H166.09H166.027L165.984 30.7656L158.646 39.0379V22.2405ZM181.749 46.8681L181.695 46.7438L181.569 46.7922C179.795 47.4744 177.767 47.8172 175.483 47.8172C173.897 47.8172 172.617 47.1725 171.631 45.8738C170.67 44.5768 170.177 42.5227 170.177 39.684C170.177 39.0671 170.207 38.4705 170.266 37.8942H182.447H182.587V37.7535V37.7522V37.7509V37.7495V37.7482V37.7468V37.7454V37.7441V37.7428V37.7414V37.7401V37.7387V37.7374V37.736V37.7347V37.7333V37.732V37.7306V37.7293V37.728V37.7266V37.7253V37.7239V37.7226V37.7212V37.7199V37.7185V37.7172V37.7158V37.7145V37.7131V37.7118V37.7105V37.7091V37.7077V37.7064V37.7051V37.7037V37.7024V37.701V37.6997V37.6983V37.697V37.6956V37.6943V37.6929V37.6916V37.6903V37.6889V37.6876V37.6862V37.6848V37.6835V37.6822V37.6808V37.6795V37.6781V37.6768V37.6754V37.6741V37.6728V37.6714V37.67V37.6687V37.6674V37.666V37.6647V37.6633V37.6619V37.6606V37.6593V37.6579V37.6566V37.6552V37.6539V37.6525V37.6512V37.6499V37.6485V37.6471V37.6458V37.6445V37.6431V37.6418V37.6404V37.6391V37.6377V37.6364V37.635V37.6337V37.6323V37.631V37.6297V37.6283V37.627V37.6256V37.6242V37.6229V37.6216V37.6202V37.6189V37.6175V37.6162V37.6148V37.6135V37.6122V37.6108V37.6094V37.6081V37.6068V37.6054V37.6041V37.6027V37.6014V37.6V37.5987V37.5973V37.596V37.5946V37.5933V37.5919V37.5906V37.5893V37.5879V37.5865V37.5852V37.5839V37.5825V37.5812V37.5798V37.5785V37.5771V37.5758V37.5745V37.5731V37.5717V37.5704V37.569V37.5677V37.5664V37.565V37.5637V37.5623V37.561V37.5596V37.5583V37.5569V37.5556V37.5542V37.5529V37.5516V37.5502V37.5488V37.5475V37.5462V37.5448V37.5435V37.5421V37.5408V37.5394V37.5381V37.5368V37.5354V37.534V37.5327V37.5313V37.53V37.5287V37.5273V37.526V37.5246V37.5233V37.5219V37.5206V37.5192V37.5179V37.5165V37.5152V37.5139V37.5125V37.5111V37.5098V37.5084V37.5071V37.5058V37.5044V37.5031V37.5017V37.5004V37.499V37.4977V37.4963V37.495V37.4936V37.4923V37.491V37.4896V37.4883V37.4869V37.4856V37.4842V37.4829V37.4815V37.4802V37.4788V37.4775V37.4762V37.4748V37.4734V37.4721V37.4707V37.4694V37.4681V37.4667V37.4654V37.464V37.4627V37.4613V37.46V37.4586V37.4573V37.4559V37.4546V37.4533V37.4519V37.4506V37.4492V37.4478V37.4465V37.4452V37.4438V37.4425V37.4411V37.4398V37.4384V37.4371V37.4357V37.4344V37.433V37.4317V37.4304V37.429V37.4277V37.4263V37.4249V37.4236V37.4223V37.4209V37.4196V37.4182V37.4169V37.4155V37.4142V37.4129V37.4115V37.4101V37.4088C182.587 35.1745 181.935 33.4645 180.609 32.3044C179.293 31.1535 177.674 30.5804 175.759 30.5804C173.379 30.5804 171.411 31.3869 169.866 33.0024C168.317 34.6217 167.551 36.8901 167.551 39.7875C167.551 42.6818 168.281 44.8517 169.767 46.2667C171.245 47.6746 173.155 48.374 175.483 48.374C177.819 48.374 179.916 48.0157 181.774 47.2959L181.909 47.2434L181.852 47.1095L181.749 46.8681ZM178.716 32.6692C179.498 33.6686 179.92 35.2166 179.96 37.3372H170.336C170.621 35.4102 171.249 33.9063 172.21 32.8139C173.222 31.689 174.358 31.1374 175.621 31.1374C176.886 31.1374 177.915 31.6451 178.716 32.6692Z" fill="#98A2B3" stroke="#98A2B3" stroke-width="0.281209"/>
<path d="M185.628 21.8789V22.7896H184.593V25.5605H183.61V22.7896H182.574V21.8789H185.628Z" fill="#98A2B3"/>
<path d="M189.663 21.8232V25.5766H188.68V23.7551L187.96 24.6107H187.666L186.946 23.7551V25.5766H185.963V21.8232H186.31L187.813 23.424L189.316 21.8232H189.663Z" fill="#98A2B3"/>
<path fill-rule="evenodd" clip-rule="evenodd" d="M27.2183 42.0989L27.2033 53.9356L29.7055 53.939L29.7206 42.0469L34.2852 53.0282L36.5957 52.0677L32.0625 41.1619L40.4028 49.5238L42.1744 47.7564L33.7983 39.3589L44.7534 43.9054L45.7121 41.5942L34.756 37.0472H46.6184V34.545H34.7845L45.7226 30.0276L44.7671 27.7148L33.876 32.2129L42.2507 23.9237L40.4908 22.1453L32.0118 30.5373L36.5811 19.5173L34.2695 18.5589L29.7365 29.492L29.7515 17.6565L27.2493 17.6533L27.2342 29.5464L22.6691 18.5643L20.3586 19.5247L24.8914 30.4294L16.5516 22.0684L14.78 23.8355L23.1564 32.2332L12.2012 27.6866L11.2421 29.9977L22.1989 34.545H10.3359V37.0472H22.1707L11.2323 41.5648L12.1874 43.8775L23.0782 39.3797L14.7035 47.6688L16.4638 49.447L24.9422 41.0554L20.3734 52.0748L22.6848 53.0332L27.2183 42.0989Z" fill="#98A2B3"/>
</g>
</g>
</g>
</g>
<defs>
<clipPath id="clip0_1743_785">
<rect width="200" height="72" fill="white"/>
</clipPath>
<clipPath id="clip1_1743_785">
<rect width="200" height="72" fill="white"/>
</clipPath>
<clipPath id="clip2_1743_785">
<rect width="200" height="72" fill="white"/>
</clipPath>
</defs>
</svg>
