<svg width="20" height="21" viewBox="0 0 20 21" fill="none" xmlns="http://www.w3.org/2000/svg">
<path fill-rule="evenodd" clip-rule="evenodd" d="M0.50747 4.30783C0 5.53297 0 7.08611 0 10.1924C0 13.2987 0 14.8518 0.50747 16.0769C1.1841 17.7105 2.48192 19.0083 4.11544 19.6849C5.34058 20.1924 6.89371 20.1924 9.99997 20.1924H10H10C13.1063 20.1924 14.6594 20.1924 15.8846 19.6849C17.5181 19.0083 18.8159 17.7105 19.4925 16.0769C20 14.8518 20 13.2987 20 10.1924V10.1924V10.1923C20 7.08609 20 5.53296 19.4925 4.30783C18.8159 2.67431 17.5181 1.37648 15.8846 0.699853C14.6594 0.192383 13.1063 0.192383 10 0.192383C6.89372 0.192383 5.34058 0.192383 4.11544 0.699853C2.48192 1.37648 1.1841 2.67431 0.50747 4.30783ZM13.8817 8.51019C14.184 8.22697 14.1994 7.75235 13.9162 7.45009C13.633 7.14782 13.1584 7.13238 12.8561 7.41559L8.60122 11.4023L7.13341 10.0679C6.82692 9.7893 6.35258 9.81189 6.07395 10.1184C5.79532 10.4249 5.81791 10.8992 6.1244 11.1778L8.1044 12.9778C8.39367 13.2408 8.83643 13.2375 9.12171 12.9702L13.8817 8.51019Z" fill="#DAA737"/>
</svg>
