<svg width="130" height="36" viewBox="0 0 130 36" fill="none" xmlns="http://www.w3.org/2000/svg">
<path d="M4.33376 31.9242L1.08008 29.9536V34.0964C1.08008 34.6487 1.52779 35.0964 2.08008 35.0964H128.08C128.632 35.0964 129.08 34.6487 129.08 34.0964V18.1679L127.064 22.564C126.969 22.77 126.808 22.9378 126.605 23.0399L124 24.355C123.476 24.6192 122.839 24.3783 122.621 23.8339L119.818 16.832C119.666 16.4524 119.299 16.2036 118.89 16.2036H116.805C116.386 16.2036 116.011 15.9418 115.867 15.548L114.511 11.8524C114.253 11.1491 113.341 10.9688 112.835 11.5209L112.08 12.3438C111.891 12.5503 111.623 12.6679 111.343 12.6679H105.207C104.985 12.6679 104.769 12.5936 104.593 12.4569L102.724 11.0017C102.252 10.6339 101.564 10.7607 101.254 11.2728L98.1425 16.413C97.7109 17.1259 96.6479 17.0291 96.3521 16.25L92.8871 7.12104C92.8023 6.89775 92.6405 6.71217 92.4308 6.59787L88.727 4.57895C88.5352 4.47444 88.3146 4.43556 88.0986 4.46825L83.8282 5.11486C83.4669 5.16957 83.1045 5.02287 82.8831 4.73225L80.138 1.13007C79.7402 0.607988 78.9557 0.604307 78.553 1.12263L74.9999 5.69556C74.5847 6.22986 73.7699 6.20624 73.3864 5.64879L72.8481 4.86633C72.4439 4.27887 71.5724 4.29107 71.1848 4.88961L68.6188 8.85257C68.1998 9.49969 67.2371 9.44931 66.8879 8.76199L63.4595 2.01369C63.0743 1.2555 61.9786 1.29363 61.6471 2.07676L58.4195 9.70058C58.2629 10.0704 57.9002 10.3107 57.4986 10.3107H55.7824C55.388 10.3107 55.0305 10.5425 54.8695 10.9025L49.598 22.691C49.5416 22.8171 49.4597 22.9301 49.3575 23.0229L43.2228 28.5962C42.86 28.9258 42.3118 28.9439 41.9281 28.6389L39.5338 26.7356C39.2828 26.536 38.9512 26.469 38.6424 26.5553L34.1034 27.8241C33.7409 27.9255 33.466 28.2218 33.3921 28.5909L32.8085 31.507C32.715 31.9743 32.3046 32.3107 31.828 32.3107H28.3428C28.0555 32.3107 27.7821 32.1872 27.5923 31.9716L23.4162 27.2293C23.031 26.7918 22.3546 26.7753 21.9484 27.1935L16.8431 32.45C16.4863 32.8173 15.9095 32.8558 15.5071 32.5389L10.3935 28.5127C10.0098 28.2106 9.46396 28.2298 9.10247 28.5582L5.52423 31.809C5.19663 32.1066 4.71235 32.1535 4.33376 31.9242Z" fill="url(#paint0_linear_1743_693)" fill-opacity="0.08"/>
<path d="M1.08008 29.9536L4.33376 31.9242C4.71235 32.1535 5.19663 32.1066 5.52423 31.809L9.10247 28.5582C9.46396 28.2298 10.0098 28.2106 10.3935 28.5127L15.5071 32.5389C15.9095 32.8558 16.4863 32.8174 16.8431 32.45L21.9484 27.1935C22.3546 26.7753 23.031 26.7918 23.4162 27.2293L27.5923 31.9716C27.7821 32.1872 28.0555 32.3107 28.3428 32.3107H31.828C32.3046 32.3107 32.715 31.9743 32.8085 31.507L33.3921 28.5909C33.466 28.2218 33.7409 27.9255 34.1034 27.8241L38.6424 26.5553C38.9512 26.469 39.2828 26.536 39.5338 26.7356L41.9281 28.6389C42.3118 28.9439 42.86 28.9258 43.2228 28.5962L49.3575 23.0229C49.4597 22.9301 49.5416 22.8171 49.598 22.691L54.8695 10.9025C55.0305 10.5425 55.388 10.3107 55.7824 10.3107H57.4986C57.9002 10.3107 58.2629 10.0704 58.4195 9.70058L61.6471 2.07676C61.9786 1.29363 63.0743 1.2555 63.4595 2.01369L66.8879 8.76199C67.237 9.44931 68.1998 9.49969 68.6188 8.85257L71.1848 4.88961C71.5724 4.29107 72.4439 4.27887 72.8481 4.86633L73.3864 5.64879C73.7699 6.20624 74.5847 6.22986 74.9999 5.69556L78.553 1.12264C78.9557 0.604308 79.7402 0.607989 80.138 1.13007L82.8831 4.73225C83.1045 5.02287 83.4669 5.16957 83.8282 5.11486L88.0986 4.46825C88.3146 4.43556 88.5352 4.47444 88.727 4.57895L92.4308 6.59787C92.6405 6.71217 92.8023 6.89775 92.8871 7.12104L96.3521 16.25C96.6478 17.0291 97.7109 17.1259 98.1425 16.413L101.254 11.2728C101.564 10.7607 102.252 10.6339 102.724 11.0017L104.593 12.4569C104.769 12.5936 104.985 12.6679 105.207 12.6679H111.343C111.623 12.6679 111.891 12.5503 112.08 12.3438L112.835 11.5209C113.341 10.9688 114.253 11.1491 114.511 11.8524L115.867 15.548C116.011 15.9418 116.386 16.2036 116.805 16.2036H118.89C119.299 16.2036 119.666 16.4524 119.818 16.832L122.621 23.8339C122.839 24.3783 123.476 24.6192 124 24.355L126.531 23.0776C126.778 22.9529 126.962 22.7314 127.04 22.4657L128.318 18.0964" stroke="url(#paint1_linear_1743_693)" stroke-linecap="round"/>
<defs>
<linearGradient id="paint0_linear_1743_693" x1="71.1058" y1="35.0964" x2="71.1058" y2="12.4533" gradientUnits="userSpaceOnUse">
<stop stop-color="#E3C061" stop-opacity="0"/>
<stop offset="1" stop-color="#FFC936"/>
</linearGradient>
<linearGradient id="paint1_linear_1743_693" x1="1.08008" y1="0.793619" x2="13.7351" y2="60.8536" gradientUnits="userSpaceOnUse">
<stop stop-color="#8F5F25"/>
<stop offset="0.483738" stop-color="#FCE38F"/>
<stop offset="1" stop-color="#8F5F25"/>
</linearGradient>
</defs>
</svg>
