<svg width="24" height="24" viewBox="0 0 24 24" fill="none" xmlns="http://www.w3.org/2000/svg">
<g clip-path="url(#clip0_1743_1004)">
<path d="M12 24C18.6274 24 24 18.6274 24 12C24 5.37258 18.6274 0 12 0C5.37258 0 0 5.37258 0 12C0 18.6274 5.37258 24 12 24Z" fill="url(#paint0_linear_1743_1004)"/>
<path fill-rule="evenodd" clip-rule="evenodd" d="M5.42498 11.8784C8.92303 10.3445 11.2613 9.35308 12.4398 8.86672C15.7695 7.48246 16.4616 7.23928 16.9106 7.22057C17.0041 7.22057 17.2286 7.23928 17.3782 7.35152C17.4905 7.44505 17.5279 7.57599 17.5466 7.66952C17.5653 7.76305 17.584 7.96882 17.5653 8.13718C17.3782 10.0265 16.6113 14.6469 16.1997 16.7607C16.0314 17.6586 15.6947 17.9579 15.3767 17.9953C14.6845 18.0514 14.1421 17.5277 13.4686 17.0974C12.4211 16.4053 11.8225 15.9751 10.7936 15.3016C9.61516 14.516 10.3821 14.0857 11.0555 13.3936C11.2239 13.2065 14.3104 10.4193 14.3665 10.1574C14.3665 10.12 14.3852 10.0078 14.3104 9.95167C14.2356 9.89555 14.1421 9.91426 14.0672 9.93297C13.955 9.95167 12.2714 11.074 8.99786 13.2814C8.5115 13.6181 8.08126 13.7677 7.68843 13.7677C7.25818 13.7677 6.43511 13.5245 5.81781 13.3188C5.06956 13.0756 4.47097 12.9447 4.52709 12.5331C4.5645 12.3274 4.8638 12.1029 5.42498 11.8784Z" fill="white"/>
</g>
<defs>
<linearGradient id="paint0_linear_1743_1004" x1="0" y1="11.9913" x2="23.9826" y2="11.9913" gradientUnits="userSpaceOnUse">
<stop stop-color="#2AABEE"/>
<stop offset="1" stop-color="#229ED9"/>
</linearGradient>
<clipPath id="clip0_1743_1004">
<rect width="24" height="24" fill="white"/>
</clipPath>
</defs>
</svg>
