<svg width="39" height="39" viewBox="0 0 39 39" fill="none" xmlns="http://www.w3.org/2000/svg">
<g id="Group 3708">
<rect id="Rectangle 1160" x="19.4314" width="27.4802" height="27.4802" transform="rotate(45 19.4314 0)" fill="#5E4699"/>
<path id="x" d="M20.7383 18.2422L22.6367 21.8516C23.293 23.1094 23.8125 23.9062 24.1953 24.2422C24.4062 24.4219 24.6953 24.5195 25.0625 24.5352V24.957H18.957V24.5352C19.4336 24.4961 19.7266 24.4336 19.8359 24.3477C19.9531 24.2617 20.0117 24.1445 20.0117 23.9961C20.0117 23.7773 19.8867 23.4336 19.6367 22.9648L18.6875 21.1836L17.8789 22.3672C17.5117 22.9062 17.3047 23.2266 17.2578 23.3281C17.1953 23.4766 17.1641 23.6094 17.1641 23.7266C17.1641 23.9062 17.1992 24.0586 17.2695 24.1836C17.3477 24.3008 17.4492 24.3906 17.5742 24.4531C17.707 24.5078 17.9453 24.5352 18.2891 24.5352V24.957H14V24.5352C14.5312 24.5352 15.0156 24.3906 15.4531 24.1016C15.8984 23.8047 16.543 23.0352 17.3867 21.793L18.2891 20.457L16.4023 16.9648C15.7852 15.8242 15.3242 15.125 15.0195 14.8672C14.7148 14.6094 14.375 14.4648 14 14.4336V14H20.0703V14.4336L19.7539 14.4453L19.1445 14.6562C19.082 14.7109 19.0508 14.8008 19.0508 14.9258C19.0508 15.043 19.0703 15.1641 19.1094 15.2891C19.1328 15.3438 19.2422 15.5547 19.4375 15.9219L20.293 17.5156L20.7383 16.8828C21.3633 16.0234 21.6758 15.4219 21.6758 15.0781C21.6758 14.9141 21.6055 14.7773 21.4648 14.668C21.332 14.5508 21.0898 14.4727 20.7383 14.4336V14H24.6172V14.4336C24.1406 14.4492 23.6953 14.5977 23.2812 14.8789C22.8672 15.1523 22.4023 15.6875 21.8867 16.4844L20.7383 18.2422Z" fill="#121212"/>
</g>
</svg>
