<svg width="12" height="13" viewBox="0 0 12 13" fill="none" xmlns="http://www.w3.org/2000/svg">
<path d="M6 11.875C3.035 11.875 0.625 9.465 0.625 6.5C0.625 3.535 3.035 1.125 6 1.125C8.965 1.125 11.375 3.535 11.375 6.5C11.375 9.465 8.965 11.875 6 11.875ZM6 1.875C3.45 1.875 1.375 3.95 1.375 6.5C1.375 9.05 3.45 11.125 6 11.125C8.55 11.125 10.625 9.05 10.625 6.5C10.625 3.95 8.55 1.875 6 1.875Z" fill="white"/>
<path d="M7.85507 8.46488C7.79007 8.46488 7.72507 8.44988 7.66507 8.40988L6.11507 7.48488C5.73007 7.25488 5.44507 6.74988 5.44507 6.30488V4.25488C5.44507 4.04988 5.61507 3.87988 5.82007 3.87988C6.02507 3.87988 6.19507 4.04988 6.19507 4.25488V6.30488C6.19507 6.48488 6.34507 6.74988 6.50007 6.83988L8.05007 7.76488C8.23007 7.86988 8.28507 8.09988 8.18007 8.27988C8.10507 8.39988 7.98007 8.46488 7.85507 8.46488Z" fill="white"/>
</svg>
