<svg id="esEQzf8q1Am1" xmlns="http://www.w3.org/2000/svg" xmlns:xlink="http://www.w3.org/1999/xlink" viewBox="0 0 238 238" shape-rendering="geometricPrecision" text-rendering="geometricPrecision" width="238" height="238"><rect width="238" height="238" rx="36" ry="36" transform="matrix(.999999 0 0 0.999999 0.000238 0)" fill="#054477" stroke-width="0"/><path d="M105.69,99.03h44.99q3.04,0,3.15,2.98.34,9.74.12,19.98c-.06,2.94-1.04,4.48-4.23,4.49q-19.87.02-39.74.32c-1.09.02-2.92-.63-4.47-.16-.279592.0905-.469293.336708-.47.61l-.03,49.5q-.01,3.23-3.26,3.24-12.59.04-25.19-.02c-2.77-.01-3.55-2.72-3.55-5.21Q72.99,111.88,73,49c0-3.12,2.53-3.99,5.34-3.99Q126.67,44.99,175,45c2.73.01,3.74,2.38,3.74,4.91q.02,9.91,0,19.84c0,2.66-2.17,3.48-4.59,3.49q-30.2.03-60.4,0-2.64,0-8,.38c-.302523.02092-.537866.295486-.54.63l-.09,24.25c0,.292711.255198.53.57.53Z" transform="translate(-6.874164 6.497116)" fill="#fff"/></svg>
