<svg width="20" height="20" viewBox="0 0 20 20" fill="none" xmlns="http://www.w3.org/2000/svg">
<g clip-path="url(#clip0_1705_69435)">
<path d="M6.125 6.875C6.125 7.28921 6.46079 7.625 6.875 7.625C7.28921 7.625 7.625 7.28921 7.625 6.875H6.125ZM6.875 4.375H6.125H6.875ZM10 1.25V0.5V1.25ZM12.375 6.875C12.375 7.28921 12.7108 7.625 13.125 7.625C13.5392 7.625 13.875 7.28921 13.875 6.875H12.375ZM3.75 7.625H16.25V6.125H3.75V7.625ZM16.25 7.625C16.181 7.625 16.125 7.56904 16.125 7.5H17.625C17.625 6.74061 17.0094 6.125 16.25 6.125V7.625ZM16.125 7.5V16.25H17.625V7.5H16.125ZM16.125 16.25C16.125 16.181 16.181 16.125 16.25 16.125V17.625C17.0094 17.625 17.625 17.0094 17.625 16.25H16.125ZM16.25 16.125H3.75V17.625H16.25V16.125ZM3.75 16.125C3.81904 16.125 3.875 16.181 3.875 16.25H2.375C2.375 17.0094 2.99061 17.625 3.75 17.625V16.125ZM3.875 16.25V7.5H2.375V16.25H3.875ZM3.875 7.5C3.875 7.56904 3.81904 7.625 3.75 7.625V6.125C2.99061 6.125 2.375 6.74061 2.375 7.5H3.875ZM10 13.5625C10.932 13.5625 11.6875 12.807 11.6875 11.875H10.1875C10.1875 11.9786 10.1036 12.0625 10 12.0625V13.5625ZM11.6875 11.875C11.6875 10.943 10.932 10.1875 10 10.1875V11.6875C10.1036 11.6875 10.1875 11.7714 10.1875 11.875H11.6875ZM10 10.1875C9.06802 10.1875 8.3125 10.943 8.3125 11.875H9.8125C9.8125 11.7714 9.89645 11.6875 10 11.6875V10.1875ZM8.3125 11.875C8.3125 12.807 9.06802 13.5625 10 13.5625V12.0625C9.89645 12.0625 9.8125 11.9786 9.8125 11.875H8.3125ZM7.625 6.875V4.375H6.125V6.875H7.625ZM7.625 4.375C7.625 3.74511 7.87522 3.14102 8.32062 2.69562L7.25996 1.63496C6.53326 2.36166 6.125 3.34729 6.125 4.375H7.625ZM8.32062 2.69562C8.76602 2.25022 9.37011 2 10 2V0.5C8.97229 0.5 7.98666 0.908258 7.25996 1.63496L8.32062 2.69562ZM10 2C10.6299 2 11.234 2.25022 11.6794 2.69562L12.74 1.63496C12.0133 0.908258 11.0277 0.5 10 0.5V2ZM11.6794 2.69562C12.1248 3.14102 12.375 3.74511 12.375 4.375H13.875C13.875 3.34729 13.4667 2.36166 12.74 1.63496L11.6794 2.69562ZM12.375 4.375V6.875H13.875V4.375H12.375Z" fill="#94A3B8"/>
</g>
<defs>
<clipPath id="clip0_1705_69435">
<rect width="20" height="20" fill="white"/>
</clipPath>
</defs>
</svg>
