<svg width="16" height="20" viewBox="0 0 16 20" fill="none" xmlns="http://www.w3.org/2000/svg">
<path d="M7 16V16.5C7 16.6333 7.05 16.75 7.15 16.85C7.25 16.95 7.36667 17 7.5 17H8.5C8.63333 17 8.75 16.95 8.85 16.85C8.95 16.75 9 16.6333 9 16.5V16H10C10.2833 16 10.5208 15.9042 10.7125 15.7125C10.9042 15.5208 11 15.2833 11 15V12C11 11.7167 10.9042 11.4792 10.7125 11.2875C10.5208 11.0958 10.2833 11 10 11H7V10H10C10.2833 10 10.5208 9.90417 10.7125 9.7125C10.9042 9.52083 11 9.28333 11 9C11 8.71667 10.9042 8.47917 10.7125 8.2875C10.5208 8.09583 10.2833 8 10 8H9V7.5C9 7.36667 8.95 7.25 8.85 7.15C8.75 7.05 8.63333 7 8.5 7H7.5C7.36667 7 7.25 7.05 7.15 7.15C7.05 7.25 7 7.36667 7 7.5V8H6C5.71667 8 5.47917 8.09583 5.2875 8.2875C5.09583 8.47917 5 8.71667 5 9V12C5 12.2833 5.09583 12.5208 5.2875 12.7125C5.47917 12.9042 5.71667 13 6 13H9V14H6C5.71667 14 5.47917 14.0958 5.2875 14.2875C5.09583 14.4792 5 14.7167 5 15C5 15.2833 5.09583 15.5208 5.2875 15.7125C5.47917 15.9042 5.71667 16 6 16H7ZM2 20C1.45 20 0.979167 19.8042 0.5875 19.4125C0.195833 19.0208 0 18.55 0 18V2C0 1.45 0.195833 0.979167 0.5875 0.5875C0.979167 0.195833 1.45 0 2 0H11L16 5V18C16 18.55 15.8042 19.0208 15.4125 19.4125C15.0208 19.8042 14.55 20 14 20H2ZM10 2V5C10 5.28333 10.0958 5.52083 10.2875 5.7125C10.4792 5.90417 10.7167 6 11 6H14L10 2Z" fill="#98A2B3"/>
</svg>
