<svg width="16" height="20" viewBox="0 0 16 20" fill="none" xmlns="http://www.w3.org/2000/svg">
<path d="M8 10.9999C8.96667 10.9999 9.79167 10.6582 10.475 9.9749C11.1583 9.29157 11.5 8.46657 11.5 7.4999C11.5 6.53324 11.1583 5.70824 10.475 5.0249C9.79167 4.34157 8.96667 3.9999 8 3.9999C7.03333 3.9999 6.20833 4.34157 5.525 5.0249C4.84167 5.70824 4.5 6.53324 4.5 7.4999C4.5 8.46657 4.84167 9.29157 5.525 9.9749C6.20833 10.6582 7.03333 10.9999 8 10.9999ZM8 17.8999C8.98333 17.5832 9.85417 17.0874 10.6125 16.4124C11.3708 15.7374 12.0333 14.9749 12.6 14.1249C11.8833 13.7582 11.1375 13.4791 10.3625 13.2874C9.5875 13.0957 8.8 12.9999 8 12.9999C7.2 12.9999 6.4125 13.0957 5.6375 13.2874C4.8625 13.4791 4.11667 13.7582 3.4 14.1249C3.96667 14.9749 4.62917 15.7374 5.3875 16.4124C6.14583 17.0874 7.01667 17.5832 8 17.8999ZM8 19.8999C7.88333 19.8999 7.775 19.8916 7.675 19.8749C7.575 19.8582 7.475 19.8332 7.375 19.7999C5.125 19.0499 3.33333 17.6624 2 15.6374C0.666667 13.6124 0 11.4332 0 9.0999V4.3749C0 3.95824 0.120833 3.58324 0.3625 3.2499C0.604167 2.91657 0.916667 2.6749 1.3 2.5249L7.3 0.274902C7.53333 0.191569 7.76667 0.149902 8 0.149902C8.23333 0.149902 8.46667 0.191569 8.7 0.274902L14.7 2.5249C15.0833 2.6749 15.3958 2.91657 15.6375 3.2499C15.8792 3.58324 16 3.95824 16 4.3749V9.0999C16 11.4332 15.3333 13.6124 14 15.6374C12.6667 17.6624 10.875 19.0499 8.625 19.7999C8.525 19.8332 8.425 19.8582 8.325 19.8749C8.225 19.8916 8.11667 19.8999 8 19.8999Z" fill="#98A2B3"/>
</svg>
