<?xml version="1.0" encoding="utf-8"?>
<svg xmlns="http://www.w3.org/2000/svg"
  xmlns:xlink="http://www.w3.org/1999/xlink" viewBox="-72 10 362 200" version="1.1" fill="#280144">
  <path
    d="M 254.26,56.2207 254.26,61.00478 253.27509,61.00478 253.27509,58.33129 252.71234,58.33129 252.71234,61.00478 252.29014,61.00478 252.29014,62.27116 250.60158,62.27116 250.60158,59.87912 250.03882,59.87912 250.03882,62.27116 243.98837,62.27116 243.98837,61.1455 243.42548,61.1455 243.42548,62.27116 241.87764,62.27116 241.87764,67.05525 238.78211,67.05525 238.78211,159.36025 209.37401,159.36025 209.37401,103.63945 185.73491,103.63945 185.73491,91.67925 179.12154,91.67925 179.12154,89.99068 173.35252,89.99068 173.35252,86.89517 172.64889,86.89517 172.64889,89.99068 168.99046,89.99068 168.99046,91.67925 160.40723,91.67925 160.40723,159.36025 147.32133,159.36025 147.32133,118.55465 137.47171,118.55465 137.47171,107.72015 131.56198,107.72015 131.56198,118.55465 128.04429,118.55465 128.04429,159.36025 93.42989,159.36025 93.42989,124.04235 72.32349,124.04235 72.32349,121.65031 67.53941,121.65031 67.53941,124.04235 56.98611,124.04235 56.98611,159.36025 9.98931,159.36025 9.98931,113.34835 5.34596,113.34835 5.34596,108.28281 1.40608,108.28281 1.40608,111.23776 -6.47369,111.23776 -6.47369,109.40863 -4.78511,109.40863 -4.78511,99.55901 -8.44353,99.55901 -8.44353,102.93599 -15.05691,102.93599 -15.05691,100.12177 -17.30823,100.12177 -17.30823,91.81998 -23.78088,91.81998 -23.78088,88.16156 -26.87639,88.16156 -26.87639,76.76406 -27.580033,76.76406 -27.580033,88.16156 -29.690613,88.16156 -29.690613,91.81998 -36.022533,91.81998 -36.022533,97.44826 -38.414573,97.44826 -38.414573,102.93599 -41.369363,102.93599 -41.369363,130.41929 -41.403103,130.41929 -41.403103,159.36019 -55.721803,159.36019 -55.721803,132.62559 -74.858103,132.62559 -74.858103,169.02389 -75.331253,169.02389 -75.331253,214.49359 -51.452153,214.49359 -51.452153,214.3775 372.45585,214.3775 372.45585,159.3602 333.47945,159.3602 333.47945,88.0208 319.88345,88.0208 320.11211,86.1915 318.14224,84.64383 309.84045,84.784389 306.0413,88.020799 306.0413,159.3602 297.03587,159.3602 297.03587,123.7609 280.85427,123.7609 280.85427,159.3602 268.19047,159.3602 268.19047,67.055199 264.10987,67.055199 264.10987,62.271109 261.57727,62.271109 261.57727,61.145449 259.04451,61.145449 259.04451,62.271109 255.24533,62.271109 255.24533,61.004729 254.96388,61.004729 254.96388,56.220649 254.26023,56.220649 Z"></path>
</svg>