<?xml version="1.0" encoding="utf-8"?>
<svg xmlns="http://www.w3.org/2000/svg"
  xmlns:xlink="http://www.w3.org/1999/xlink" viewBox="-72 10 362 200" version="1.1" fill="#002A65">
  <path
    d="M 152.762,91.3174 152.762,97.0881 149.38364,97.0881 149.38364,91.71528 147.99256,91.71528 147.99256,97.0881 146.99899,97.0881 146.99899,98.67998 141.43465,98.67998 141.43465,160.56678 129.70965,160.56678 129.70965,113.60438 95.52855,113.60438 95.52855,123.55406 75.85455,123.55406 75.85455,145.44316 57.17405,145.44316 57.17405,140.86646 54.39189,140.86646 54.39189,135.29454 53.887523,135.29454 A 4.07391,7.16373 0 0 0 50.814833,129.90367 L 50.814833,125.94201 50.698057,125.94201 49.813192,123.76089 49.132564,125.94201 49.026231,125.94201 49.026231,129.9067 A 4.07391,7.16373 0 0 0 45.952191,135.29454 L 44.852971,135.29454 44.852971,140.86646 40.083511,140.86646 40.083511,145.44316 21.800611,145.44316 21.800611,162.55646 4.113911,162.55646 4.113911,140.46836 -18.143589,140.46836 -18.143589,162.55646 -30.265989,162.55646 -30.265989,140.07036 -74.979689,140.07036 -74.979689,214.39406 -75.377048,214.39406 -75.377048,214.49356 372.45595,214.49356 372.45595,214.41286 372.42335,214.41286 372.42335,145.64216 360.82995,145.64216 360.82995,148.22892 337.38015,148.22892 337.38015,142.45823 329.03348,142.45823 329.03348,148.22892 326.05261,148.22892 326.05261,139.87129 312.73781,139.87129 312.73781,136.28948 302.00651,136.28948 302.00651,139.87129 289.28811,139.87129 289.28811,168.32719 272.39621,168.32719 272.39621,145.04509 232.45201,145.04509 232.45201,154.9946 224.50288,154.9946 224.50288,146.83592 224.10553,146.83592 224.6023,146.63697 221.32319,138.57784 221.20843,138.93573 221.12453,138.67723 218.66118,146.83592 218.54102,146.83592 218.54102,154.9946 215.75887,154.9946 215.75887,143.2541 207.01484,143.2541 207.01484,138.47829 201.05314,138.47829 201.05314,109.22639 173.62864,109.22639 173.62864,147.23399 161.10884,147.23399 161.10884,98.67979 154.94829,98.67979 154.94829,97.08791 153.95457,97.08791 153.95457,91.31721 152.76216,91.31721 Z"></path>
</svg>