<?xml version="1.0" encoding="utf-8"?>
<svg xmlns="http://www.w3.org/2000/svg"
  xmlns:xlink="http://www.w3.org/1999/xlink" viewBox="-72 10 362 200" version="1.1" fill="#00153A">
  <path
    d="M 212.565,55.2 A 8.25819,9.15366 0 0 0 204.30693,64.35374 8.25819,9.15366 0 0 0 204.43433,65.94562 L 204.30676,65.94562 204.30676,149.12452 188.38746,149.12452 188.38746,126.43932 150.97686,126.43932 150.97686,149.12452 135.85346,149.12452 135.85346,55.39912 101.62666,55.39912 101.62666,108.92812 88.29426,108.92812 88.29426,111.5149 80.13557,111.5149 80.13557,149.1246 66.40497,149.1246 66.40497,135.3942 39.93897,135.3942 39.93897,129.82227 24.01967,129.82227 24.01967,135.3942 2.32947,135.3942 2.32947,143.15483 -3.04334,143.15483 -3.04334,108.33123 -25.92754,108.33123 -25.92754,103.15736 -35.47917,103.15736 -35.47917,108.33123 -36.474047,108.33123 -36.474047,124.44963 -56.771247,124.44963 -56.771247,135.79203 -75.476647,135.79203 -75.476647,176.38653 -75.377107,176.38653 -75.377107,214.49363 -59.756307,214.49363 -59.756307,214.39413 372.25669,214.39413 372.25669,214.1952 372.45559,214.1952 372.45559,146.5377 368.47573,146.5377 368.47573,122.2606 368.07784,122.2606 368.07784,111.5605 372.13249,111.5605 A 22.8652,14.0005 0 0 0 362.20846,110.15339 22.8652,14.0005 0 0 0 343.39256,116.20384 L 345.98961,116.20384 345.98961,122.26056 341.41277,122.26056 341.41277,127.23549 332.45813,127.23549 332.45813,149.12459 285.29693,149.12459 285.29693,102.75939 279.92414,102.75939 279.92414,100.96839 260.22384,100.96839 260.22384,102.75939 254.0551,102.75939 254.0551,149.12459 241.9165,149.12459 241.9165,70.52249 241.50461,70.52249 A 4.96914,9.04849 0 0 0 241.51261,70.223994 4.96914,9.04849 0 0 0 236.5434,61.175544 4.96914,9.04849 0 0 0 236.14535,61.208434 L 236.14535,55.199984 213.06225,55.199984 213.06225,55.227684 A 8.25819,9.15366 0 0 0 212.56481,55.199984 Z"></path>
</svg>