<?xml version="1.0" encoding="utf-8"?>
<svg xmlns="http://www.w3.org/2000/svg"
  xmlns:xlink="http://www.w3.org/1999/xlink" viewBox="-72 10 362 200" version="1.1" fill="#032F60">
  <path
    d="M 194.622,131.148 C 194.622,131.148 193.59002,139.75614 193.41659,142.6158 L 190.07533,142.6158 C 189.49755,138.95259 188.4363,133.1882 188.4363,133.1882 L 188.4363,133.68074 187.06787,143.95254 186.74923,143.95254 186.74923,180.11464 184.78096,180.11464 184.78096,150.77684 151.46256,150.77684 151.46256,174.83814 147.24514,174.83814 147.24514,149.08844 141.6217,149.08844 141.6217,145.14857 131.4998,145.14857 131.4998,149.08844 122.78358,149.08844 122.78358,153.02816 111.25568,153.02816 111.25568,199.32146 92.97978,199.32146 92.97978,144.02286 62.89478,144.02286 62.89478,166.95836 47.85228,166.95836 47.85228,153.73176 26.62428,153.73176 26.62428,166.95836 24.09376,166.95836 24.09376,144.44486 -6.97534,144.44486 -6.97534,203.15076 -8.38121,203.15076 -8.38121,137.83166 -13.72345,137.83166 -13.72345,134.73598 -32.42115,134.73598 -32.42115,137.83166 -40.57495,137.83166 -40.57495,203.15076 -51.11885,203.15076 -51.11885,149.36966 -60.95956,149.36966 -60.95956,143.03774 -71.92526,143.03774 -71.92526,149.36966 -73.47156,149.36966 -73.47156,151.48042 -75.15863,151.48042 -75.15863,214.49342 372.45537,214.49342 372.45537,211.11054 365.57208,211.11054 365.57208,141.34934 343.92228,141.34934 343.92228,146.41488 308.49498,146.41488 308.49498,142.61572 300.763,142.61572 300.763,146.41488 298.79469,146.41488 298.79469,209.91648 291.90617,209.91648 291.90617,133.46958 262.10237,133.46958 262.10237,206.42718 205.72827,206.42718 205.72827,180.11458 197.71491,180.11458 197.71491,143.95248 197.64461,143.95248 197.64461,143.03775 197.39392,143.03775 194.62215,131.14795 Z"></path>
</svg>