<svg xmlns="http://www.w3.org/2000/svg" xmlns:xlink="http://www.w3.org/1999/xlink" version="1.1"
  viewBox="0 0 100 100" xml:space="preserve"><path fill="#F5F5F5" d="M73.186,42.209c0-0.002-0.002-0.003-0.002-0.005c0-0.001,0.001-0.002,0.001-0.004l-0.05-0.645  c0-0.002-0.002-0.003-0.002-0.005c-0.001-0.001,0.001-0.003,0.001-0.005L73,40.403c0,0-0.001-0.001-0.001-0.001  c0-0.001,0.001-0.002,0.001-0.003l-0.084-0.614c0-0.001-0.001-0.001-0.001-0.002v0l-0.162-1.108c-0.001,0,0-0.001,0-0.001  l-0.083-0.614c0,0-0.001,0-0.001-0.001l-0.129-1.133l-0.05-0.633c0,0,0,0,0,0l-0.042-1.225v-0.677c0-0.001-0.002-0.002-0.002-0.004  s0.002-0.002,0.002-0.004l-0.041-1.229c0,0-0.001-0.001-0.001-0.001s0.001-0.001,0.001-0.001l-0.03-0.661  c0-0.001-0.002-0.002-0.002-0.003c0-0.001,0.001-0.001,0.001-0.002l-0.08-1.2c0,0,0,0,0,0l0,0l-0.045-0.649  c0,0,0.001-0.001,0.001-0.001l-0.062-1.204l0,0l-0.029-0.664c0,0,0,0,0,0L72.14,27.53v-0.683l0.021-1.282c0,0,0,0,0,0l0.092-2.044  c0,0,0,0,0,0l0.045-0.728c0,0,0,0,0,0l0,0l0.08-1.336c0-0.001-0.001-0.002-0.001-0.003c0-0.001,0.001-0.001,0.001-0.002l0.021-0.565  c0.001-0.032-0.021-0.055-0.031-0.083c-0.011-0.031-0.012-0.064-0.033-0.089c-0.021-0.024-0.054-0.029-0.082-0.043  c-0.027-0.014-0.048-0.04-0.08-0.042l-1.251-0.117c0,0,0,0-0.001,0l0,0l-0.339-0.03l0,0l-1.382-0.133l0,0l-0.328-0.035l0,0  l-1.341-0.175l0,0l-0.315-0.045l-1.269-0.229v0l-0.31-0.056l0,0l-1.245-0.265c0,0,0,0-0.001,0l-0.29-0.065l0,0  c-0.001,0-0.001,0-0.001,0l-1.24-0.272c-0.001,0-0.002,0-0.003,0s-0.001-0.001-0.002-0.001l-0.307-0.061  c-0.001,0-0.002,0.001-0.003,0c-0.001,0-0.002-0.001-0.003-0.001l-1.281-0.226c-0.001,0-0.002,0.001-0.003,0  c-0.001,0-0.002-0.001-0.003-0.001l-1.956-0.296l0,0c-0.001,0-0.001,0-0.001,0l-1.324-0.195c-0.002,0-0.003,0.001-0.005,0.001  c-0.002,0-0.002-0.002-0.004-0.002l-0.326-0.036c-0.002,0-0.002,0.001-0.004,0.001c-0.001,0-0.002-0.001-0.003-0.001l-1.404-0.118  c-0.001,0-0.002,0.001-0.002,0.001c-0.001,0-0.002-0.001-0.003-0.001l-0.348-0.021c-0.001,0-0.001,0.001-0.002,0  c-0.001,0-0.002-0.001-0.003-0.001l-1.463-0.061l-0.36-0.015l-1.466-0.061l-0.345-0.015c-0.001,0-0.001,0-0.002,0l-1.388-0.117l0,0  l-0.327-0.036l-1.306-0.198l-0.3-0.06l-1.206-0.284l0,0l-0.289-0.077l0,0l-1.157-0.335l-0.266-0.083l-1.075-0.407l-0.251-0.109  l-0.956-0.488l-0.22-0.133c-0.001,0-0.003,0-0.004,0c-0.001-0.001-0.001-0.002-0.002-0.003l-1.181-0.675  c-0.002-0.001-0.004,0-0.006-0.001s-0.002-0.003-0.004-0.004l-0.984-0.508c-0.003-0.002-0.007,0-0.01-0.001  c-0.004-0.001-0.004-0.006-0.008-0.007l-0.256-0.108c-0.005-0.002-0.009,0.001-0.014,0c-0.005-0.002-0.006-0.007-0.011-0.009  l-1.159-0.348c-0.005-0.001-0.008,0.002-0.013,0.001c-0.005-0.001-0.006-0.006-0.011-0.007l-0.304-0.061  c-0.005-0.001-0.009,0.003-0.014,0.002c-0.005,0-0.008-0.006-0.013-0.006l-1.395-0.125c-0.004,0-0.006,0.003-0.01,0.003  c-0.004,0-0.006-0.004-0.01-0.004l-0.369-0.004c-0.004-0.001-0.007,0.001-0.011,0.001c-0.001,0-0.001-0.001-0.002-0.001  l-1.597,0.065c-0.002,0-0.004,0.002-0.006,0.003c-0.002,0-0.004-0.002-0.006-0.002l-0.413,0.036l0,0c-0.001,0-0.001,0-0.001,0  l-1.685,0.153l0,0l-0.411,0.031l0,0l-1.613,0.092h-0.355l-1.406-0.097l-0.304-0.049c-0.001,0-0.001,0-0.002,0  c0,0,0-0.001-0.001-0.001l-2.338-0.354c-0.015-0.002-0.023,0.009-0.037,0.009v-2.312H26.56v76.299h0.972V41.3l1.307,0.199  c0.001,0,0.002,0,0.002,0c0.001,0,0.001,0,0.001,0l0.675,0.097c0.002,0,0.004,0,0.006,0l0.001,0l1.005,0.114  c0.002,0,0.003,0,0.004,0s0.001,0,0.001,0l0.708,0.065c0.001,0,0.003,0,0.004,0s0.001,0,0.001,0l1.032,0.078  c0.002,0,0.004,0,0.005,0l0.727,0.044l1.053,0.068l0,0l0.717,0.05c0.002,0,0.005,0,0.007,0l1.032,0.081c0.001,0,0.001,0,0.001,0  l0.696,0.067c0.001,0,0.002,0,0.003,0l0.981,0.121l0.674,0.093c0.001,0,0.001,0,0.002,0l0.983,0.133h0.001c0.001,0,0.001,0,0.001,0  l0.675,0.086c0.001,0,0.002,0,0.003,0l0.99,0.134l0,0l0.662,0.09l0,0l0.97,0.149c0.001,0,0.001,0,0.002,0l0.649,0.106l0,0  l0.939,0.168l0,0l0.629,0.127l0,0l0.909,0.205l0,0l0.604,0.145l0.727,0.206c0.001,0,0.002,0,0.003,0l0,0l0.123,0.033c0,0,0,0,0,0  l0.586,0.179c0.001,0,0.002,0,0.003,0l0.711,0.218c0.001,0,0.001,0,0.001,0l0.135,0.042c0.002,0,0.003,0,0.005,0  c0,0,0.001,0.001,0.001,0.001l0.591,0.168c0.001,0,0.001,0,0.002,0l0.001,0l0.872,0.236c0.001,0,0.001,0,0.002,0c0,0,0,0,0,0  l0.604,0.158l0.737,0.194c0.001,0,0.001,0,0.002,0l0.001,0l0.137,0.034l0.595,0.164h0.001l0.858,0.246c0.001,0,0.001,0,0.002,0  l0.591,0.168c0.002,0,0.004,0,0.005,0.001c0.001,0,0.001,0.001,0.002,0.001l0.883,0.226c0.002,0,0.004,0,0.007,0.001  c0.001,0,0.001,0.001,0.002,0.001l0.637,0.137c0.002,0,0.004,0,0.007,0c0,0,0.001,0.001,0.001,0.001l0.931,0.17  c0.003,0,0.006,0,0.009,0.001c0,0,0,0,0.001,0l0.678,0.097c0.003,0,0.005,0,0.008,0c0.001,0,0.001,0,0.001,0l1.015,0.107  c0.003,0,0.007,0,0.01,0c0.001,0,0.001,0,0.001,0l0.717,0.046c0.001,0,0.003,0,0.004,0l0.001,0l1.073,0.045c0.001,0,0.003,0,0.004,0  l1.854,0.052l0,0l0.737,0.025l1.089,0.04h0.001l0.744,0.022l0,0l1.085,0.042c0.002,0,0.003,0,0.004,0l0.759,0.019  c0.001,0,0.001,0,0.002,0l1.104,0.017l0,0l0.754,0.015l0,0l1.072,0.041l0.721,0.052c0.001,0,0.001,0,0.002,0l0.985,0.105l0,0  l0.661,0.096l0.92,0.187l0.594,0.152h0.001l0.128,0.038c0.001,0,0.002,0,0.004,0c0,0,0,0.001,0.001,0.001l0.038,0.01  c0.021,0.006,0.042,0.008,0.062,0.008c0.001,0,0.001,0,0.001,0c0.002,0,0.002,0.001,0.003,0.001c0.017,0,0.027-0.015,0.044-0.018  c0.035-0.009,0.07-0.016,0.098-0.041c0.062-0.045,0.108-0.109,0.108-0.191v-0.048l0.083-1.042c0-0.001-0.001-0.001-0.001-0.002  c0,0,0.001-0.001,0.001-0.001l0.05-0.738c0-0.001-0.001-0.001-0.001-0.002c0-0.002,0.002-0.003,0.002-0.004l0.051-1.311  c0-0.002-0.002-0.003-0.002-0.005c0-0.001,0.002-0.002,0.002-0.004V43.44c0-0.002-0.002-0.003-0.002-0.005s0.002-0.003,0.002-0.005  L73.186,42.209z"/></svg>